<svg width="14" height="14" viewBox="0 0 14 14" fill="none" xmlns="http://www.w3.org/2000/svg">
<path d="M7.00016 13.6667C5.41127 13.6667 4.00572 13.1667 2.7835 12.1667C1.56127 11.1667 0.789052 9.88889 0.466829 8.33333H1.8335C2.14461 9.51111 2.77794 10.4722 3.7335 11.2167C4.68905 11.9611 5.77794 12.3333 7.00016 12.3333C7.95572 12.3333 8.84461 12.0973 9.66683 11.6253C10.4891 11.1529 11.1335 10.5 11.6002 9.66667H9.66683V8.33333H13.6668V12.3333H12.3335V11C11.7002 11.8444 10.9168 12.5 9.9835 12.9667C9.05016 13.4333 8.05572 13.6667 7.00016 13.6667ZM7.00016 9C6.44461 9 5.97238 8.80556 5.5835 8.41667C5.19461 8.02778 5.00016 7.55556 5.00016 7C5.00016 6.44444 5.19461 5.97222 5.5835 5.58333C5.97238 5.19444 6.44461 5 7.00016 5C7.55572 5 8.02794 5.19444 8.41683 5.58333C8.80572 5.97222 9.00016 6.44444 9.00016 7C9.00016 7.55556 8.80572 8.02778 8.41683 8.41667C8.02794 8.80556 7.55572 9 7.00016 9ZM0.333496 5.66667V1.66667H1.66683V3C2.30016 2.15556 3.0835 1.5 4.01683 1.03333C4.95016 0.566667 5.94461 0.333334 7.00016 0.333334C8.58905 0.333334 9.99461 0.833334 11.2168 1.83333C12.4391 2.83333 13.2113 4.11111 13.5335 5.66667H12.1668C11.8557 4.48889 11.2224 3.52778 10.2668 2.78333C9.31127 2.03889 8.22238 1.66667 7.00016 1.66667C6.04461 1.66667 5.15572 1.90267 4.3335 2.37467C3.51127 2.84711 2.86683 3.5 2.40016 4.33333H4.3335V5.66667H0.333496Z" fill="#FF7562"/>
</svg>
