<svg width="221" height="208" viewBox="0 0 221 208" fill="none" xmlns="http://www.w3.org/2000/svg">
<path d="M220.821 204.708C220.821 206.523 171.382 208 110.414 208C49.4456 208 0 206.523 0 204.708C0 202.893 49.4398 201.416 110.414 201.416C171.387 201.416 220.821 202.893 220.821 204.708Z" fill="#FF7562"/>
<path opacity="0.3" d="M220.821 204.708C220.821 206.523 171.382 208 110.414 208C49.4456 208 0 206.523 0 204.708C0 202.893 49.4398 201.416 110.414 201.416C171.387 201.416 220.821 202.893 220.821 204.708Z" fill="white"/>
<path d="M199.685 141.326C199.685 141.355 201.18 139.784 201.261 139.674C202.209 138.406 203.297 135.393 202.267 133.945C202.09 133.71 201.865 133.514 201.607 133.372C201.349 133.229 201.065 133.143 200.771 133.117C200.478 133.092 200.182 133.129 199.904 133.225C199.625 133.322 199.37 133.476 199.156 133.677C198.213 134.503 197.992 136.033 198.074 137.214C198.173 138.598 199.685 141.32 199.685 141.326Z" fill="#FF7562"/>
<path d="M213.272 135.917C211.818 134.899 208.817 136.01 207.554 136.964C207.444 137.051 205.885 138.54 205.914 138.551H205.949C205.472 138.726 204.966 138.912 204.414 139.133C203.401 139.54 202.261 140.017 201.052 140.611C199.746 141.246 198.476 141.952 197.248 142.728C195.871 143.592 194.575 144.577 193.374 145.671C193.359 145.683 193.345 145.697 193.333 145.712C193.589 145.264 194.27 143.967 194.31 143.874C194.892 142.396 195.142 139.22 193.769 138.086C193.535 137.907 193.265 137.779 192.977 137.711C192.69 137.643 192.392 137.637 192.101 137.691C191.811 137.746 191.536 137.862 191.293 138.03C191.05 138.198 190.846 138.415 190.692 138.668C190.006 139.715 190.192 141.245 190.588 142.361C191.03 143.623 193.037 145.706 193.199 145.851C192.002 146.994 190.882 148.216 189.849 149.51C189.267 150.26 188.657 151.034 188.104 151.836C188.314 151.441 188.5 151.08 188.517 151.028C189.099 149.556 189.349 146.375 187.976 145.24C187.742 145.061 187.472 144.934 187.186 144.866C186.899 144.798 186.601 144.791 186.311 144.846C186.021 144.901 185.746 145.016 185.504 145.184C185.262 145.352 185.058 145.57 184.905 145.822C184.213 146.863 184.405 148.399 184.795 149.51C185.184 150.621 186.871 152.459 187.319 152.93L186.638 153.825C185.591 155.285 184.556 156.734 183.492 158.141C183.119 158.636 182.736 159.113 182.328 159.584C182.515 159.229 182.672 158.932 182.689 158.886C183.271 157.408 183.521 154.233 182.148 153.069C181.914 152.889 181.644 152.761 181.356 152.692C181.069 152.624 180.77 152.617 180.48 152.672C180.189 152.727 179.914 152.842 179.671 153.011C179.428 153.18 179.224 153.398 179.071 153.651C178.379 154.698 178.571 156.228 178.967 157.344C179.362 158.461 180.874 160.113 181.404 160.677C180.996 161.154 180.589 161.625 180.171 162.067C179.88 162.364 179.624 162.649 179.31 162.946L178.42 163.783C177.838 164.295 177.257 164.83 176.646 165.319C176.239 165.662 175.849 165.976 175.482 166.296C175.855 165.813 176.576 164.842 176.646 164.755C177.301 163.524 177.629 162.146 177.6 160.753C177.677 160.619 177.743 160.479 177.797 160.334C177.906 160.06 177.956 159.766 177.944 159.471C177.932 159.176 177.857 158.887 177.726 158.623C177.595 158.359 177.41 158.125 177.183 157.937C176.956 157.748 176.691 157.61 176.407 157.531C174.662 157.106 172.278 159.217 171.446 160.567C171.399 160.648 170.957 161.567 170.696 162.155C170.794 161.788 170.905 161.428 171.004 161.05C171.213 160.299 171.399 159.543 171.585 158.723C171.667 158.327 171.754 157.926 171.841 157.525C171.929 157.123 171.981 156.693 172.057 156.274C172.202 155.297 172.307 154.302 172.394 153.296C173.051 153.476 175.395 154.087 176.57 153.878C177.745 153.668 179.182 153.145 179.775 152.046C179.925 151.792 180.02 151.509 180.053 151.216C180.087 150.922 180.058 150.625 179.968 150.344C179.879 150.063 179.731 149.804 179.534 149.584C179.337 149.364 179.096 149.188 178.827 149.068C177.187 148.381 174.494 150.109 173.464 151.313C173.4 151.388 172.76 152.336 172.417 152.866C172.464 152.284 172.51 151.656 172.539 151.039C172.609 149.294 172.632 147.474 172.662 145.682C172.662 145.136 172.662 144.589 172.696 144.042C172.929 144.106 175.704 144.891 177.018 144.688C178.181 144.513 179.63 143.961 180.229 142.856C180.377 142.601 180.47 142.318 180.502 142.025C180.534 141.732 180.504 141.435 180.414 141.155C180.324 140.874 180.176 140.615 179.98 140.395C179.784 140.175 179.544 139.999 179.275 139.878C177.64 139.197 174.942 140.925 173.912 142.129C173.836 142.216 172.917 143.583 172.696 143.943C172.726 142.739 172.766 141.535 172.853 140.355C172.966 138.759 173.179 137.171 173.493 135.603C173.604 135.603 176.495 136.463 177.844 136.254C179.007 136.08 180.45 135.527 181.049 134.422C181.197 134.167 181.291 133.885 181.323 133.592C181.355 133.299 181.326 133.003 181.236 132.722C181.147 132.442 181 132.183 180.804 131.963C180.609 131.742 180.369 131.566 180.101 131.444C178.461 130.763 175.762 132.485 174.738 133.695C174.668 133.77 173.964 134.812 173.644 135.312L173.551 135.277C173.911 133.705 174.411 132.169 175.046 130.688C175.384 129.868 175.75 129.106 176.128 128.361C176.652 128.57 179.036 129.524 180.281 129.455C181.526 129.385 182.957 129.013 183.672 127.983C183.848 127.746 183.972 127.475 184.036 127.188C184.1 126.9 184.103 126.602 184.045 126.313C183.987 126.024 183.869 125.751 183.699 125.51C183.528 125.27 183.309 125.068 183.056 124.918C181.503 124.063 178.629 125.499 177.478 126.564C177.414 126.622 176.844 127.291 176.431 127.785C176.605 127.46 176.78 127.116 176.954 126.802C177.605 125.639 178.269 124.592 178.868 123.679C179.211 123.167 179.531 122.707 179.839 122.277C180.456 122.219 182.957 121.934 184.009 121.335C185.062 120.736 186.179 119.712 186.336 118.467C186.384 118.176 186.37 117.879 186.295 117.594C186.22 117.309 186.085 117.043 185.9 116.813C185.715 116.584 185.484 116.396 185.221 116.262C184.958 116.128 184.67 116.051 184.376 116.036C182.602 115.989 180.711 118.566 180.188 120.061C180.141 120.195 179.665 122.295 179.694 122.289H179.734C179.432 122.676 179.112 123.119 178.775 123.615C178.152 124.516 177.46 125.54 176.785 126.703C176.043 127.951 175.373 129.241 174.779 130.566C174.109 132.047 173.57 133.585 173.168 135.161C173.171 135.18 173.171 135.199 173.168 135.219C173.168 134.701 172.993 133.253 172.97 133.142C172.644 131.595 171.091 128.791 169.329 128.617C169.035 128.595 168.739 128.635 168.461 128.734C168.184 128.834 167.93 128.991 167.717 129.195C167.504 129.399 167.337 129.646 167.226 129.919C167.114 130.192 167.062 130.486 167.072 130.781C167.072 132.031 168.078 133.206 169.02 133.916C170.085 134.724 172.906 135.358 173.133 135.405C172.768 137.02 172.509 138.658 172.359 140.308C172.272 141.268 172.208 142.233 172.155 143.216C172.115 142.768 172.074 142.367 172.062 142.315C171.731 140.762 170.178 137.964 168.416 137.784C168.121 137.762 167.826 137.801 167.548 137.901C167.271 138.001 167.017 138.158 166.804 138.362C166.591 138.566 166.424 138.813 166.312 139.086C166.201 139.359 166.149 139.653 166.159 139.947C166.159 141.198 167.165 142.373 168.107 143.088C169.05 143.804 171.463 144.397 172.097 144.548C172.097 144.92 172.062 145.293 172.051 145.665C171.981 147.456 171.923 149.248 171.812 150.999C171.772 151.615 171.708 152.226 171.649 152.831C171.615 152.435 171.574 152.098 171.568 152.051C171.236 150.498 169.683 147.701 167.921 147.52C167.627 147.498 167.331 147.538 167.054 147.638C166.776 147.737 166.523 147.894 166.31 148.099C166.097 148.303 165.929 148.549 165.818 148.823C165.707 149.096 165.654 149.389 165.664 149.684C165.664 150.941 166.671 152.11 167.613 152.825C168.555 153.54 170.736 154.081 171.487 154.256C171.411 154.878 171.33 155.501 171.225 156.094C171.143 156.501 171.097 156.902 170.992 157.304L170.713 158.467C170.504 159.217 170.3 159.997 170.079 160.724C169.928 161.23 169.777 161.713 169.625 162.201C169.672 161.585 169.736 160.381 169.73 160.276C169.643 158.7 168.532 155.693 166.822 155.251C166.535 155.185 166.237 155.18 165.948 155.237C165.659 155.294 165.385 155.411 165.145 155.58C164.904 155.75 164.701 155.968 164.55 156.221C164.399 156.474 164.303 156.755 164.268 157.048C164.076 158.287 164.891 159.595 165.717 160.445C166.543 161.294 169.207 162.405 169.532 162.533C169.276 163.335 169.026 164.109 168.776 164.859C167.909 167.389 167.095 169.466 166.508 170.908C166.508 170.961 166.467 171.007 166.444 171.054L167.502 171.635C167.537 171.542 167.578 171.449 167.613 171.35C168.194 169.879 168.956 167.762 169.771 165.185C170.032 164.371 170.294 163.498 170.556 162.597C171.444 162.708 172.337 162.766 173.232 162.771C173.551 164.068 175.035 166.197 175.227 166.47C174.575 167 173.935 167.512 173.325 167.983C171.207 169.617 169.381 170.891 168.09 171.775L167.939 171.88L169.102 172.52C170.358 171.618 172.01 170.367 173.97 168.809C174.633 168.274 175.337 167.686 176.047 167.064C176.308 167.285 178.431 169.088 179.688 169.448C180.822 169.774 182.363 169.879 183.364 169.129C183.605 168.96 183.809 168.743 183.961 168.49C184.113 168.238 184.211 167.956 184.247 167.664C184.283 167.372 184.257 167.075 184.171 166.793C184.085 166.511 183.941 166.251 183.748 166.028C182.549 164.72 179.38 165.156 177.931 165.819C177.85 165.86 176.977 166.401 176.431 166.726C176.721 166.476 177.012 166.238 177.297 165.976C177.879 165.47 178.461 164.941 179.077 164.371L179.95 163.516C180.246 163.231 180.531 162.899 180.822 162.591C181.485 161.858 182.119 161.084 182.741 160.293C183.195 160.805 184.818 162.62 185.894 163.109C186.97 163.597 188.476 163.934 189.582 163.347C189.846 163.216 190.079 163.032 190.267 162.805C190.455 162.579 190.594 162.315 190.674 162.032C190.754 161.749 190.774 161.452 190.732 161.16C190.69 160.869 190.587 160.589 190.431 160.34C189.442 158.868 186.243 158.816 184.719 159.252C184.62 159.281 183.556 159.718 182.974 159.968C183.341 159.491 183.719 159.014 184.073 158.514C185.115 157.077 186.121 155.605 187.133 154.116L188.069 152.767C188.226 152.947 190.111 155.134 191.321 155.675C192.391 156.17 193.897 156.507 195.002 155.914C195.268 155.784 195.503 155.601 195.692 155.374C195.881 155.148 196.02 154.884 196.101 154.6C196.181 154.316 196.2 154.019 196.157 153.727C196.114 153.435 196.01 153.155 195.852 152.906C194.863 151.435 191.664 151.383 190.14 151.825C190.029 151.854 188.506 152.488 188.127 152.668C188.814 151.679 189.512 150.696 190.239 149.76C191.208 148.487 192.261 147.28 193.391 146.148C193.467 146.235 195.421 148.521 196.654 149.091C197.73 149.591 199.237 149.923 200.342 149.335C200.607 149.205 200.841 149.021 201.03 148.795C201.218 148.568 201.357 148.305 201.437 148.021C201.517 147.737 201.537 147.44 201.494 147.148C201.452 146.857 201.349 146.577 201.191 146.328C200.202 144.851 197.003 144.804 195.479 145.24C195.381 145.269 194.223 145.752 193.676 145.991L193.618 145.903C194.785 144.795 196.049 143.793 197.393 142.908C198.132 142.408 198.859 141.972 199.58 141.57C199.9 142.03 201.383 144.129 202.442 144.769C203.5 145.409 204.914 145.88 206.077 145.415C206.355 145.314 206.608 145.155 206.821 144.95C207.033 144.744 207.2 144.496 207.31 144.221C207.419 143.947 207.47 143.652 207.458 143.357C207.446 143.061 207.372 142.771 207.24 142.507C206.42 140.93 203.244 140.535 201.686 140.802C201.598 140.802 200.749 141.058 200.138 141.245L201.116 140.709C202.308 140.093 203.442 139.593 204.437 139.162C205.018 138.924 205.53 138.714 206.019 138.528C206.571 138.819 208.805 139.965 210.015 140.04C211.225 140.116 212.725 139.883 213.54 138.935C213.726 138.722 213.867 138.473 213.954 138.204C214.042 137.935 214.074 137.651 214.049 137.369C214.024 137.087 213.943 136.813 213.809 136.563C213.675 136.314 213.493 136.094 213.272 135.917Z" fill="#FF7562"/>
<path d="M172.417 125.534C173.26 126.639 176.023 128.076 176.029 128.076C176.035 128.076 176.424 125.97 176.43 125.831C176.523 124.249 175.767 121.143 174.104 120.503C173.826 120.404 173.53 120.365 173.236 120.389C172.942 120.412 172.656 120.497 172.397 120.638C172.138 120.779 171.912 120.973 171.733 121.207C171.554 121.441 171.426 121.711 171.358 121.998C171.033 123.202 171.725 124.598 172.417 125.534Z" fill="#FF7562"/>
<g opacity="0.5">
<path opacity="0.5" d="M199.684 141.326C199.684 141.355 201.179 139.785 201.261 139.674C202.209 138.406 203.296 135.393 202.267 133.945C202.089 133.71 201.864 133.515 201.607 133.372C201.349 133.23 201.064 133.143 200.771 133.118C200.477 133.092 200.182 133.129 199.903 133.226C199.625 133.322 199.37 133.476 199.155 133.677C198.213 134.503 197.992 136.033 198.073 137.214C198.172 138.598 199.684 141.32 199.684 141.326Z" fill="white"/>
<path opacity="0.5" d="M213.272 135.917C211.818 134.899 208.817 136.01 207.554 136.964C207.444 137.051 205.885 138.54 205.914 138.551H205.949C205.472 138.726 204.966 138.912 204.414 139.133C203.401 139.54 202.261 140.017 201.052 140.611C199.746 141.246 198.476 141.952 197.248 142.728C195.871 143.592 194.575 144.577 193.374 145.671C193.359 145.683 193.345 145.697 193.333 145.712C193.589 145.264 194.27 143.967 194.31 143.874C194.892 142.396 195.142 139.22 193.769 138.086C193.535 137.907 193.265 137.779 192.977 137.711C192.69 137.643 192.392 137.637 192.101 137.691C191.811 137.746 191.536 137.862 191.293 138.03C191.05 138.198 190.846 138.415 190.692 138.668C190.006 139.715 190.192 141.245 190.588 142.361C191.03 143.623 193.037 145.706 193.199 145.851C192.002 146.994 190.882 148.216 189.849 149.51C189.267 150.26 188.657 151.034 188.104 151.836C188.314 151.441 188.5 151.08 188.517 151.028C189.099 149.556 189.349 146.375 187.976 145.24C187.742 145.061 187.472 144.934 187.186 144.866C186.899 144.798 186.601 144.791 186.311 144.846C186.021 144.901 185.746 145.016 185.504 145.184C185.262 145.352 185.058 145.57 184.905 145.822C184.213 146.863 184.405 148.399 184.795 149.51C185.184 150.621 186.871 152.459 187.319 152.93L186.638 153.825C185.591 155.285 184.556 156.734 183.492 158.141C183.119 158.636 182.736 159.113 182.328 159.584C182.515 159.229 182.672 158.932 182.689 158.886C183.271 157.408 183.521 154.233 182.148 153.069C181.914 152.889 181.644 152.761 181.356 152.692C181.069 152.624 180.77 152.617 180.48 152.672C180.189 152.727 179.914 152.842 179.671 153.011C179.428 153.18 179.224 153.398 179.071 153.651C178.379 154.698 178.571 156.228 178.967 157.344C179.362 158.461 180.874 160.113 181.404 160.677C180.996 161.154 180.589 161.625 180.171 162.067C179.88 162.364 179.624 162.649 179.31 162.946L178.42 163.783C177.838 164.295 177.257 164.83 176.646 165.319C176.239 165.662 175.849 165.976 175.482 166.296C175.855 165.813 176.576 164.842 176.646 164.755C177.301 163.524 177.629 162.146 177.6 160.753C177.677 160.619 177.743 160.479 177.797 160.334C177.906 160.06 177.956 159.766 177.944 159.471C177.932 159.176 177.857 158.887 177.726 158.623C177.595 158.359 177.41 158.125 177.183 157.937C176.956 157.748 176.691 157.61 176.407 157.531C174.662 157.106 172.278 159.217 171.446 160.567C171.399 160.648 170.957 161.567 170.696 162.155C170.794 161.788 170.905 161.428 171.004 161.05C171.213 160.299 171.399 159.543 171.585 158.723C171.667 158.327 171.754 157.926 171.841 157.525C171.929 157.123 171.981 156.693 172.057 156.274C172.202 155.297 172.307 154.302 172.394 153.296C173.051 153.476 175.395 154.087 176.57 153.878C177.745 153.668 179.182 153.145 179.775 152.046C179.925 151.792 180.02 151.509 180.053 151.216C180.087 150.922 180.058 150.625 179.968 150.344C179.879 150.063 179.731 149.804 179.534 149.584C179.337 149.364 179.096 149.188 178.827 149.068C177.187 148.381 174.494 150.109 173.464 151.313C173.4 151.388 172.76 152.336 172.417 152.866C172.464 152.284 172.51 151.656 172.539 151.039C172.609 149.294 172.632 147.474 172.662 145.682C172.662 145.136 172.662 144.589 172.696 144.042C172.929 144.106 175.704 144.891 177.018 144.688C178.181 144.513 179.63 143.961 180.229 142.856C180.377 142.601 180.47 142.318 180.502 142.025C180.534 141.732 180.504 141.435 180.414 141.155C180.324 140.874 180.176 140.615 179.98 140.395C179.784 140.175 179.544 139.999 179.275 139.878C177.64 139.197 174.942 140.925 173.912 142.129C173.836 142.216 172.917 143.583 172.696 143.943C172.726 142.739 172.766 141.535 172.853 140.355C172.966 138.759 173.179 137.171 173.493 135.603C173.604 135.603 176.495 136.463 177.844 136.254C179.007 136.08 180.45 135.527 181.049 134.422C181.197 134.167 181.291 133.885 181.323 133.592C181.355 133.299 181.326 133.003 181.236 132.722C181.147 132.442 181 132.183 180.804 131.963C180.609 131.742 180.369 131.566 180.101 131.444C178.461 130.763 175.762 132.485 174.738 133.695C174.668 133.77 173.964 134.812 173.644 135.312L173.551 135.277C173.911 133.705 174.411 132.169 175.046 130.688C175.384 129.868 175.75 129.106 176.128 128.361C176.652 128.57 179.036 129.524 180.281 129.455C181.526 129.385 182.957 129.013 183.672 127.983C183.848 127.746 183.972 127.475 184.036 127.188C184.1 126.9 184.103 126.602 184.045 126.313C183.987 126.024 183.869 125.751 183.699 125.51C183.528 125.27 183.309 125.068 183.056 124.918C181.503 124.063 178.629 125.499 177.478 126.564C177.414 126.622 176.844 127.291 176.431 127.785C176.605 127.46 176.78 127.116 176.954 126.802C177.605 125.639 178.269 124.592 178.868 123.679C179.211 123.167 179.531 122.707 179.839 122.277C180.456 122.219 182.957 121.934 184.009 121.335C185.062 120.736 186.179 119.712 186.336 118.467C186.384 118.176 186.37 117.879 186.295 117.594C186.22 117.309 186.085 117.043 185.9 116.813C185.715 116.584 185.484 116.396 185.221 116.262C184.958 116.128 184.67 116.051 184.376 116.036C182.602 115.989 180.711 118.566 180.188 120.061C180.141 120.195 179.665 122.295 179.694 122.289H179.734C179.432 122.676 179.112 123.119 178.775 123.615C178.152 124.516 177.46 125.54 176.785 126.703C176.043 127.951 175.373 129.241 174.779 130.566C174.109 132.047 173.57 133.585 173.168 135.161C173.171 135.18 173.171 135.199 173.168 135.219C173.168 134.701 172.993 133.253 172.97 133.142C172.644 131.595 171.091 128.791 169.329 128.617C169.035 128.595 168.739 128.635 168.461 128.734C168.184 128.834 167.93 128.991 167.717 129.195C167.504 129.399 167.337 129.646 167.226 129.919C167.114 130.192 167.062 130.486 167.072 130.781C167.072 132.031 168.078 133.206 169.02 133.916C170.085 134.724 172.906 135.358 173.133 135.405C172.768 137.02 172.509 138.658 172.359 140.308C172.272 141.268 172.208 142.233 172.155 143.216C172.115 142.768 172.074 142.367 172.062 142.315C171.731 140.762 170.178 137.964 168.416 137.784C168.121 137.762 167.826 137.801 167.548 137.901C167.271 138.001 167.017 138.158 166.804 138.362C166.591 138.566 166.424 138.813 166.312 139.086C166.201 139.359 166.149 139.653 166.159 139.947C166.159 141.198 167.165 142.373 168.107 143.088C169.05 143.804 171.463 144.397 172.097 144.548C172.097 144.92 172.062 145.293 172.051 145.665C171.981 147.456 171.923 149.248 171.812 150.999C171.772 151.615 171.708 152.226 171.649 152.831C171.615 152.435 171.574 152.098 171.568 152.051C171.236 150.498 169.683 147.701 167.921 147.52C167.627 147.498 167.331 147.538 167.054 147.638C166.776 147.737 166.523 147.894 166.31 148.099C166.097 148.303 165.929 148.549 165.818 148.823C165.707 149.096 165.654 149.389 165.664 149.684C165.664 150.941 166.671 152.11 167.613 152.825C168.555 153.54 170.736 154.081 171.487 154.256C171.411 154.878 171.33 155.501 171.225 156.094C171.143 156.501 171.097 156.902 170.992 157.304L170.713 158.467C170.504 159.217 170.3 159.997 170.079 160.724C169.928 161.23 169.777 161.713 169.625 162.201C169.672 161.585 169.736 160.381 169.73 160.276C169.643 158.7 168.532 155.693 166.822 155.251C166.535 155.185 166.237 155.18 165.948 155.237C165.659 155.294 165.385 155.411 165.145 155.58C164.904 155.75 164.701 155.968 164.55 156.221C164.399 156.474 164.303 156.755 164.268 157.048C164.076 158.287 164.891 159.595 165.717 160.445C166.543 161.294 169.207 162.405 169.532 162.533C169.276 163.335 169.026 164.109 168.776 164.859C167.909 167.389 167.095 169.466 166.508 170.908C166.508 170.961 166.467 171.007 166.444 171.054L167.502 171.635C167.537 171.542 167.578 171.449 167.613 171.35C168.194 169.879 168.956 167.762 169.771 165.185C170.032 164.371 170.294 163.498 170.556 162.597C171.444 162.708 172.337 162.766 173.232 162.771C173.551 164.068 175.035 166.197 175.227 166.47C174.575 167 173.935 167.512 173.325 167.983C171.207 169.617 169.381 170.891 168.09 171.775L167.939 171.88L169.102 172.52C170.358 171.618 172.01 170.367 173.97 168.809C174.633 168.274 175.337 167.686 176.047 167.064C176.308 167.285 178.431 169.088 179.688 169.448C180.822 169.774 182.363 169.879 183.364 169.129C183.605 168.96 183.809 168.743 183.961 168.49C184.113 168.238 184.211 167.956 184.247 167.664C184.283 167.372 184.257 167.075 184.171 166.793C184.085 166.511 183.941 166.251 183.748 166.028C182.549 164.72 179.38 165.156 177.931 165.819C177.85 165.86 176.977 166.401 176.431 166.726C176.721 166.476 177.012 166.238 177.297 165.976C177.879 165.47 178.461 164.941 179.077 164.371L179.95 163.516C180.246 163.231 180.531 162.899 180.822 162.591C181.485 161.858 182.119 161.084 182.741 160.293C183.195 160.805 184.818 162.62 185.894 163.109C186.97 163.597 188.476 163.934 189.582 163.347C189.846 163.216 190.079 163.032 190.267 162.805C190.455 162.579 190.594 162.315 190.674 162.032C190.754 161.749 190.774 161.452 190.732 161.16C190.69 160.869 190.587 160.589 190.431 160.34C189.442 158.868 186.243 158.816 184.719 159.252C184.62 159.281 183.556 159.718 182.974 159.968C183.341 159.491 183.719 159.014 184.073 158.514C185.115 157.077 186.121 155.605 187.133 154.116L188.069 152.767C188.226 152.947 190.111 155.134 191.321 155.675C192.391 156.17 193.897 156.507 195.002 155.914C195.268 155.784 195.503 155.601 195.692 155.374C195.881 155.148 196.02 154.884 196.101 154.6C196.181 154.316 196.2 154.019 196.157 153.727C196.114 153.435 196.01 153.155 195.852 152.906C194.863 151.435 191.664 151.383 190.14 151.825C190.029 151.854 188.506 152.488 188.127 152.668C188.814 151.679 189.512 150.696 190.239 149.76C191.208 148.487 192.261 147.28 193.391 146.148C193.467 146.235 195.421 148.521 196.654 149.091C197.73 149.591 199.237 149.923 200.342 149.335C200.607 149.205 200.841 149.021 201.03 148.795C201.218 148.568 201.357 148.305 201.437 148.021C201.517 147.737 201.537 147.44 201.494 147.148C201.452 146.857 201.349 146.577 201.191 146.328C200.202 144.851 197.003 144.804 195.479 145.24C195.381 145.269 194.223 145.752 193.676 145.991L193.618 145.903C194.785 144.795 196.049 143.793 197.393 142.908C198.132 142.408 198.859 141.972 199.58 141.57C199.9 142.03 201.383 144.129 202.442 144.769C203.5 145.409 204.914 145.88 206.077 145.415C206.355 145.314 206.608 145.155 206.821 144.95C207.033 144.744 207.2 144.496 207.31 144.221C207.419 143.947 207.47 143.652 207.458 143.357C207.446 143.061 207.372 142.771 207.24 142.507C206.42 140.93 203.244 140.535 201.686 140.802C201.598 140.802 200.749 141.058 200.138 141.245L201.116 140.709C202.308 140.093 203.442 139.593 204.437 139.162C205.018 138.924 205.53 138.714 206.019 138.528C206.571 138.819 208.805 139.965 210.015 140.04C211.225 140.116 212.725 139.883 213.54 138.935C213.726 138.722 213.867 138.473 213.954 138.204C214.042 137.935 214.074 137.651 214.049 137.369C214.024 137.087 213.943 136.813 213.809 136.563C213.675 136.314 213.493 136.094 213.272 135.917Z" fill="white"/>
<path opacity="0.5" d="M172.417 125.534C173.26 126.64 176.023 128.076 176.029 128.076C176.035 128.076 176.424 125.971 176.43 125.831C176.523 124.249 175.767 121.143 174.103 120.503C173.826 120.405 173.53 120.366 173.236 120.389C172.942 120.412 172.656 120.497 172.397 120.638C172.138 120.779 171.912 120.973 171.733 121.207C171.554 121.442 171.426 121.711 171.358 121.998C171.032 123.202 171.725 124.598 172.417 125.534Z" fill="white"/>
</g>
<path d="M58.8856 96.1264C58.9205 96.1264 58.4319 93.6893 58.3796 93.5439C57.798 91.799 55.704 88.7686 53.6566 88.7744C53.3166 88.7851 52.9826 88.8671 52.6763 89.0153C52.37 89.1635 52.0984 89.3744 51.879 89.6344C51.6595 89.8945 51.4973 90.1977 51.4027 90.5245C51.3081 90.8514 51.2834 91.1944 51.3301 91.5314C51.4813 92.9681 52.7725 94.1954 53.9416 94.8991C55.3027 95.7309 58.8856 96.1264 58.8856 96.1264Z" fill="#FF7562"/>
<path d="M62.8469 79.718C60.9159 80.4102 59.9387 83.9815 60.0201 85.8078C60.0201 85.9649 60.3866 88.4252 60.4215 88.4078H60.4622C60.3052 88.9894 60.1481 89.5711 59.9853 90.24C59.6944 91.4672 59.4036 92.8574 59.136 94.3929C58.8598 96.0467 58.6773 97.7148 58.5893 99.3893C58.4872 101.262 58.5514 103.141 58.7813 105.002C58.7841 105.025 58.7841 105.049 58.7813 105.072C58.5311 104.525 57.775 103.03 57.6994 102.92C56.699 101.39 53.8605 99.0228 51.8829 99.5696C51.558 99.6702 51.2577 99.8378 51.0016 100.062C50.7455 100.286 50.5392 100.561 50.3962 100.87C50.2531 101.178 50.1764 101.513 50.171 101.854C50.1656 102.194 50.2316 102.531 50.3649 102.844C50.8883 104.188 52.4588 105.031 53.7733 105.403C55.2565 105.828 58.5602 105.328 58.822 105.287C59.1014 107.177 59.5075 109.047 60.0376 110.883C60.3401 111.953 60.6774 113.023 61.0322 114.093C60.7996 113.628 60.5843 113.215 60.5494 113.163C59.5432 111.633 56.7106 109.266 54.733 109.812C54.4077 109.911 54.1069 110.078 53.8504 110.301C53.5938 110.524 53.3871 110.799 53.2439 111.108C53.1006 111.416 53.024 111.751 53.019 112.091C53.014 112.431 53.0808 112.769 53.2149 113.081C53.7384 114.431 55.3088 115.274 56.6233 115.646C57.9379 116.018 60.7763 115.646 61.5266 115.547C61.6662 115.955 61.8 116.367 61.9396 116.775C62.6143 118.729 63.3006 120.683 63.9114 122.591C64.1266 123.272 64.3127 123.952 64.493 124.627C64.2836 124.214 64.1091 123.871 64.0742 123.824C63.0738 122.294 60.2354 119.927 58.2578 120.474C57.9325 120.573 57.6317 120.74 57.3751 120.963C57.1185 121.186 56.9119 121.461 56.7686 121.769C56.6254 122.078 56.5488 122.413 56.5438 122.753C56.5388 123.093 56.6055 123.43 56.7397 123.743C57.2632 125.092 58.8336 125.936 60.1481 126.308C61.4626 126.68 64.0277 126.354 64.9176 126.226C65.0921 126.93 65.2666 127.628 65.4004 128.314C65.4876 128.786 65.5981 129.233 65.6563 129.716C65.7145 130.199 65.7842 130.653 65.854 131.112C65.9471 132.008 66.046 132.933 66.1158 133.811C66.1681 134.393 66.203 134.974 66.2437 135.556C66.0402 134.875 65.6039 133.549 65.5574 133.445C64.8332 132.007 63.7541 130.778 62.4223 129.873C62.3481 129.71 62.2585 129.554 62.1548 129.408C61.9705 129.121 61.7281 128.877 61.4433 128.69C61.1585 128.503 60.8376 128.379 60.5015 128.324C60.1653 128.269 59.8214 128.285 59.492 128.372C59.1626 128.458 58.8551 128.613 58.5893 128.826C57.0421 130.17 57.426 133.84 58.1414 135.527C58.1822 135.626 58.7638 136.649 59.136 137.272C58.8569 136.929 58.5951 136.591 58.3043 136.236C57.7227 135.544 57.141 134.864 56.5128 134.131L55.5531 133.09C55.239 132.735 54.8668 132.403 54.5178 132.054C53.7035 131.263 52.831 130.501 51.9411 129.728C52.5227 129.228 54.6865 127.401 55.303 126.197C55.9196 124.993 56.35 123.248 55.7102 121.951C55.5703 121.641 55.3665 121.364 55.1122 121.138C54.858 120.912 54.5589 120.742 54.2345 120.639C53.9101 120.537 53.5677 120.504 53.2296 120.542C52.8916 120.581 52.5655 120.69 52.2726 120.864C50.5277 121.951 50.3648 125.639 50.8127 127.413C50.8418 127.523 51.3071 128.757 51.5747 129.431C51.0337 128.989 50.4986 128.541 49.9402 128.105C48.3175 126.855 46.6423 125.639 44.973 124.417C44.4612 124.045 43.9551 123.661 43.4491 123.289C43.6701 123.109 46.2584 121.021 46.939 119.648C47.5497 118.426 47.9917 116.699 47.3519 115.402C47.212 115.092 47.0083 114.815 46.754 114.589C46.4997 114.362 46.2006 114.193 45.8762 114.09C45.5518 113.987 45.2094 113.954 44.8714 113.993C44.5333 114.032 44.2073 114.141 43.9144 114.314C42.1695 115.402 42.0008 119.09 42.4545 120.864C42.4545 120.997 43.1583 122.777 43.3502 123.219C42.2334 122.387 41.1341 121.55 40.0756 120.677C38.6393 119.509 37.2794 118.25 36.004 116.908C36.1087 116.827 38.8192 114.657 39.4939 113.25C40.1046 112.028 40.5467 110.301 39.9069 109.004C39.767 108.694 39.5632 108.417 39.3089 108.19C39.0547 107.964 38.7556 107.794 38.4312 107.692C38.1068 107.589 37.7644 107.556 37.4263 107.595C37.0883 107.633 36.7622 107.743 36.4694 107.916C34.7244 109.004 34.5557 112.691 35.0094 114.465C35.0094 114.582 35.5504 115.937 35.8063 116.577L35.7074 116.635C34.4665 115.249 33.353 113.754 32.3804 112.168C31.8336 111.307 31.3625 110.423 30.9205 109.603C31.4614 109.248 33.945 107.614 34.7186 106.416C35.4922 105.217 36.0855 103.6 35.5911 102.245C35.4861 101.921 35.3141 101.623 35.0863 101.37C34.8585 101.117 34.58 100.915 34.269 100.777C33.9579 100.639 33.6212 100.567 33.2808 100.568C32.9404 100.568 32.6039 100.64 32.2931 100.779C30.4493 101.675 29.8735 105.322 30.1236 107.131C30.1236 107.23 30.3853 108.219 30.5773 108.934C30.3853 108.55 30.1818 108.155 29.9956 107.771C29.3209 106.375 28.7916 105.06 28.3263 103.885C28.0704 103.216 27.8552 102.612 27.6574 102.036C28.0122 101.413 29.4024 98.8716 29.542 97.4815C29.6816 96.0913 29.4664 94.3522 28.3787 93.375C28.1361 93.1365 27.8462 92.9516 27.5275 92.8325C27.2089 92.7133 26.8688 92.6625 26.5292 92.6833C26.1897 92.7042 25.8583 92.7962 25.5567 92.9535C25.255 93.1107 24.9898 93.3296 24.7783 93.5961C23.5568 95.2363 24.7259 98.7436 25.7845 100.233C25.8718 100.361 27.5295 102.216 27.5295 102.181V102.14C27.7098 102.722 27.9075 103.304 28.1111 103.932C28.5473 105.095 29.0534 106.45 29.699 107.864C30.3761 109.397 31.1433 110.888 31.9965 112.331C32.9466 113.951 34.0365 115.484 35.2537 116.914L35.3002 116.961C34.7884 116.647 33.3343 115.797 33.2121 115.763C31.5312 115.041 27.861 114.634 26.5116 116.176C26.2956 116.439 26.1374 116.745 26.0471 117.073C25.9568 117.401 25.9365 117.745 25.9875 118.082C26.0385 118.418 26.1597 118.74 26.3431 119.027C26.5266 119.314 26.7683 119.559 27.0525 119.747C28.2158 120.579 30.0073 120.416 31.3043 120.003C32.7759 119.537 35.2537 117.298 35.4515 117.095C36.7188 118.515 38.0789 119.85 39.523 121.09C40.3664 121.817 41.2388 122.527 42.1229 123.219L41.2098 122.707C39.5288 121.986 35.8586 121.579 34.5092 123.126C34.2931 123.389 34.1346 123.694 34.0439 124.021C33.9532 124.349 33.9324 124.692 33.9829 125.028C34.0333 125.364 34.1539 125.686 34.3368 125.973C34.5196 126.259 34.7607 126.504 35.0443 126.692C36.2076 127.529 37.9991 127.361 39.302 126.948C40.6048 126.535 42.7918 124.668 43.3386 124.162L44.3623 124.958C46.0083 126.215 47.6544 127.465 49.2306 128.739C49.7832 129.187 50.3125 129.652 50.8476 130.112C50.4463 129.885 50.1089 129.693 50.0508 129.67C48.3756 128.948 44.6996 128.541 43.356 130.083C43.1398 130.346 42.9812 130.651 42.8905 130.979C42.7997 131.307 42.7789 131.651 42.8294 131.987C42.8798 132.324 43.0004 132.646 43.1833 132.933C43.3662 133.22 43.6073 133.466 43.8911 133.654C45.0544 134.486 46.8459 134.323 48.1488 133.91C49.4517 133.497 51.4118 131.804 52.0807 131.211C52.6158 131.7 53.1451 132.188 53.6395 132.688C53.971 133.032 54.3084 133.346 54.6225 133.712L55.5589 134.771C56.1406 135.469 56.7222 136.184 57.2632 136.876C57.6412 137.353 57.996 137.819 58.3508 138.284C57.8041 137.83 56.7106 136.964 56.6059 136.905C55.0529 135.934 51.4874 134.974 49.9228 136.324C49.6692 136.551 49.4663 136.829 49.3274 137.139C49.1885 137.45 49.1167 137.786 49.1167 138.127C49.1167 138.467 49.1885 138.804 49.3274 139.114C49.4663 139.425 49.6692 139.703 49.9228 139.93C50.9639 140.936 52.7438 141.041 54.0932 140.831C55.5764 140.599 58.2694 138.842 58.6009 138.621C59.1826 139.395 59.7642 140.151 60.2703 140.878C62.085 143.379 63.4984 145.531 64.4639 147.049L64.5628 147.206L65.8133 146.596L65.6156 146.299C64.6035 144.787 63.132 142.64 61.2474 140.157C60.6658 139.366 60.0085 138.54 59.3338 137.696C60.0263 136.931 60.6749 136.127 61.2765 135.288C62.7132 135.87 65.7144 135.87 66.0983 135.87C66.1623 136.841 66.2147 137.784 66.2496 138.674C66.3775 141.756 66.3717 144.333 66.3368 146.136V146.345L67.7095 145.677C67.7095 143.885 67.6455 141.471 67.4594 138.61C67.4012 137.627 67.3198 136.574 67.2209 135.498C67.6048 135.405 70.7108 134.602 71.8741 133.666C72.9385 132.811 74.0611 131.426 74.0262 129.984C74.0287 129.643 73.9595 129.306 73.823 128.994C73.6864 128.682 73.4857 128.402 73.2339 128.172C72.982 127.943 72.6846 127.769 72.3612 127.662C72.0377 127.556 71.6953 127.518 71.3564 127.552C69.3265 127.814 67.6222 131.089 67.2849 132.892C67.2849 132.997 67.1802 134.172 67.1337 134.91C67.0929 134.474 67.0581 134.044 67.0115 133.59C66.9185 132.7 66.8021 131.804 66.68 130.85L66.4531 129.449C66.3892 128.983 66.2612 128.501 66.1623 128.018C65.918 126.901 65.6156 125.79 65.284 124.668C66.0634 124.592 68.8437 124.26 70.0361 123.58C71.2284 122.899 72.5371 121.701 72.7175 120.264C72.7719 119.929 72.7548 119.585 72.6674 119.256C72.5799 118.927 72.424 118.62 72.21 118.356C71.9959 118.091 71.7284 117.875 71.4249 117.72C71.1215 117.566 70.789 117.478 70.449 117.461C68.4017 117.409 66.2205 120.369 65.6214 122.114C65.5807 122.219 65.2899 123.51 65.1386 124.22C64.935 123.551 64.7373 122.882 64.5104 122.207C63.8474 120.27 63.1203 118.333 62.3991 116.391L61.7534 114.611C62.0326 114.582 65.348 114.268 66.68 113.5C67.8433 112.819 69.1811 111.621 69.3614 110.19C69.4157 109.854 69.3987 109.51 69.3113 109.181C69.2239 108.852 69.0681 108.545 68.8541 108.28C68.6401 108.014 68.3727 107.797 68.0692 107.643C67.7658 107.488 67.4331 107.399 67.0929 107.381C65.0456 107.335 62.8644 110.289 62.2653 112.034C62.2188 112.168 61.8 114.018 61.7127 114.495C61.2416 113.186 60.7821 111.877 60.3866 110.568C59.8345 108.806 59.3993 107.008 59.0837 105.188C59.2117 105.188 62.6725 104.863 64.0393 104.077C65.2026 103.397 66.5404 102.199 66.7207 100.762C66.7742 100.426 66.7564 100.083 66.6686 99.7542C66.5808 99.4257 66.4249 99.1193 66.211 98.8549C65.997 98.5905 65.7299 98.3741 65.4269 98.2196C65.124 98.0652 64.7919 97.9762 64.4523 97.9584C62.4049 97.9061 60.2237 100.867 59.6246 102.612C59.5839 102.728 59.264 104.135 59.1244 104.81H59.0081C58.7412 102.969 58.638 101.109 58.6998 99.2497C58.6998 98.226 58.7987 97.2488 58.8918 96.3007C59.5432 96.3007 62.5154 96.3007 63.8183 95.7191C65.1212 95.1374 66.5171 94.1312 66.8545 92.7236C66.9455 92.3955 66.9663 92.0518 66.9155 91.7151C66.8646 91.3784 66.7432 91.0563 66.5593 90.7697C66.3754 90.4831 66.1331 90.2386 65.8482 90.0521C65.5633 89.8656 65.2422 89.7413 64.906 89.6874C62.876 89.4082 60.3808 92.1361 59.5956 93.7589C59.549 93.852 59.2175 94.8117 58.979 95.5039C59.0314 95.0734 59.0779 94.6314 59.1302 94.2242C59.3396 92.6887 59.6246 91.316 59.8864 90.0655C60.0434 89.3675 60.1946 88.7393 60.3459 88.1519C60.9857 87.8262 63.5565 86.4826 64.4174 85.3891C65.2782 84.2956 66.0751 82.7368 65.7261 81.3175C65.5356 80.7375 65.1333 80.2507 64.5996 79.9542C64.066 79.6577 63.4401 79.5733 62.8469 79.718Z" fill="#FF7562"/>
<path d="M25.8194 111.29C27.4189 111.226 30.618 109.586 30.6238 109.586C30.6296 109.586 28.8788 107.806 28.7742 107.707C27.3433 106.544 23.9116 105.206 22.2074 106.334C21.9285 106.53 21.6941 106.782 21.5194 107.074C21.3447 107.366 21.2337 107.692 21.1936 108.031C21.1535 108.369 21.1853 108.712 21.2868 109.037C21.3883 109.362 21.5573 109.662 21.7828 109.917C22.7018 111.04 24.4525 111.365 25.8194 111.29Z" fill="#FF7562"/>
<g opacity="0.5">
<path opacity="0.5" d="M58.8856 96.1264C58.9205 96.1264 58.4319 93.6893 58.3796 93.5439C57.798 91.799 55.704 88.7686 53.6566 88.7744C53.3166 88.7851 52.9826 88.8671 52.6763 89.0153C52.37 89.1635 52.0984 89.3744 51.879 89.6344C51.6595 89.8945 51.4973 90.1977 51.4027 90.5245C51.3081 90.8514 51.2834 91.1944 51.3301 91.5314C51.4813 92.9681 52.7725 94.1954 53.9416 94.8991C55.3027 95.7309 58.8856 96.1264 58.8856 96.1264Z" fill="white"/>
<path opacity="0.5" d="M62.8469 79.718C60.9159 80.4102 59.9387 83.9815 60.0201 85.8078C60.0201 85.9649 60.3866 88.4252 60.4215 88.4078H60.4622C60.3052 88.9894 60.1481 89.5711 59.9853 90.24C59.6944 91.4672 59.4036 92.8574 59.136 94.3929C58.8598 96.0467 58.6773 97.7148 58.5893 99.3893C58.4872 101.262 58.5514 103.141 58.7813 105.002C58.7841 105.025 58.7841 105.049 58.7813 105.072C58.5311 104.525 57.775 103.03 57.6994 102.92C56.699 101.39 53.8605 99.0228 51.8829 99.5696C51.558 99.6702 51.2577 99.8378 51.0016 100.062C50.7455 100.286 50.5392 100.561 50.3962 100.87C50.2531 101.178 50.1764 101.513 50.171 101.854C50.1656 102.194 50.2316 102.531 50.3649 102.844C50.8883 104.188 52.4588 105.031 53.7733 105.403C55.2565 105.828 58.5602 105.328 58.822 105.287C59.1014 107.177 59.5075 109.047 60.0376 110.883C60.3401 111.953 60.6774 113.023 61.0322 114.093C60.7996 113.628 60.5843 113.215 60.5494 113.163C59.5432 111.633 56.7106 109.266 54.733 109.812C54.4077 109.911 54.1069 110.078 53.8504 110.301C53.5938 110.524 53.3871 110.799 53.2439 111.108C53.1006 111.416 53.024 111.751 53.019 112.091C53.014 112.431 53.0808 112.769 53.2149 113.081C53.7384 114.431 55.3088 115.274 56.6233 115.646C57.9379 116.018 60.7763 115.646 61.5266 115.547C61.6662 115.955 61.8 116.367 61.9396 116.775C62.6143 118.729 63.3006 120.683 63.9114 122.591C64.1266 123.272 64.3127 123.952 64.493 124.627C64.2836 124.214 64.1091 123.871 64.0742 123.824C63.0738 122.294 60.2354 119.927 58.2578 120.474C57.9325 120.573 57.6317 120.74 57.3751 120.963C57.1185 121.186 56.9119 121.461 56.7686 121.769C56.6254 122.078 56.5488 122.413 56.5438 122.753C56.5388 123.093 56.6055 123.43 56.7397 123.743C57.2632 125.092 58.8336 125.936 60.1481 126.308C61.4626 126.68 64.0277 126.354 64.9176 126.226C65.0921 126.93 65.2666 127.628 65.4004 128.314C65.4876 128.786 65.5981 129.233 65.6563 129.716C65.7145 130.199 65.7842 130.653 65.854 131.112C65.9471 132.008 66.046 132.933 66.1158 133.811C66.1681 134.393 66.203 134.974 66.2437 135.556C66.0402 134.875 65.6039 133.549 65.5574 133.445C64.8332 132.007 63.7541 130.778 62.4223 129.873C62.3481 129.71 62.2585 129.554 62.1548 129.408C61.9705 129.121 61.7281 128.877 61.4433 128.69C61.1585 128.503 60.8376 128.379 60.5015 128.324C60.1653 128.269 59.8214 128.285 59.492 128.372C59.1626 128.458 58.8551 128.613 58.5893 128.826C57.0421 130.17 57.426 133.84 58.1414 135.527C58.1822 135.626 58.7638 136.649 59.136 137.272C58.8569 136.929 58.5951 136.591 58.3043 136.236C57.7227 135.544 57.141 134.864 56.5128 134.131L55.5531 133.09C55.239 132.735 54.8668 132.403 54.5178 132.054C53.7035 131.263 52.831 130.501 51.9411 129.728C52.5227 129.228 54.6865 127.401 55.303 126.197C55.9196 124.993 56.35 123.248 55.7102 121.951C55.5703 121.641 55.3665 121.364 55.1122 121.138C54.858 120.912 54.5589 120.742 54.2345 120.639C53.9101 120.537 53.5677 120.504 53.2296 120.542C52.8916 120.581 52.5655 120.69 52.2726 120.864C50.5277 121.951 50.3648 125.639 50.8127 127.413C50.8418 127.523 51.3071 128.757 51.5747 129.431C51.0337 128.989 50.4986 128.541 49.9402 128.105C48.3175 126.855 46.6423 125.639 44.973 124.417C44.4612 124.045 43.9551 123.661 43.4491 123.289C43.6701 123.109 46.2584 121.021 46.939 119.648C47.5497 118.426 47.9917 116.699 47.3519 115.402C47.212 115.092 47.0083 114.815 46.754 114.589C46.4997 114.362 46.2006 114.193 45.8762 114.09C45.5518 113.987 45.2094 113.954 44.8714 113.993C44.5333 114.032 44.2073 114.141 43.9144 114.314C42.1695 115.402 42.0008 119.09 42.4545 120.864C42.4545 120.997 43.1583 122.777 43.3502 123.219C42.2334 122.387 41.1341 121.55 40.0756 120.677C38.6393 119.509 37.2794 118.25 36.004 116.908C36.1087 116.827 38.8192 114.657 39.4939 113.25C40.1046 112.028 40.5467 110.301 39.9069 109.004C39.767 108.694 39.5632 108.417 39.3089 108.19C39.0547 107.964 38.7556 107.794 38.4312 107.692C38.1068 107.589 37.7644 107.556 37.4263 107.595C37.0883 107.633 36.7622 107.743 36.4694 107.916C34.7244 109.004 34.5557 112.691 35.0094 114.465C35.0094 114.582 35.5504 115.937 35.8063 116.577L35.7074 116.635C34.4665 115.249 33.353 113.754 32.3804 112.168C31.8336 111.307 31.3625 110.423 30.9205 109.603C31.4614 109.248 33.945 107.614 34.7186 106.416C35.4922 105.217 36.0855 103.6 35.5911 102.245C35.4861 101.921 35.3141 101.623 35.0863 101.37C34.8585 101.117 34.58 100.915 34.269 100.777C33.9579 100.639 33.6212 100.567 33.2808 100.568C32.9404 100.568 32.6039 100.64 32.2931 100.779C30.4493 101.675 29.8735 105.322 30.1236 107.131C30.1236 107.23 30.3853 108.219 30.5773 108.934C30.3853 108.55 30.1818 108.155 29.9956 107.771C29.3209 106.375 28.7916 105.06 28.3263 103.885C28.0704 103.216 27.8552 102.612 27.6574 102.036C28.0122 101.413 29.4024 98.8716 29.542 97.4815C29.6816 96.0913 29.4664 94.3522 28.3787 93.375C28.1361 93.1365 27.8462 92.9516 27.5275 92.8325C27.2089 92.7133 26.8688 92.6625 26.5292 92.6833C26.1897 92.7042 25.8583 92.7962 25.5567 92.9535C25.255 93.1107 24.9898 93.3296 24.7783 93.5961C23.5568 95.2363 24.7259 98.7436 25.7845 100.233C25.8718 100.361 27.5295 102.216 27.5295 102.181V102.14C27.7098 102.722 27.9075 103.304 28.1111 103.932C28.5473 105.095 29.0534 106.45 29.699 107.864C30.3761 109.397 31.1433 110.888 31.9965 112.331C32.9466 113.951 34.0365 115.484 35.2537 116.914L35.3002 116.961C34.7884 116.647 33.3343 115.797 33.2121 115.763C31.5312 115.041 27.861 114.634 26.5116 116.176C26.2956 116.439 26.1374 116.745 26.0471 117.073C25.9568 117.401 25.9365 117.745 25.9875 118.082C26.0385 118.418 26.1597 118.74 26.3431 119.027C26.5266 119.314 26.7683 119.559 27.0525 119.747C28.2158 120.579 30.0073 120.416 31.3043 120.003C32.7759 119.537 35.2537 117.298 35.4515 117.095C36.7188 118.515 38.0789 119.85 39.523 121.09C40.3664 121.817 41.2388 122.527 42.1229 123.219L41.2098 122.707C39.5288 121.986 35.8586 121.579 34.5092 123.126C34.2931 123.389 34.1346 123.694 34.0439 124.021C33.9532 124.349 33.9324 124.692 33.9829 125.028C34.0333 125.364 34.1539 125.686 34.3368 125.973C34.5196 126.259 34.7607 126.504 35.0443 126.692C36.2076 127.529 37.9991 127.361 39.302 126.948C40.6048 126.535 42.7918 124.668 43.3386 124.162L44.3623 124.958C46.0083 126.215 47.6544 127.465 49.2306 128.739C49.7832 129.187 50.3125 129.652 50.8476 130.112C50.4463 129.885 50.1089 129.693 50.0508 129.67C48.3756 128.948 44.6996 128.541 43.356 130.083C43.1398 130.346 42.9812 130.651 42.8905 130.979C42.7997 131.307 42.7789 131.651 42.8294 131.987C42.8798 132.324 43.0004 132.646 43.1833 132.933C43.3662 133.22 43.6073 133.466 43.8911 133.654C45.0544 134.486 46.8459 134.323 48.1488 133.91C49.4517 133.497 51.4118 131.804 52.0807 131.211C52.6158 131.7 53.1451 132.188 53.6395 132.688C53.971 133.032 54.3084 133.346 54.6225 133.712L55.5589 134.771C56.1406 135.469 56.7222 136.184 57.2632 136.876C57.6412 137.353 57.996 137.819 58.3508 138.284C57.8041 137.83 56.7106 136.964 56.6059 136.905C55.0529 135.934 51.4874 134.974 49.9228 136.324C49.6692 136.551 49.4663 136.829 49.3274 137.139C49.1885 137.45 49.1167 137.786 49.1167 138.127C49.1167 138.467 49.1885 138.804 49.3274 139.114C49.4663 139.425 49.6692 139.703 49.9228 139.93C50.9639 140.936 52.7438 141.041 54.0932 140.831C55.5764 140.599 58.2694 138.842 58.6009 138.621C59.1826 139.395 59.7642 140.151 60.2703 140.878C62.085 143.379 63.4984 145.531 64.4639 147.049L64.5628 147.206L65.8133 146.596L65.6156 146.299C64.6035 144.787 63.132 142.64 61.2474 140.157C60.6658 139.366 60.0085 138.54 59.3338 137.696C60.0263 136.931 60.6749 136.127 61.2765 135.288C62.7132 135.87 65.7144 135.87 66.0983 135.87C66.1623 136.841 66.2147 137.784 66.2496 138.674C66.3775 141.756 66.3717 144.333 66.3368 146.136V146.345L67.7095 145.677C67.7095 143.885 67.6455 141.471 67.4594 138.61C67.4012 137.627 67.3198 136.574 67.2209 135.498C67.6048 135.405 70.7108 134.602 71.8741 133.666C72.9385 132.811 74.0611 131.426 74.0262 129.984C74.0287 129.643 73.9595 129.306 73.823 128.994C73.6864 128.682 73.4857 128.402 73.2339 128.172C72.982 127.943 72.6846 127.769 72.3612 127.662C72.0377 127.556 71.6953 127.518 71.3564 127.552C69.3265 127.814 67.6222 131.089 67.2849 132.892C67.2849 132.997 67.1802 134.172 67.1337 134.91C67.0929 134.474 67.0581 134.044 67.0115 133.59C66.9185 132.7 66.8021 131.804 66.68 130.85L66.4531 129.449C66.3892 128.983 66.2612 128.501 66.1623 128.018C65.918 126.901 65.6156 125.79 65.284 124.668C66.0634 124.592 68.8437 124.26 70.0361 123.58C71.2284 122.899 72.5371 121.701 72.7175 120.264C72.7719 119.929 72.7548 119.585 72.6674 119.256C72.5799 118.927 72.424 118.62 72.21 118.356C71.9959 118.091 71.7284 117.875 71.4249 117.72C71.1215 117.566 70.789 117.478 70.449 117.461C68.4017 117.409 66.2205 120.369 65.6214 122.114C65.5807 122.219 65.2899 123.51 65.1386 124.22C64.935 123.551 64.7373 122.882 64.5104 122.207C63.8474 120.27 63.1203 118.333 62.3991 116.391L61.7534 114.611C62.0326 114.582 65.348 114.268 66.68 113.5C67.8433 112.819 69.1811 111.621 69.3614 110.19C69.4157 109.854 69.3987 109.51 69.3113 109.181C69.2239 108.852 69.0681 108.545 68.8541 108.28C68.6401 108.014 68.3727 107.797 68.0692 107.643C67.7658 107.488 67.4331 107.399 67.0929 107.381C65.0456 107.335 62.8644 110.289 62.2653 112.034C62.2188 112.168 61.8 114.018 61.7127 114.495C61.2416 113.186 60.7821 111.877 60.3866 110.568C59.8345 108.806 59.3993 107.008 59.0837 105.188C59.2117 105.188 62.6725 104.863 64.0393 104.077C65.2026 103.397 66.5404 102.199 66.7207 100.762C66.7742 100.426 66.7564 100.083 66.6686 99.7542C66.5808 99.4257 66.4249 99.1193 66.211 98.8549C65.997 98.5905 65.7299 98.3741 65.4269 98.2196C65.124 98.0652 64.7919 97.9762 64.4523 97.9584C62.4049 97.9061 60.2237 100.867 59.6246 102.612C59.5839 102.728 59.264 104.135 59.1244 104.81H59.0081C58.7412 102.969 58.638 101.109 58.6998 99.2497C58.6998 98.226 58.7987 97.2488 58.8918 96.3007C59.5432 96.3007 62.5154 96.3007 63.8183 95.7191C65.1212 95.1374 66.5171 94.1312 66.8545 92.7236C66.9455 92.3955 66.9663 92.0518 66.9155 91.7151C66.8646 91.3784 66.7432 91.0563 66.5593 90.7697C66.3754 90.4831 66.1331 90.2386 65.8482 90.0521C65.5633 89.8656 65.2422 89.7413 64.906 89.6874C62.876 89.4082 60.3808 92.1361 59.5956 93.7589C59.549 93.852 59.2175 94.8117 58.979 95.5039C59.0314 95.0734 59.0779 94.6314 59.1302 94.2242C59.3396 92.6887 59.6246 91.316 59.8864 90.0655C60.0434 89.3675 60.1946 88.7393 60.3459 88.1519C60.9857 87.8262 63.5565 86.4826 64.4174 85.3891C65.2782 84.2956 66.0751 82.7368 65.7261 81.3175C65.5356 80.7375 65.1333 80.2507 64.5996 79.9542C64.066 79.6577 63.4401 79.5733 62.8469 79.718Z" fill="white"/>
<path opacity="0.5" d="M25.8194 111.29C27.4189 111.226 30.618 109.586 30.6238 109.586C30.6296 109.586 28.8788 107.806 28.7742 107.707C27.3433 106.544 23.9116 105.206 22.2074 106.334C21.9285 106.53 21.6941 106.782 21.5194 107.074C21.3447 107.366 21.2337 107.692 21.1936 108.031C21.1535 108.369 21.1853 108.712 21.2868 109.037C21.3883 109.362 21.5573 109.662 21.7828 109.917C22.7018 111.04 24.4525 111.365 25.8194 111.29Z" fill="white"/>
</g>
<path d="M45.3682 155.216C45.3682 155.216 55.0817 131.805 60.5201 132.823C65.9585 133.84 51.2138 170.147 51.2138 170.147C51.2138 170.147 68.3025 137.912 79.9587 137.912C91.6148 137.912 75.6836 173.538 60.9272 185.415C60.9272 185.415 84.2279 160.305 97.821 165.738C111.414 171.17 70.6349 196.612 70.6349 196.612C70.6349 196.612 94.3253 189.149 91.609 194.919C88.8927 200.689 81.5117 201.701 81.5117 201.701L108.308 203.062H15.0762L36.0503 201.026C36.0503 201.026 14.2968 190.167 20.1248 185.758C25.9529 181.349 38.7666 190.847 38.7666 190.847C38.7666 190.847 16.6292 166.418 20.8984 157.252C25.1677 148.085 44.2049 173.881 44.2049 173.881C44.2049 173.881 28.6692 140.966 31.7752 135.213C34.8812 129.461 45.3682 155.216 45.3682 155.216Z" fill="#FF7562"/>
<path opacity="0.5" d="M45.3682 155.216C45.3682 155.216 55.0817 131.805 60.5201 132.823C65.9585 133.84 51.2138 170.147 51.2138 170.147C51.2138 170.147 68.3025 137.912 79.9587 137.912C91.6148 137.912 75.6836 173.538 60.9272 185.415C60.9272 185.415 84.2279 160.305 97.821 165.738C111.414 171.17 70.6349 196.612 70.6349 196.612C70.6349 196.612 94.3253 189.149 91.609 194.919C88.8927 200.689 81.5117 201.701 81.5117 201.701L108.308 203.062H15.0762L36.0503 201.026C36.0503 201.026 14.2968 190.167 20.1248 185.758C25.9529 181.349 38.7666 190.847 38.7666 190.847C38.7666 190.847 16.6292 166.418 20.8984 157.252C25.1677 148.085 44.2049 173.881 44.2049 173.881C44.2049 173.881 28.6692 140.966 31.7752 135.213C34.8812 129.461 45.3682 155.216 45.3682 155.216Z" fill="white"/>
<path d="M42.2627 156.449C50.8071 181.698 50.8071 199.566 50.8071 199.566C50.8071 199.566 40.7097 199.95 30.2227 192.185" stroke="#263238" stroke-linecap="round" stroke-linejoin="round"/>
<path d="M46.5381 170.048C48.2946 162.499 50.628 155.096 53.5178 147.905" stroke="#263238" stroke-linecap="round" stroke-linejoin="round"/>
<path d="M71.7812 155.285L50.0335 187.526C50.0335 187.526 35.2713 175.096 30.2227 168.105" stroke="#263238" stroke-linecap="round" stroke-linejoin="round"/>
<path d="M50.4229 195.291C50.4229 195.291 73.3338 184.415 82.6576 178.203" stroke="#263238" stroke-linecap="round" stroke-linejoin="round"/>
<path d="M170.672 155.216C170.672 155.216 160.965 131.805 155.55 132.823C150.134 133.84 164.856 170.147 164.856 170.147C164.856 170.147 147.767 137.912 136.117 137.912C124.466 137.912 140.386 173.538 155.148 185.415C155.148 185.415 131.842 160.305 118.249 165.738C104.656 171.17 145.441 196.612 145.441 196.612C145.441 196.612 121.744 189.149 124.466 194.919C127.189 200.689 134.564 201.701 134.564 201.701L107.744 203.062H200.97L179.996 201.026C179.996 201.026 201.744 190.167 195.922 185.758C190.099 181.349 177.274 190.847 177.274 190.847C177.274 190.847 199.417 166.418 195.142 157.252C190.867 148.085 171.836 173.881 171.836 173.881C171.836 173.881 187.377 140.966 184.265 135.196C181.154 129.426 170.672 155.216 170.672 155.216Z" fill="#FF7562"/>
<path opacity="0.5" d="M170.672 155.216C170.672 155.216 160.965 131.805 155.55 132.823C150.134 133.84 164.856 170.147 164.856 170.147C164.856 170.147 147.767 137.912 136.117 137.912C124.466 137.912 140.386 173.538 155.148 185.415C155.148 185.415 131.842 160.305 118.249 165.738C104.656 171.17 145.441 196.612 145.441 196.612C145.441 196.612 121.744 189.149 124.466 194.919C127.189 200.689 134.564 201.701 134.564 201.701L107.744 203.062H200.97L179.996 201.026C179.996 201.026 201.744 190.167 195.922 185.758C190.099 181.349 177.274 190.847 177.274 190.847C177.274 190.847 199.417 166.418 195.142 157.252C190.867 148.085 171.836 173.881 171.836 173.881C171.836 173.881 187.377 140.966 184.265 135.196C181.154 129.426 170.672 155.216 170.672 155.216Z" fill="white"/>
<path d="M173.778 156.449C165.233 181.698 165.233 199.566 165.233 199.566C165.233 199.566 175.331 199.95 185.818 192.185" stroke="#263238" stroke-linecap="round" stroke-linejoin="round"/>
<path d="M169.509 170.048C167.753 162.499 165.419 155.096 162.529 147.905" stroke="#263238" stroke-linecap="round" stroke-linejoin="round"/>
<path d="M144.26 155.285L166.013 187.526C166.013 187.526 180.769 175.096 185.818 168.105" stroke="#263238" stroke-linecap="round" stroke-linejoin="round"/>
<path d="M165.623 195.291C165.623 195.291 142.707 184.415 133.383 178.203" stroke="#263238" stroke-linecap="round" stroke-linejoin="round"/>
<path d="M154.991 29.0627H65.1849C63.0166 29.0627 61.2588 30.8205 61.2588 32.9888V201.137C61.2588 203.305 63.0166 205.063 65.1849 205.063H154.991C157.159 205.063 158.917 203.305 158.917 201.137V32.9888C158.917 30.8205 157.159 29.0627 154.991 29.0627Z" fill="#263238" stroke="#263238" stroke-miterlimit="10"/>
<path d="M116.841 39.5788H104.685C104.52 39.5788 104.358 39.5464 104.206 39.4836C104.054 39.4207 103.916 39.3286 103.8 39.2125C103.684 39.0964 103.592 38.9585 103.529 38.8068C103.466 38.6551 103.434 38.4925 103.434 38.3282C103.434 38.1643 103.466 38.0019 103.529 37.8505C103.592 37.6992 103.685 37.5617 103.801 37.446C103.917 37.3304 104.055 37.2388 104.206 37.1766C104.358 37.1144 104.521 37.0827 104.685 37.0835H116.841C117.171 37.0835 117.488 37.2147 117.721 37.4481C117.955 37.6815 118.086 37.9981 118.086 38.3282C118.086 38.4922 118.055 38.6547 117.993 38.8064C117.93 38.958 117.839 39.0959 117.723 39.2121C117.608 39.3283 117.47 39.4206 117.319 39.4835C117.167 39.5464 117.005 39.5788 116.841 39.5788Z" fill="#FF7562"/>
<path d="M152.746 189.335H67.4302V39.7241H87.654L89.9282 41.6087C90.7209 42.2714 91.7217 42.6338 92.755 42.6323H128.433C129.504 42.6264 130.537 42.234 131.341 41.5272L133.395 39.7241H152.728L152.746 189.335Z" fill="white" stroke="#263238" stroke-width="0.938618" stroke-linecap="round" stroke-linejoin="round"/>
<path d="M101.503 50.7524L100.339 46.8438H71.3037V50.7524V181.39V185.304H149.134V50.7524H101.503Z" fill="#FF7562"/>
<path d="M146.394 57.7959H74.0376V181H146.394V57.7959Z" fill="white"/>
<path d="M112.816 193.959C112.817 193.575 112.704 193.198 112.491 192.878C112.279 192.558 111.976 192.308 111.621 192.16C111.266 192.012 110.875 191.973 110.498 192.047C110.121 192.121 109.774 192.306 109.502 192.577C109.229 192.849 109.044 193.195 108.968 193.572C108.893 193.949 108.931 194.34 109.078 194.695C109.225 195.051 109.474 195.354 109.793 195.568C110.113 195.782 110.489 195.896 110.873 195.896C111.387 195.894 111.879 195.69 112.243 195.327C112.607 194.965 112.813 194.473 112.816 193.959Z" fill="#FF7562"/>
<path d="M104.783 175.62C117.941 175.62 128.607 160.443 128.607 141.722C128.607 123 117.941 107.823 104.783 107.823C91.6254 107.823 80.959 123 80.959 141.722C80.959 160.443 91.6254 175.62 104.783 175.62Z" fill="#FF7562"/>
<path opacity="0.5" d="M104.783 175.62C117.941 175.62 128.607 160.443 128.607 141.722C128.607 123 117.941 107.823 104.783 107.823C91.6254 107.823 80.959 123 80.959 141.722C80.959 160.443 91.6254 175.62 104.783 175.62Z" fill="white"/>
<path d="M108.162 103.885C108.162 103.885 106.673 101.396 105.307 101.274C103.94 101.152 87.6652 111.365 85.1758 116.682C82.6864 121.998 80.3307 132.665 86.9207 142.931C93.3479 152.918 103.422 152.587 108.645 152.086C113.868 151.586 117.37 149.888 122.663 145.642C127.956 141.396 132.812 135.143 133.516 130.897C134.22 126.651 131.632 124.289 129.98 123.702C128.328 123.115 118.772 123.231 111.809 116.141C104.847 109.05 108.162 103.885 108.162 103.885Z" fill="#263238" stroke="#263238" stroke-linecap="round" stroke-linejoin="round"/>
<path d="M110.274 100.652C110.274 100.652 106.051 102.269 103.44 105.124C100.828 107.98 99.2169 112.459 99.0948 119.043C98.9726 125.627 101.084 133.078 109.279 136.312C117.475 139.546 124.809 137.057 127.171 134.817C129.532 132.578 132.406 126.25 132.406 126.25C132.406 126.25 119.365 129.74 113.153 122.393C106.941 115.047 110.274 100.652 110.274 100.652Z" fill="white" stroke="#263238" stroke-linecap="round" stroke-linejoin="round"/>
<path d="M183.258 105.241C180.071 100.46 172.463 99.0462 166.449 97.0977C160.435 95.1492 156.893 91.2812 158.486 81.7074C160.08 72.1335 168.374 56.5803 168.217 53.7477C168.06 50.9151 139.554 51.0954 136.896 52.0028C134.237 52.9101 133.714 52.7066 131.236 55.894C129.863 57.6153 128.621 59.4371 127.519 61.344L130.591 54.8877H130.817C131.151 54.0392 131.625 53.2527 132.219 52.5611C134.922 49.4259 136.453 45.4503 136.552 41.3121C136.669 35.2223 132.335 35.8098 131.515 37.6827C130.695 39.5556 125.897 46.0002 124.489 47.7568C123.081 49.5133 120.156 54.3177 120.156 54.3177L116.904 65.59C116.904 65.59 116.195 68.9519 112.123 81.6957C108.052 94.4396 109.826 100.314 109.826 100.314C109.826 100.314 108.761 99.7849 106.284 107.393C103.806 115.001 104.87 124.732 109.291 129.332C113.711 133.933 119.557 133.759 126.106 131.106C130.135 129.38 133.49 126.386 135.662 122.58C135.662 122.58 142.567 120.835 147.697 116.92C152.827 113.006 156.718 108.957 164.163 109.312C171.608 109.667 180.089 113.913 182.921 113.733C185.754 113.552 186.446 110.016 183.258 105.241Z" fill="white"/>
<path d="M137.617 88.6811C117.928 91.6184 111.739 96.3181 113.705 102.786C114.113 104.069 114.776 105.256 115.654 106.276C115.654 106.398 115.654 106.532 115.689 106.671C115.689 106.671 116.038 106.881 116.561 107.253C117.25 107.919 117.996 108.524 118.789 109.062C120.08 110.289 121.238 111.825 120.999 113.25C120.493 116.286 113.438 121.591 109.872 121.846C106.307 122.102 105.068 118.56 104.562 122.353C104.056 126.145 111.896 135.498 119.481 134.486C127.066 133.474 133.388 122.853 133.388 122.853C133.388 122.853 132.376 121.108 137.46 115.774C140.798 112.284 145.574 110.743 149.232 109.312C152.686 108.296 156.053 107.005 159.3 105.45C168.298 101.041 178.989 103.984 178.989 103.984C178.989 103.984 157.305 85.7089 137.617 88.6811Z" fill="#FF7562"/>
<path opacity="0.5" d="M137.617 88.6811C117.928 91.6184 111.739 96.3181 113.705 102.786C114.113 104.069 114.776 105.256 115.654 106.276C115.654 106.398 115.654 106.532 115.689 106.671C115.689 106.671 116.038 106.881 116.561 107.253C117.25 107.919 117.996 108.524 118.789 109.062C120.08 110.289 121.238 111.825 120.999 113.25C120.493 116.286 113.438 121.591 109.872 121.846C106.307 122.102 105.068 118.56 104.562 122.353C104.056 126.145 111.896 135.498 119.481 134.486C127.066 133.474 133.388 122.853 133.388 122.853C133.388 122.853 132.376 121.108 137.46 115.774C140.798 112.284 145.574 110.743 149.232 109.312C152.686 108.296 156.053 107.005 159.3 105.45C168.298 101.041 178.989 103.984 178.989 103.984C178.989 103.984 157.305 85.7089 137.617 88.6811Z" fill="white"/>
<path d="M183.258 105.241C180.071 100.46 172.463 99.0462 166.449 97.0977C160.435 95.1492 156.893 91.2812 158.486 81.7074C160.08 72.1335 168.374 56.5803 168.217 53.7477C168.06 50.9151 139.554 51.0954 136.896 52.0028C134.237 52.9101 133.714 52.7066 131.236 55.894C129.863 57.6153 128.621 59.4371 127.519 61.344L130.591 54.8877H130.817C131.151 54.0392 131.625 53.2527 132.219 52.5611C134.922 49.4259 136.453 45.4503 136.552 41.3121C136.669 35.2223 132.335 35.8098 131.515 37.6827C130.695 39.5556 125.897 46.0002 124.489 47.7568C123.081 49.5133 120.156 54.3177 120.156 54.3177L116.904 65.59C116.904 65.59 116.195 68.9519 112.123 81.6957C108.052 94.4396 109.826 100.314 109.826 100.314C109.826 100.314 108.761 99.7849 106.284 107.393C103.806 115.001 104.87 124.732 109.291 129.332C113.711 133.933 119.557 133.759 126.106 131.106C130.135 129.38 133.49 126.386 135.662 122.58C135.662 122.58 142.567 120.835 147.697 116.92C152.827 113.006 156.718 108.957 164.163 109.312C171.608 109.667 180.089 113.913 182.921 113.733C185.754 113.552 186.446 110.016 183.258 105.241Z" stroke="#263238" stroke-linecap="round" stroke-linejoin="round"/>
<path d="M183.358 113.692C183.358 113.692 183.73 112.203 179.507 110.202C175.285 108.201 173.545 109.58 173.545 110.574C173.545 111.569 182.706 113.692 183.358 113.692Z" fill="white" stroke="#263238" stroke-linecap="round" stroke-linejoin="round"/>
<path d="M143.346 45.5408L132.691 53.7419H146.982C146.982 53.7419 146.982 43.6679 143.346 45.5408Z" fill="white" stroke="#263238" stroke-linecap="round" stroke-linejoin="round"/>
<path d="M129.98 104.694C131.493 102.984 133.38 101.644 135.494 100.78" stroke="#263238" stroke-linecap="round" stroke-linejoin="round"/>
<path d="M128.043 107.875C128.207 107.403 128.419 106.949 128.677 106.52" stroke="#263238" stroke-linecap="round" stroke-linejoin="round"/>
<path d="M123.797 118.927C123.227 118.426 122.694 117.883 122.203 117.304" stroke="#263238" stroke-linecap="round" stroke-linejoin="round"/>
<path d="M135.662 122.58C132.376 122.954 129.056 122.273 126.182 120.637" stroke="#263238" stroke-linecap="round" stroke-linejoin="round"/>
<path d="M175.505 53.0381H121.808C114.392 53.0381 108.383 58.7789 108.383 65.8343V91.1358C108.383 97.2896 112.926 102.431 118.987 103.67L116.154 112.052L129.264 103.979H175.505C182.915 103.979 188.929 98.2377 188.929 91.1824V65.8808C188.929 58.7789 182.915 53.0381 175.505 53.0381Z" fill="#FF7562" stroke="#263238" stroke-width="2" stroke-miterlimit="10"/>
<path d="M117.126 70.0745H177.489" stroke="#263238" stroke-width="2.06409" stroke-miterlimit="10" stroke-linecap="round"/>
<path d="M117.126 76.2922H177.489" stroke="#263238" stroke-width="2.06409" stroke-miterlimit="10" stroke-linecap="round"/>
<path d="M117.126 82.5044H177.489" stroke="#263238" stroke-width="2.06409" stroke-miterlimit="10" stroke-linecap="round"/>
<path d="M117.126 88.7161H177.489" stroke="#263238" stroke-width="2.06409" stroke-miterlimit="10" stroke-linecap="round"/>
<path d="M188.441 75.216C192.575 75.216 195.927 72.0156 195.927 68.0676C195.927 64.1196 192.575 60.9192 188.441 60.9192C184.307 60.9192 180.955 64.1196 180.955 68.0676C180.955 72.0156 184.307 75.216 188.441 75.216Z" fill="#263238"/>
<path d="M187.86 73.1165C187.614 72.6251 187.503 72.077 187.54 71.5286V65.7122L186.225 66.4451C186.084 66.5269 185.923 66.571 185.76 66.573C185.637 66.5743 185.516 66.5495 185.404 66.5004C185.291 66.4513 185.191 66.3789 185.108 66.288C184.937 66.1102 184.843 65.8718 184.847 65.625C184.843 65.4572 184.892 65.2924 184.986 65.1538C185.122 64.9915 185.283 64.852 185.463 64.7409L188.011 63.438C188.295 63.2339 188.628 63.1076 188.976 63.0715C189.843 63.0715 190.273 63.723 190.273 65.0259V71.7322C190.273 73.006 189.82 73.64 188.907 73.64C188.701 73.6582 188.494 73.6189 188.309 73.5264C188.124 73.434 187.969 73.2921 187.86 73.1165Z" fill="white"/>
<path d="M159.72 49.2924C159.72 49.2924 159.958 53.9746 164.175 56.2023C168.392 58.43 173.778 57.9472 173.894 55.1495C174.011 52.3518 170.73 49.4087 168.508 45.6571C166.286 41.9055 161.36 44.0227 159.254 46.5993" fill="white"/>
<path d="M159.72 49.2924C159.72 49.2924 159.958 53.9746 164.175 56.2023C168.392 58.43 173.778 57.9472 173.894 55.1495C174.011 52.3518 170.73 49.4087 168.508 45.6571C166.286 41.9055 161.36 44.0227 159.254 46.5993" stroke="#263238" stroke-linecap="round" stroke-linejoin="round"/>
<path d="M166.984 53.0381C166.629 54.911 167.921 55.9463 169.09 56.5279C170.259 57.1096 172.58 56.7664 173.894 55.1262C173.952 53.7535 173.202 52.3575 172.149 50.8511C170.683 51.0372 167.257 51.5723 166.984 53.0381Z" fill="white" stroke="#263238" stroke-linecap="round" stroke-linejoin="round"/>
<path d="M150.937 49.2924C150.937 49.2924 151.169 53.9746 155.386 56.2023C159.603 58.43 164.995 57.9472 165.111 55.1495C165.228 52.3518 161.947 49.4087 159.72 45.6571C157.492 41.9055 152.577 44.0227 150.466 46.5993" fill="white"/>
<path d="M150.937 49.2924C150.937 49.2924 151.169 53.9746 155.386 56.2023C159.603 58.43 164.995 57.9472 165.111 55.1495C165.228 52.3518 161.947 49.4087 159.72 45.6571C157.492 41.9055 152.577 44.0227 150.466 46.5993" stroke="#263238" stroke-linecap="round" stroke-linejoin="round"/>
<path d="M158.201 53.0381C157.846 54.911 159.137 55.9463 160.306 56.5279C161.476 57.1096 163.796 56.7664 165.111 55.1262C165.163 53.7535 164.413 52.3575 163.366 50.8511C161.9 51.0372 158.474 51.5723 158.201 53.0381Z" fill="white" stroke="#263238" stroke-linecap="round" stroke-linejoin="round"/>
<path d="M142.765 49.2924C142.765 49.2924 142.998 53.9746 147.215 56.2023C151.432 58.43 156.818 57.9472 156.934 55.1495C157.05 52.3518 153.776 49.4087 151.548 45.6571C149.32 41.9055 144.399 44.0227 142.294 46.5993" fill="white"/>
<path d="M142.765 49.2924C142.765 49.2924 142.998 53.9746 147.215 56.2023C151.432 58.43 156.818 57.9472 156.934 55.1495C157.05 52.3518 153.776 49.4087 151.548 45.6571C149.32 41.9055 144.399 44.0227 142.294 46.5993" stroke="#263238" stroke-linecap="round" stroke-linejoin="round"/>
<path d="M150.024 53.0381C149.675 54.911 150.96 55.9463 152.135 56.5279C153.31 57.1096 155.625 56.7664 156.933 55.1262C156.992 53.7535 156.241 52.3575 155.189 50.8511C153.723 51.0372 150.297 51.5723 150.024 53.0381Z" fill="white" stroke="#263238" stroke-linecap="round" stroke-linejoin="round"/>
<path d="M109.826 100.314C109.826 100.314 110.152 107.515 114.125 112.36" stroke="#263238" stroke-linecap="round" stroke-linejoin="round"/>
<path d="M98.2632 130.368C98.2632 131.834 97.2861 133.02 96.082 133.02C94.878 133.02 93.9009 131.857 93.9009 130.368C93.9009 128.879 94.878 127.716 96.082 127.716C97.2861 127.716 98.2632 128.902 98.2632 130.368Z" fill="white"/>
<path d="M92.8369 133.672C92.8369 135.137 91.8598 136.324 90.6558 136.324C89.4518 136.324 88.4746 135.161 88.4746 133.672C88.4746 132.183 89.4518 131.013 90.6558 131.013C91.8598 131.013 92.8369 132.206 92.8369 133.672Z" stroke="#263238" stroke-linecap="round" stroke-linejoin="round"/>
</svg>
