<svg width="277" height="209" viewBox="0 0 277 209" fill="none" xmlns="http://www.w3.org/2000/svg">
<path d="M262.078 130.926C261.913 124.86 262.384 114.514 257.065 110.254C252.393 106.514 248.76 111.59 247.448 115.685C244.271 125.617 245.763 136.57 245.772 146.824C245.772 146.979 245.772 147.135 245.772 147.31C245.525 154.858 244.616 163.023 245.442 170.556C245.442 170.556 244.631 163.008 238.705 166.243C232.779 169.478 241.668 186.454 241.668 186.454C241.668 186.454 234.664 181.334 231.429 185.647C228.194 189.96 235.47 194.808 235.47 194.808C235.47 194.808 228.733 192.923 228.733 194.808C228.733 196.693 230.89 198.31 237.088 199.121H270.495C270.495 199.121 275.887 196.153 274.809 192.923C273.73 189.693 268.067 191.554 268.067 191.554C268.067 191.554 276.693 181.043 276.154 176.462C275.615 171.882 264.565 177.274 264.565 177.274C264.565 177.274 273.186 155.445 271.569 145.746C270.296 138.105 264.366 143.317 261.136 146.27C261.896 141.193 262.211 136.059 262.078 130.926Z" fill="#FF7562" stroke="white" stroke-linecap="round" stroke-linejoin="round"/>
<path opacity="0.5" d="M262.078 130.926C261.913 124.86 262.384 114.514 257.065 110.254C252.393 106.514 248.76 111.59 247.448 115.685C244.271 125.617 245.763 136.57 245.772 146.824C245.772 146.979 245.772 147.135 245.772 147.31C245.525 154.858 244.616 163.023 245.442 170.556C245.442 170.556 244.631 163.008 238.705 166.243C232.779 169.478 241.668 186.454 241.668 186.454C241.668 186.454 234.664 181.334 231.429 185.647C228.194 189.96 235.47 194.808 235.47 194.808C235.47 194.808 228.733 192.923 228.733 194.808C228.733 196.693 230.89 198.31 237.088 199.121H270.495C270.495 199.121 275.887 196.153 274.809 192.923C273.73 189.693 268.067 191.554 268.067 191.554C268.067 191.554 276.693 181.043 276.154 176.462C275.615 171.882 264.565 177.274 264.565 177.274C264.565 177.274 273.186 155.445 271.569 145.746C270.296 138.105 264.366 143.317 261.136 146.27C261.896 141.193 262.211 136.059 262.078 130.926Z" fill="white"/>
<path d="M251.358 198.83L253.787 124.724" stroke="white" stroke-linecap="round" stroke-linejoin="round"/>
<path d="M252.708 167.841L265.371 155.985" stroke="white" stroke-linecap="round" stroke-linejoin="round"/>
<path d="M258.634 162.449L261.33 154.906" stroke="white" stroke-linecap="round" stroke-linejoin="round"/>
<path d="M242.197 177.002L251.897 187.513" stroke="white" stroke-linecap="round" stroke-linejoin="round"/>
<path d="M268.066 182.932L251.897 191.286" stroke="white" stroke-linecap="round" stroke-linejoin="round"/>
<path d="M259.445 187.78L265.371 187.513" stroke="white" stroke-linecap="round" stroke-linejoin="round"/>
<path d="M251.358 198.83L253.787 124.724" stroke="#FF7562" stroke-linecap="round" stroke-linejoin="round"/>
<path d="M252.708 167.841L265.371 155.985" stroke="#FF7562" stroke-linecap="round" stroke-linejoin="round"/>
<path d="M258.634 162.449L261.33 154.906" stroke="#FF7562" stroke-linecap="round" stroke-linejoin="round"/>
<path d="M242.197 177.002L251.897 187.513" stroke="#FF7562" stroke-linecap="round" stroke-linejoin="round"/>
<path d="M268.066 182.932L251.897 191.286" stroke="#FF7562" stroke-linecap="round" stroke-linejoin="round"/>
<path d="M259.445 187.78L265.371 187.513" stroke="#FF7562" stroke-linecap="round" stroke-linejoin="round"/>
<g opacity="0.8">
<path opacity="0.8" d="M251.358 198.83L253.787 124.724" stroke="white" stroke-linecap="round" stroke-linejoin="round"/>
<path opacity="0.8" d="M252.708 167.841L265.371 155.985" stroke="white" stroke-linecap="round" stroke-linejoin="round"/>
<path opacity="0.8" d="M258.634 162.45L261.33 154.906" stroke="white" stroke-linecap="round" stroke-linejoin="round"/>
<path opacity="0.8" d="M242.197 177.002L251.897 187.513" stroke="white" stroke-linecap="round" stroke-linejoin="round"/>
<path opacity="0.8" d="M268.066 182.932L251.897 191.286" stroke="white" stroke-linecap="round" stroke-linejoin="round"/>
<path opacity="0.8" d="M259.445 187.78L265.371 187.513" stroke="white" stroke-linecap="round" stroke-linejoin="round"/>
</g>
<path d="M205.069 183.855C205.069 191.389 211.039 197.499 211.039 197.499C211.039 197.499 217.008 191.389 217.008 183.855C217.008 176.322 211.039 170.211 211.039 170.211C211.039 170.211 205.069 176.317 205.069 183.855Z" fill="#FF7562"/>
<path d="M200.931 195.479C203.846 198.747 208.771 199.102 208.771 199.102C208.771 199.102 209.009 194.153 206.114 190.884C203.219 187.615 198.275 187.26 198.275 187.26C198.275 187.26 198.032 192.21 200.931 195.479Z" fill="#FF7562"/>
<path d="M216.144 190.772C213.099 193.904 213.118 198.859 213.118 198.859C213.118 198.859 218.068 198.728 221.108 195.59C224.149 192.452 224.139 187.503 224.139 187.503C224.139 187.503 219.185 187.634 216.144 190.772Z" fill="#FF7562"/>
<g opacity="0.5">
<path opacity="0.5" d="M205.069 183.855C205.069 191.389 211.038 197.499 211.038 197.499C211.038 197.499 217.008 191.389 217.008 183.855C217.008 176.322 211.038 170.211 211.038 170.211C211.038 170.211 205.069 176.317 205.069 183.855Z" fill="white"/>
<path opacity="0.5" d="M211.039 197.499V170.211" stroke="white" stroke-linecap="round" stroke-linejoin="round"/>
<path opacity="0.5" d="M211.039 179.911L207.697 176.992" stroke="white" stroke-linecap="round" stroke-linejoin="round"/>
<path opacity="0.5" d="M211.092 184.419L215.231 178.425" stroke="white" stroke-linecap="round" stroke-linejoin="round"/>
<path opacity="0.5" d="M211.038 187.018L206.104 182.617" stroke="white" stroke-linecap="round" stroke-linejoin="round"/>
<path opacity="0.5" d="M211.092 190.519L215.974 186.172" stroke="white" stroke-linecap="round" stroke-linejoin="round"/>
<path opacity="0.5" d="M211.093 193.545L207.27 190.519" stroke="white" stroke-linecap="round" stroke-linejoin="round"/>
<path opacity="0.5" d="M200.931 195.478C203.845 198.747 208.77 199.102 208.77 199.102C208.77 199.102 209.008 194.152 206.114 190.883C203.219 187.615 198.274 187.26 198.274 187.26C198.274 187.26 198.031 192.209 200.931 195.478Z" fill="white"/>
<path opacity="0.5" d="M208.771 199.102L198.274 187.26" stroke="white" stroke-linecap="round" stroke-linejoin="round"/>
<path opacity="0.5" d="M202.004 191.471L199.43 191.491" stroke="white" stroke-linecap="round" stroke-linejoin="round"/>
<path opacity="0.5" d="M203.763 193.404L203.253 189.212" stroke="white" stroke-linecap="round" stroke-linejoin="round"/>
<path opacity="0.5" d="M204.739 194.556L200.907 194.541" stroke="white" stroke-linecap="round" stroke-linejoin="round"/>
<path opacity="0.5" d="M206.109 196.051L206.551 192.287" stroke="white" stroke-linecap="round" stroke-linejoin="round"/>
<path opacity="0.5" d="M207.275 197.363L204.453 197.523" stroke="white" stroke-linecap="round" stroke-linejoin="round"/>
<path opacity="0.5" d="M216.143 190.772C213.098 193.905 213.117 198.859 213.117 198.859C213.117 198.859 218.067 198.728 221.107 195.59C224.148 192.453 224.138 187.503 224.138 187.503C224.138 187.503 219.184 187.634 216.143 190.772Z" fill="white"/>
<path opacity="0.5" d="M213.117 198.859L224.138 187.503" stroke="white" stroke-linecap="round" stroke-linejoin="round"/>
<path opacity="0.5" d="M220.219 191.539L220.01 188.975" stroke="white" stroke-linecap="round" stroke-linejoin="round"/>
<path opacity="0.5" d="M218.422 193.439L222.565 192.613" stroke="white" stroke-linecap="round" stroke-linejoin="round"/>
<path opacity="0.5" d="M217.348 194.497L217.076 190.675" stroke="white" stroke-linecap="round" stroke-linejoin="round"/>
<path opacity="0.5" d="M215.954 195.974L219.743 196.139" stroke="white" stroke-linecap="round" stroke-linejoin="round"/>
<path opacity="0.5" d="M214.735 197.232L214.366 194.434" stroke="white" stroke-linecap="round" stroke-linejoin="round"/>
</g>
<path d="M211.039 197.499V170.211" stroke="#FF7562" stroke-linecap="round" stroke-linejoin="round"/>
<path d="M211.039 179.911L207.697 176.992" stroke="#FF7562" stroke-linecap="round" stroke-linejoin="round"/>
<path d="M211.092 184.419L215.231 178.425" stroke="#FF7562" stroke-linecap="round" stroke-linejoin="round"/>
<path d="M211.039 187.017L206.104 182.616" stroke="#FF7562" stroke-linecap="round" stroke-linejoin="round"/>
<path d="M211.092 190.519L215.974 186.172" stroke="#FF7562" stroke-linecap="round" stroke-linejoin="round"/>
<path d="M211.092 193.545L207.27 190.519" stroke="#FF7562" stroke-linecap="round" stroke-linejoin="round"/>
<g opacity="0.7">
<path opacity="0.7" d="M211.039 197.499V170.211" stroke="white" stroke-linecap="round" stroke-linejoin="round"/>
<path opacity="0.7" d="M211.039 179.911L207.697 176.992" stroke="white" stroke-linecap="round" stroke-linejoin="round"/>
<path opacity="0.7" d="M211.092 184.419L215.231 178.425" stroke="white" stroke-linecap="round" stroke-linejoin="round"/>
<path opacity="0.7" d="M211.039 187.017L206.104 182.617" stroke="white" stroke-linecap="round" stroke-linejoin="round"/>
<path opacity="0.7" d="M211.092 190.519L215.974 186.172" stroke="white" stroke-linecap="round" stroke-linejoin="round"/>
<path opacity="0.7" d="M211.092 193.545L207.27 190.519" stroke="white" stroke-linecap="round" stroke-linejoin="round"/>
</g>
<path d="M208.77 199.102L198.274 187.26" stroke="#FF7562" stroke-linecap="round" stroke-linejoin="round"/>
<path d="M202.004 191.471L199.43 191.491" stroke="#FF7562" stroke-linecap="round" stroke-linejoin="round"/>
<path d="M203.762 193.404L203.252 189.212" stroke="#FF7562" stroke-linecap="round" stroke-linejoin="round"/>
<path d="M204.739 194.555L200.907 194.541" stroke="#FF7562" stroke-linecap="round" stroke-linejoin="round"/>
<path d="M206.108 196.051L206.55 192.287" stroke="#FF7562" stroke-linecap="round" stroke-linejoin="round"/>
<path d="M207.275 197.363L204.453 197.523" stroke="#FF7562" stroke-linecap="round" stroke-linejoin="round"/>
<g opacity="0.7">
<path opacity="0.7" d="M208.77 199.102L198.274 187.26" stroke="white" stroke-linecap="round" stroke-linejoin="round"/>
<path opacity="0.7" d="M202.004 191.471L199.43 191.491" stroke="white" stroke-linecap="round" stroke-linejoin="round"/>
<path opacity="0.7" d="M203.762 193.405L203.252 189.213" stroke="white" stroke-linecap="round" stroke-linejoin="round"/>
<path opacity="0.7" d="M204.739 194.556L200.907 194.541" stroke="white" stroke-linecap="round" stroke-linejoin="round"/>
<path opacity="0.7" d="M206.108 196.052L206.55 192.287" stroke="white" stroke-linecap="round" stroke-linejoin="round"/>
<path opacity="0.7" d="M207.274 197.363L204.452 197.524" stroke="white" stroke-linecap="round" stroke-linejoin="round"/>
</g>
<path d="M213.118 198.859L224.139 187.503" stroke="#FF7562" stroke-linecap="round" stroke-linejoin="round"/>
<path d="M220.219 191.539L220.01 188.975" stroke="#FF7562" stroke-linecap="round" stroke-linejoin="round"/>
<path d="M218.422 193.438L222.565 192.613" stroke="#FF7562" stroke-linecap="round" stroke-linejoin="round"/>
<path d="M217.348 194.497L217.076 190.674" stroke="#FF7562" stroke-linecap="round" stroke-linejoin="round"/>
<path d="M215.954 195.974L219.743 196.139" stroke="#FF7562" stroke-linecap="round" stroke-linejoin="round"/>
<path d="M214.735 197.232L214.366 194.434" stroke="#FF7562" stroke-linecap="round" stroke-linejoin="round"/>
<g opacity="0.7">
<path opacity="0.7" d="M213.118 198.859L224.139 187.503" stroke="white" stroke-linecap="round" stroke-linejoin="round"/>
<path opacity="0.7" d="M220.219 191.539L220.01 188.975" stroke="white" stroke-linecap="round" stroke-linejoin="round"/>
<path opacity="0.7" d="M218.421 193.439L222.565 192.613" stroke="white" stroke-linecap="round" stroke-linejoin="round"/>
<path opacity="0.7" d="M217.348 194.497L217.076 190.675" stroke="white" stroke-linecap="round" stroke-linejoin="round"/>
<path opacity="0.7" d="M215.954 195.974L219.743 196.139" stroke="white" stroke-linecap="round" stroke-linejoin="round"/>
<path opacity="0.7" d="M214.735 197.232L214.366 194.434" stroke="white" stroke-linecap="round" stroke-linejoin="round"/>
</g>
<path d="M15.1004 130.926C15.2607 124.86 14.7944 114.514 20.113 110.254C24.7856 106.514 28.4187 111.59 29.7253 115.685C32.9068 125.617 31.4108 136.57 31.4059 146.824C31.4059 146.979 31.4059 147.135 31.4059 147.31C31.6585 154.858 32.5619 163.023 31.741 170.556C31.741 170.556 32.5473 163.008 38.4779 166.243C44.4086 169.478 35.5102 186.454 35.5102 186.454C35.5102 186.454 42.5191 181.334 45.754 185.647C48.9889 189.96 41.7225 194.788 41.7225 194.788C41.7225 194.788 48.4594 192.904 48.4594 194.788C48.4594 196.673 46.3028 198.291 40.1051 199.102H6.68288C6.68288 199.102 1.29142 196.134 2.36971 192.904C3.448 189.674 9.10661 191.554 9.10661 191.554C9.10661 191.554 0.485126 181.043 1.02427 176.462C1.56342 171.882 12.6135 177.274 12.6135 177.274C12.6135 177.274 3.98715 155.445 5.60459 145.76C6.87717 138.12 12.8126 143.332 16.0378 146.285C15.2782 141.202 14.9646 136.063 15.1004 130.926Z" fill="#FF7562" stroke="white" stroke-linecap="round" stroke-linejoin="round"/>
<path opacity="0.5" d="M15.1004 130.926C15.2607 124.86 14.7944 114.514 20.113 110.254C24.7856 106.514 28.4187 111.59 29.7253 115.685C32.9068 125.617 31.4108 136.57 31.4059 146.824C31.4059 146.979 31.4059 147.135 31.4059 147.31C31.6585 154.858 32.5619 163.023 31.741 170.556C31.741 170.556 32.5473 163.008 38.4779 166.243C44.4086 169.478 35.5102 186.454 35.5102 186.454C35.5102 186.454 42.5191 181.334 45.754 185.647C48.9889 189.96 41.7225 194.788 41.7225 194.788C41.7225 194.788 48.4594 192.904 48.4594 194.788C48.4594 196.673 46.3028 198.291 40.1051 199.102H6.68288C6.68288 199.102 1.29142 196.134 2.36971 192.904C3.448 189.674 9.10661 191.554 9.10661 191.554C9.10661 191.554 0.485126 181.043 1.02427 176.462C1.56342 171.882 12.6135 177.274 12.6135 177.274C12.6135 177.274 3.98715 155.445 5.60459 145.76C6.87717 138.12 12.8126 143.332 16.0378 146.285C15.2782 141.202 14.9646 136.063 15.1004 130.926Z" fill="white"/>
<path d="M25.8153 198.83L23.3916 124.724" stroke="white" stroke-linecap="round" stroke-linejoin="round"/>
<path d="M24.4702 167.841L11.8027 155.985" stroke="white" stroke-linecap="round" stroke-linejoin="round"/>
<path d="M18.5395 162.449L15.8438 154.906" stroke="white" stroke-linecap="round" stroke-linejoin="round"/>
<path d="M34.9761 177.002L25.2764 187.513" stroke="white" stroke-linecap="round" stroke-linejoin="round"/>
<path d="M9.10693 182.932L25.2765 191.286" stroke="white" stroke-linecap="round" stroke-linejoin="round"/>
<path d="M17.7333 187.78L11.8027 187.513" stroke="white" stroke-linecap="round" stroke-linejoin="round"/>
<path d="M25.8153 198.83L23.3916 124.724" stroke="#FF7562" stroke-linecap="round" stroke-linejoin="round"/>
<path d="M24.4702 167.841L11.8027 155.985" stroke="#FF7562" stroke-linecap="round" stroke-linejoin="round"/>
<path d="M18.5395 162.449L15.8438 154.906" stroke="#FF7562" stroke-linecap="round" stroke-linejoin="round"/>
<path d="M34.9761 177.002L25.2764 187.513" stroke="#FF7562" stroke-linecap="round" stroke-linejoin="round"/>
<path d="M9.10693 182.932L25.2765 191.286" stroke="#FF7562" stroke-linecap="round" stroke-linejoin="round"/>
<path d="M17.7333 187.78L11.8027 187.513" stroke="#FF7562" stroke-linecap="round" stroke-linejoin="round"/>
<g opacity="0.8">
<path opacity="0.8" d="M25.8153 198.83L23.3916 124.724" stroke="white" stroke-linecap="round" stroke-linejoin="round"/>
<path opacity="0.8" d="M24.4702 167.841L11.8027 155.985" stroke="white" stroke-linecap="round" stroke-linejoin="round"/>
<path opacity="0.8" d="M18.5395 162.45L15.8438 154.906" stroke="white" stroke-linecap="round" stroke-linejoin="round"/>
<path opacity="0.8" d="M34.9761 177.002L25.2764 187.513" stroke="white" stroke-linecap="round" stroke-linejoin="round"/>
<path opacity="0.8" d="M9.10693 182.932L25.2765 191.286" stroke="white" stroke-linecap="round" stroke-linejoin="round"/>
<path opacity="0.8" d="M17.7333 187.78L11.8027 187.513" stroke="white" stroke-linecap="round" stroke-linejoin="round"/>
</g>
<path d="M73.0806 183.855C73.0806 191.389 67.1111 197.499 67.1111 197.499C67.1111 197.499 61.1514 191.389 61.1514 183.855C61.1514 176.322 67.1208 170.211 67.1208 170.211C67.1208 170.211 73.0806 176.317 73.0806 183.855Z" fill="#FF7562"/>
<path d="M77.2138 195.479C74.2995 198.747 69.3744 199.102 69.3744 199.102C69.3744 199.102 69.1364 194.153 72.0361 190.884C74.9358 187.615 79.8756 187.26 79.8756 187.26C79.8756 187.26 80.0941 192.21 77.2138 195.479Z" fill="#FF7562"/>
<path d="M62.0061 190.772C65.0467 193.904 65.0322 198.859 65.0322 198.859C65.0322 198.859 60.0827 198.728 57.0373 195.59C53.9918 192.452 54.0112 187.503 54.0112 187.503C54.0112 187.503 58.9607 187.634 62.0061 190.772Z" fill="#FF7562"/>
<g opacity="0.5">
<path opacity="0.5" d="M73.0806 183.855C73.0806 191.389 67.1111 197.499 67.1111 197.499C67.1111 197.499 61.1514 191.389 61.1514 183.855C61.1514 176.322 67.1208 170.211 67.1208 170.211C67.1208 170.211 73.0806 176.317 73.0806 183.855Z" fill="white"/>
<path opacity="0.5" d="M67.1113 197.499V170.211" stroke="white" stroke-linecap="round" stroke-linejoin="round"/>
<path opacity="0.5" d="M67.1113 179.911L70.4531 176.992" stroke="white" stroke-linecap="round" stroke-linejoin="round"/>
<path opacity="0.5" d="M67.0577 184.419L62.9194 178.425" stroke="white" stroke-linecap="round" stroke-linejoin="round"/>
<path opacity="0.5" d="M67.1113 187.017L72.0462 182.617" stroke="white" stroke-linecap="round" stroke-linejoin="round"/>
<path opacity="0.5" d="M67.0577 190.519L62.1763 186.172" stroke="white" stroke-linecap="round" stroke-linejoin="round"/>
<path opacity="0.5" d="M67.0576 193.545L70.8754 190.519" stroke="white" stroke-linecap="round" stroke-linejoin="round"/>
<path opacity="0.5" d="M77.2138 195.478C74.2995 198.747 69.3744 199.102 69.3744 199.102C69.3744 199.102 69.1364 194.152 72.0361 190.883C74.9358 187.615 79.8756 187.26 79.8756 187.26C79.8756 187.26 80.0941 192.209 77.2138 195.478Z" fill="white"/>
<path opacity="0.5" d="M69.3745 199.102L79.8757 187.26" stroke="white" stroke-linecap="round" stroke-linejoin="round"/>
<path opacity="0.5" d="M76.1455 191.471L78.715 191.491" stroke="white" stroke-linecap="round" stroke-linejoin="round"/>
<path opacity="0.5" d="M74.3872 193.404L74.8972 189.212" stroke="white" stroke-linecap="round" stroke-linejoin="round"/>
<path opacity="0.5" d="M73.4058 194.556L77.2429 194.541" stroke="white" stroke-linecap="round" stroke-linejoin="round"/>
<path opacity="0.5" d="M72.0367 196.051L71.5947 192.287" stroke="white" stroke-linecap="round" stroke-linejoin="round"/>
<path opacity="0.5" d="M70.876 197.363L73.698 197.523" stroke="white" stroke-linecap="round" stroke-linejoin="round"/>
<path opacity="0.5" d="M62.0061 190.772C65.0467 193.905 65.0322 198.859 65.0322 198.859C65.0322 198.859 60.0827 198.728 57.0373 195.59C53.9918 192.453 54.0112 187.503 54.0112 187.503C54.0112 187.503 58.9607 187.634 62.0061 190.772Z" fill="white"/>
<path opacity="0.5" d="M65.0322 198.859L54.0112 187.503" stroke="white" stroke-linecap="round" stroke-linejoin="round"/>
<path opacity="0.5" d="M57.9268 191.539L58.1405 188.975" stroke="white" stroke-linecap="round" stroke-linejoin="round"/>
<path opacity="0.5" d="M59.7281 193.439L55.585 192.613" stroke="white" stroke-linecap="round" stroke-linejoin="round"/>
<path opacity="0.5" d="M60.7969 194.497L61.0737 190.675" stroke="white" stroke-linecap="round" stroke-linejoin="round"/>
<path opacity="0.5" d="M62.1909 195.974L58.4023 196.139" stroke="white" stroke-linecap="round" stroke-linejoin="round"/>
<path opacity="0.5" d="M63.4146 197.232L63.7788 194.434" stroke="white" stroke-linecap="round" stroke-linejoin="round"/>
</g>
<path d="M67.1113 197.499V170.211" stroke="#FF7562" stroke-linecap="round" stroke-linejoin="round"/>
<path d="M67.1113 179.911L70.4531 176.992" stroke="#FF7562" stroke-linecap="round" stroke-linejoin="round"/>
<path d="M67.0577 184.419L62.9194 178.425" stroke="#FF7562" stroke-linecap="round" stroke-linejoin="round"/>
<path d="M67.1113 187.017L72.0462 182.616" stroke="#FF7562" stroke-linecap="round" stroke-linejoin="round"/>
<path d="M67.0572 190.519L62.1758 186.172" stroke="#FF7562" stroke-linecap="round" stroke-linejoin="round"/>
<path d="M67.0571 193.545L70.8749 190.519" stroke="#FF7562" stroke-linecap="round" stroke-linejoin="round"/>
<g opacity="0.7">
<path opacity="0.7" d="M67.1113 197.499V170.211" stroke="white" stroke-linecap="round" stroke-linejoin="round"/>
<path opacity="0.7" d="M67.1113 179.911L70.4531 176.992" stroke="white" stroke-linecap="round" stroke-linejoin="round"/>
<path opacity="0.7" d="M67.0577 184.419L62.9194 178.425" stroke="white" stroke-linecap="round" stroke-linejoin="round"/>
<path opacity="0.7" d="M67.1113 187.017L72.0462 182.617" stroke="white" stroke-linecap="round" stroke-linejoin="round"/>
<path opacity="0.7" d="M67.0572 190.519L62.1758 186.172" stroke="white" stroke-linecap="round" stroke-linejoin="round"/>
<path opacity="0.7" d="M67.0571 193.545L70.8749 190.519" stroke="white" stroke-linecap="round" stroke-linejoin="round"/>
</g>
<path d="M69.3745 199.102L79.8757 187.26" stroke="#FF7562" stroke-linecap="round" stroke-linejoin="round"/>
<path d="M76.145 191.471L78.7145 191.491" stroke="#FF7562" stroke-linecap="round" stroke-linejoin="round"/>
<path d="M74.3872 193.404L74.8972 189.212" stroke="#FF7562" stroke-linecap="round" stroke-linejoin="round"/>
<path d="M73.4058 194.555L77.2429 194.541" stroke="#FF7562" stroke-linecap="round" stroke-linejoin="round"/>
<path d="M72.0362 196.051L71.5942 192.287" stroke="#FF7562" stroke-linecap="round" stroke-linejoin="round"/>
<path d="M70.875 197.363L73.697 197.523" stroke="#FF7562" stroke-linecap="round" stroke-linejoin="round"/>
<g opacity="0.7">
<path opacity="0.7" d="M69.3745 199.102L79.8757 187.26" stroke="white" stroke-linecap="round" stroke-linejoin="round"/>
<path opacity="0.7" d="M76.1455 191.471L78.715 191.491" stroke="white" stroke-linecap="round" stroke-linejoin="round"/>
<path opacity="0.7" d="M74.3872 193.405L74.8972 189.213" stroke="white" stroke-linecap="round" stroke-linejoin="round"/>
<path opacity="0.7" d="M73.4058 194.556L77.2429 194.541" stroke="white" stroke-linecap="round" stroke-linejoin="round"/>
<path opacity="0.7" d="M72.0367 196.052L71.5947 192.287" stroke="white" stroke-linecap="round" stroke-linejoin="round"/>
<path opacity="0.7" d="M70.876 197.363L73.698 197.524" stroke="white" stroke-linecap="round" stroke-linejoin="round"/>
</g>
<path d="M65.0322 198.859L54.0112 187.503" stroke="#FF7562" stroke-linecap="round" stroke-linejoin="round"/>
<path d="M57.9263 191.539L58.14 188.975" stroke="#FF7562" stroke-linecap="round" stroke-linejoin="round"/>
<path d="M59.7281 193.438L55.585 192.613" stroke="#FF7562" stroke-linecap="round" stroke-linejoin="round"/>
<path d="M60.7969 194.497L61.0737 190.674" stroke="#FF7562" stroke-linecap="round" stroke-linejoin="round"/>
<path d="M62.1905 195.974L58.4019 196.139" stroke="#FF7562" stroke-linecap="round" stroke-linejoin="round"/>
<path d="M63.4146 197.232L63.7788 194.434" stroke="#FF7562" stroke-linecap="round" stroke-linejoin="round"/>
<g opacity="0.7">
<path opacity="0.7" d="M65.0322 198.859L54.0112 187.503" stroke="white" stroke-linecap="round" stroke-linejoin="round"/>
<path opacity="0.7" d="M57.9268 191.539L58.1405 188.974" stroke="white" stroke-linecap="round" stroke-linejoin="round"/>
<path opacity="0.7" d="M59.7281 193.438L55.585 192.613" stroke="white" stroke-linecap="round" stroke-linejoin="round"/>
<path opacity="0.7" d="M60.7969 194.497L61.0737 190.675" stroke="white" stroke-linecap="round" stroke-linejoin="round"/>
<path opacity="0.7" d="M62.1909 195.974L58.4023 196.139" stroke="white" stroke-linecap="round" stroke-linejoin="round"/>
<path opacity="0.7" d="M63.4146 197.232L63.7788 194.434" stroke="white" stroke-linecap="round" stroke-linejoin="round"/>
</g>
<path d="M207.536 54.7468H76.2323C76.193 54.7475 76.1539 54.7403 76.1174 54.7257C76.0809 54.7111 76.0477 54.6894 76.0196 54.6618C75.9916 54.6342 75.9694 54.6013 75.9542 54.5651C75.939 54.5288 75.9311 54.4899 75.9312 54.4506C75.9312 54.3707 75.9629 54.2941 76.0194 54.2376C76.0758 54.1811 76.1524 54.1494 76.2323 54.1494H207.536C207.576 54.1494 207.615 54.1572 207.651 54.1724C207.687 54.1876 207.72 54.2099 207.748 54.2379C207.775 54.2659 207.797 54.2992 207.811 54.3357C207.826 54.3722 207.833 54.4112 207.833 54.4506C207.833 54.5291 207.801 54.6045 207.746 54.6601C207.69 54.7156 207.615 54.7468 207.536 54.7468Z" fill="#FF7562"/>
<g opacity="0.3">
<path opacity="0.3" d="M207.536 54.7468H76.2323C76.193 54.7475 76.1539 54.7403 76.1174 54.7257C76.0809 54.7111 76.0477 54.6894 76.0196 54.6618C75.9916 54.6342 75.9694 54.6013 75.9542 54.5651C75.939 54.5288 75.9311 54.4899 75.9312 54.4506C75.9312 54.3707 75.9629 54.2941 76.0194 54.2376C76.0758 54.1811 76.1524 54.1494 76.2323 54.1494H207.536C207.576 54.1494 207.615 54.1572 207.651 54.1724C207.687 54.1876 207.72 54.2099 207.748 54.2379C207.775 54.2659 207.797 54.2992 207.811 54.3357C207.826 54.3722 207.833 54.4112 207.833 54.4506C207.833 54.5291 207.801 54.6045 207.746 54.6601C207.69 54.7156 207.615 54.7468 207.536 54.7468Z" fill="white"/>
</g>
<path d="M207.275 106.825H75.9706C75.9313 106.826 75.8922 106.818 75.8557 106.804C75.8192 106.789 75.786 106.768 75.7579 106.74C75.7299 106.712 75.7076 106.679 75.6924 106.643C75.6773 106.607 75.6694 106.568 75.6694 106.529C75.6694 106.449 75.7012 106.372 75.7576 106.316C75.8141 106.259 75.8907 106.228 75.9706 106.228H207.275C207.314 106.228 207.353 106.235 207.389 106.251C207.425 106.266 207.458 106.288 207.486 106.316C207.513 106.344 207.535 106.377 207.55 106.414C207.564 106.45 207.572 106.489 207.571 106.529C207.571 106.568 207.563 106.606 207.548 106.642C207.533 106.678 207.512 106.711 207.484 106.738C207.457 106.766 207.424 106.788 207.388 106.802C207.352 106.817 207.313 106.825 207.275 106.825Z" fill="#FF7562"/>
<g opacity="0.3">
<path opacity="0.3" d="M207.275 106.825H75.9706C75.9313 106.826 75.8922 106.818 75.8557 106.804C75.8192 106.789 75.786 106.768 75.7579 106.74C75.7299 106.712 75.7076 106.679 75.6924 106.643C75.6773 106.607 75.6694 106.568 75.6694 106.529C75.6694 106.449 75.7012 106.372 75.7576 106.316C75.8141 106.259 75.8907 106.228 75.9706 106.228H207.275C207.314 106.228 207.353 106.235 207.389 106.251C207.425 106.266 207.458 106.288 207.486 106.316C207.513 106.344 207.535 106.377 207.55 106.414C207.564 106.45 207.572 106.489 207.571 106.529C207.571 106.568 207.563 106.606 207.548 106.642C207.533 106.678 207.512 106.711 207.484 106.738C207.457 106.766 207.424 106.788 207.388 106.802C207.352 106.817 207.313 106.825 207.275 106.825Z" fill="white"/>
</g>
<path d="M207.275 149.398H75.9706C75.8907 149.398 75.8141 149.367 75.7576 149.31C75.7012 149.254 75.6694 149.177 75.6694 149.097C75.6694 149.058 75.6773 149.019 75.6924 148.983C75.7076 148.947 75.7299 148.914 75.7579 148.886C75.786 148.859 75.8192 148.837 75.8557 148.822C75.8922 148.808 75.9313 148.8 75.9706 148.801H207.275C207.313 148.801 207.352 148.809 207.388 148.824C207.424 148.839 207.457 148.86 207.484 148.888C207.512 148.915 207.533 148.948 207.548 148.984C207.563 149.02 207.571 149.058 207.571 149.097C207.572 149.137 207.564 149.176 207.55 149.212C207.535 149.249 207.513 149.282 207.486 149.31C207.458 149.338 207.425 149.36 207.389 149.375C207.353 149.391 207.314 149.398 207.275 149.398Z" fill="#FF7562"/>
<g opacity="0.3">
<path opacity="0.3" d="M207.275 149.398H75.9706C75.8907 149.398 75.8141 149.367 75.7576 149.31C75.7012 149.254 75.6694 149.177 75.6694 149.097C75.6694 149.058 75.6773 149.019 75.6924 148.983C75.7076 148.946 75.7299 148.913 75.7579 148.886C75.786 148.858 75.8192 148.837 75.8557 148.822C75.8922 148.807 75.9313 148.8 75.9706 148.801H207.275C207.313 148.801 207.352 148.808 207.388 148.823C207.424 148.838 207.457 148.86 207.484 148.888C207.512 148.915 207.533 148.948 207.548 148.984C207.563 149.02 207.571 149.058 207.571 149.097C207.572 149.136 207.564 149.175 207.55 149.212C207.535 149.248 207.513 149.282 207.486 149.31C207.458 149.338 207.425 149.36 207.389 149.375C207.353 149.39 207.314 149.398 207.275 149.398Z" fill="white"/>
</g>
<path d="M103.884 156.601V200.908" stroke="#263238" stroke-width="0.265171" stroke-miterlimit="10"/>
<path d="M110.213 156.602V200.909" stroke="#263238" stroke-width="0.265171" stroke-miterlimit="10"/>
<path d="M116.542 156.602V200.909" stroke="#263238" stroke-width="0.265171" stroke-miterlimit="10"/>
<path d="M122.871 156.602V200.909" stroke="#263238" stroke-width="0.265171" stroke-miterlimit="10"/>
<path d="M129.2 156.602V200.909" stroke="#263238" stroke-width="0.265171" stroke-miterlimit="10"/>
<path d="M135.529 156.602V200.909" stroke="#263238" stroke-width="0.265171" stroke-miterlimit="10"/>
<path d="M141.857 156.602V200.909" stroke="#263238" stroke-width="0.265171" stroke-miterlimit="10"/>
<path d="M148.187 156.602V200.909" stroke="#263238" stroke-width="0.265171" stroke-miterlimit="10"/>
<path d="M154.516 156.602V200.909" stroke="#263238" stroke-width="0.265171" stroke-miterlimit="10"/>
<path d="M160.844 156.602V200.909" stroke="#263238" stroke-width="0.265171" stroke-miterlimit="10"/>
<path d="M167.173 156.602V200.909" stroke="#263238" stroke-width="0.265171" stroke-miterlimit="10"/>
<path d="M173.502 156.602V200.909" stroke="#263238" stroke-width="0.265171" stroke-miterlimit="10"/>
<path d="M104.201 160.716H173.187" stroke="#263238" stroke-width="0.265171" stroke-miterlimit="10"/>
<path d="M104.201 166.729H173.187" stroke="#263238" stroke-width="0.265171" stroke-miterlimit="10"/>
<path d="M104.201 172.742H173.187" stroke="#263238" stroke-width="0.265171" stroke-miterlimit="10"/>
<path d="M104.201 178.755H173.187" stroke="#263238" stroke-width="0.265171" stroke-miterlimit="10"/>
<path d="M104.201 184.768H173.187" stroke="#263238" stroke-width="0.265171" stroke-miterlimit="10"/>
<path d="M104.201 190.781H173.187" stroke="#263238" stroke-width="0.265171" stroke-miterlimit="10"/>
<path d="M104.201 196.794H173.187" stroke="#263238" stroke-width="0.265171" stroke-miterlimit="10"/>
<path d="M118.694 172.144L109.437 200.685H128.826L119.564 172.144C119.534 172.052 119.476 171.972 119.398 171.915C119.32 171.858 119.226 171.827 119.129 171.827C119.032 171.827 118.938 171.858 118.86 171.915C118.782 171.972 118.724 172.052 118.694 172.144Z" fill="#FF7562" stroke="#263238" stroke-width="1.06068" stroke-miterlimit="10"/>
<path d="M136.345 162.692L124.022 200.685H149.551L137.214 162.692C137.185 162.6 137.126 162.52 137.048 162.463C136.97 162.406 136.876 162.375 136.779 162.375C136.683 162.375 136.588 162.406 136.51 162.463C136.432 162.52 136.374 162.6 136.345 162.692Z" fill="#263238" stroke="#263238" stroke-width="1.06068" stroke-miterlimit="10"/>
<path d="M152.588 178.673L145.443 200.685H160.597L153.438 178.673C153.404 178.587 153.346 178.514 153.27 178.462C153.194 178.41 153.105 178.383 153.013 178.383C152.921 178.383 152.831 178.41 152.756 178.462C152.68 178.514 152.621 178.587 152.588 178.673Z" fill="#FF7562" stroke="#263238" stroke-width="1.06068" stroke-miterlimit="10"/>
<path d="M162.375 186.23L157.688 200.685H167.931L163.244 186.23C163.215 186.138 163.157 186.058 163.078 186.001C163 185.944 162.906 185.913 162.809 185.913C162.713 185.913 162.619 185.944 162.54 186.001C162.462 186.058 162.404 186.138 162.375 186.23Z" fill="#263238" stroke="#263238" stroke-width="1.06068" stroke-miterlimit="10"/>
<path d="M103.049 142.598C100.272 142.598 97.5568 141.775 95.2476 140.232C92.9384 138.689 91.1385 136.496 90.0757 133.93C89.0129 131.364 88.7348 128.54 89.2767 125.817C89.8185 123.093 91.1558 120.591 93.1197 118.627C95.0835 116.663 97.5856 115.326 100.309 114.784C103.033 114.242 105.857 114.52 108.423 115.583C110.988 116.646 113.182 118.445 114.725 120.755C116.267 123.064 117.091 125.779 117.091 128.556C117.087 132.279 115.607 135.848 112.974 138.481C110.341 141.114 106.772 142.594 103.049 142.598ZM103.049 118.638C101.087 118.639 99.1703 119.221 97.5399 120.312C95.9095 121.402 94.639 122.951 93.889 124.764C93.1391 126.576 92.9434 128.57 93.3266 130.494C93.7099 132.418 94.6549 134.184 96.0422 135.571C97.4295 136.958 99.1968 137.902 101.121 138.284C103.044 138.666 105.038 138.47 106.85 137.719C108.663 136.968 110.211 135.697 111.301 134.066C112.391 132.435 112.972 130.517 112.972 128.556C112.97 125.925 111.923 123.403 110.063 121.544C108.202 119.684 105.679 118.639 103.049 118.638Z" fill="#263238" stroke="#263238" stroke-width="1.06068" stroke-miterlimit="10"/>
<path d="M103.049 142.598C101.154 142.604 99.2775 142.223 97.5345 141.479C95.7915 140.735 94.2187 139.643 92.9121 138.27L95.8895 135.419C96.8121 136.389 97.9229 137.16 99.154 137.686C100.385 138.211 101.711 138.479 103.049 138.474C104.352 138.474 105.641 138.218 106.845 137.719C108.048 137.221 109.141 136.49 110.062 135.569C110.983 134.648 111.714 133.555 112.212 132.352C112.711 131.148 112.967 129.858 112.967 128.556C112.967 127.253 112.711 125.964 112.212 124.76C111.714 123.557 110.983 122.464 110.062 121.543C109.141 120.622 108.048 119.891 106.845 119.393C105.641 118.894 104.352 118.638 103.049 118.638V114.514C104.893 114.514 106.719 114.877 108.423 115.583C110.126 116.288 111.674 117.323 112.978 118.627C114.282 119.931 115.317 121.479 116.022 123.182C116.728 124.886 117.091 126.712 117.091 128.556C117.091 130.4 116.728 132.226 116.022 133.93C115.317 135.633 114.282 137.181 112.978 138.485C111.674 139.789 110.126 140.824 108.423 141.529C106.719 142.235 104.893 142.598 103.049 142.598Z" fill="#FF7562" stroke="#263238" stroke-width="1.06068" stroke-miterlimit="10"/>
<path d="M137.681 142.598C134.903 142.599 132.188 141.776 129.878 140.234C127.568 138.692 125.768 136.499 124.704 133.933C123.641 131.367 123.362 128.544 123.903 125.82C124.444 123.095 125.781 120.593 127.745 118.628C129.709 116.664 132.211 115.326 134.935 114.784C137.659 114.242 140.482 114.52 143.048 115.582C145.615 116.645 147.808 118.445 149.351 120.754C150.894 123.063 151.718 125.779 151.718 128.556C151.714 132.278 150.234 135.847 147.603 138.479C144.971 141.112 141.403 142.593 137.681 142.598ZM137.681 118.638C135.719 118.64 133.803 119.223 132.173 120.314C130.543 121.405 129.274 122.955 128.524 124.767C127.775 126.58 127.58 128.574 127.964 130.497C128.348 132.42 129.293 134.187 130.681 135.573C132.068 136.959 133.835 137.903 135.759 138.284C137.683 138.666 139.677 138.469 141.488 137.718C143.3 136.967 144.849 135.696 145.938 134.065C147.027 132.434 147.609 130.517 147.609 128.556C147.605 125.925 146.557 123.403 144.696 121.544C142.835 119.684 140.312 118.639 137.681 118.638Z" fill="#263238" stroke="#263238" stroke-width="1.06068" stroke-miterlimit="10"/>
<path d="M143.145 141.491L141.542 137.697C143.649 136.804 145.382 135.211 146.448 133.187C147.515 131.163 147.849 128.833 147.395 126.59C146.941 124.348 145.726 122.332 143.955 120.882C142.185 119.433 139.968 118.64 137.681 118.638V114.514C140.921 114.514 144.061 115.635 146.569 117.686C149.077 119.737 150.799 122.593 151.442 125.768C152.085 128.944 151.61 132.244 150.098 135.11C148.586 137.975 146.129 140.229 143.145 141.491Z" fill="#FF7562" stroke="#263238" stroke-width="1.06068" stroke-miterlimit="10"/>
<path d="M172.307 142.598C169.53 142.598 166.815 141.775 164.506 140.232C162.197 138.689 160.397 136.496 159.334 133.93C158.271 131.364 157.993 128.54 158.535 125.817C159.077 123.093 160.414 120.591 162.378 118.627C164.342 116.663 166.844 115.326 169.568 114.784C172.292 114.242 175.115 114.52 177.681 115.583C180.247 116.646 182.44 118.445 183.983 120.755C185.526 123.064 186.349 125.779 186.349 128.556C186.345 132.279 184.865 135.848 182.232 138.481C179.6 141.114 176.03 142.594 172.307 142.598ZM172.307 118.638C170.346 118.638 168.428 119.219 166.797 120.309C165.166 121.399 163.895 122.948 163.144 124.76C162.393 126.573 162.197 128.567 162.579 130.491C162.962 132.415 163.907 134.182 165.294 135.569C166.681 136.956 168.448 137.901 170.372 138.284C172.296 138.666 174.29 138.47 176.103 137.719C177.915 136.969 179.464 135.697 180.554 134.066C181.644 132.435 182.226 130.518 182.226 128.556C182.223 125.926 181.177 123.405 179.318 121.546C177.458 119.686 174.937 118.64 172.307 118.638Z" fill="#263238" stroke="#263238" stroke-width="1.06068" stroke-miterlimit="10"/>
<path d="M182.031 126.579C181.57 124.341 180.353 122.33 178.584 120.884C176.815 119.437 174.602 118.644 172.317 118.638V114.514C175.553 114.522 178.688 115.645 181.194 117.692C183.7 119.74 185.424 122.588 186.077 125.758L182.031 126.579Z" fill="#FF7562" stroke="#263238" stroke-width="1.06068" stroke-miterlimit="10"/>
<path d="M108.649 98.9661H174.595" stroke="#263238" stroke-width="1.06068" stroke-miterlimit="10"/>
<path d="M108.649 98.9665V97.5627" stroke="#263238" stroke-width="1.06068" stroke-miterlimit="10"/>
<path d="M121.836 98.9665V97.5627" stroke="#263238" stroke-width="1.06068" stroke-miterlimit="10"/>
<path d="M135.029 98.9665V97.5627" stroke="#263238" stroke-width="1.06068" stroke-miterlimit="10"/>
<path d="M148.216 98.9665V97.5627" stroke="#263238" stroke-width="1.06068" stroke-miterlimit="10"/>
<path d="M161.402 98.9665V97.5627" stroke="#263238" stroke-width="1.06068" stroke-miterlimit="10"/>
<path d="M174.595 98.9665V97.5627" stroke="#263238" stroke-width="1.06068" stroke-miterlimit="10"/>
<path d="M119.991 80.2222H110.495V91.4665H119.991V80.2222Z" fill="#FF7562" stroke="#263238" stroke-width="1.06068" stroke-miterlimit="10"/>
<path d="M133.178 67.103H123.682V93.3415H133.178V67.103Z" fill="#FF7562" stroke="#263238" stroke-width="1.06068" stroke-miterlimit="10"/>
<path d="M146.37 48.7383H136.875V77.9785H146.37V48.7383Z" fill="#FF7562" stroke="#263238" stroke-width="1.06068" stroke-miterlimit="10"/>
<path d="M159.557 76.1035H150.062V81.7281H159.557V76.1035Z" fill="#FF7562" stroke="#263238" stroke-width="1.06068" stroke-miterlimit="10"/>
<path d="M172.745 72.7275H163.249V87.3476H172.745V72.7275Z" fill="#FF7562" stroke="#263238" stroke-width="1.06068" stroke-miterlimit="10"/>
<path d="M119.991 91.4717H110.495V98.9712H119.991V91.4717Z" fill="#263238" stroke="#263238" stroke-width="1.06068" stroke-miterlimit="10"/>
<path d="M133.178 93.3464H123.682V98.971H133.178V93.3464Z" fill="#263238" stroke="#263238" stroke-width="1.06068" stroke-miterlimit="10"/>
<path d="M146.37 77.9734H136.875V98.9661H146.37V77.9734Z" fill="#263238" stroke="#263238" stroke-width="1.06068" stroke-miterlimit="10"/>
<path d="M159.557 81.7234H150.062V98.9664H159.557V81.7234Z" fill="#263238" stroke="#263238" stroke-width="1.06068" stroke-miterlimit="10"/>
<path d="M172.745 87.3479H163.249V98.9663H172.745V87.3479Z" fill="#263238" stroke="#263238" stroke-width="1.06068" stroke-miterlimit="10"/>
<path d="M192.168 43.4292C192.054 43.43 191.942 43.4025 191.841 43.3491C191.74 43.2957 191.654 43.2181 191.59 43.1232L171.161 13.3293L150.435 35.4294L129.273 21.6351L108.8 26.3854L88.0062 43.2738C87.8619 43.391 87.677 43.4461 87.4921 43.427C87.3072 43.4079 87.1374 43.316 87.0202 43.1718C86.903 43.0275 86.8479 42.8426 86.867 42.6576C86.8861 42.4727 86.9779 42.303 87.1222 42.1858L108.168 25.0934L129.54 20.1342L150.222 33.6177L171.336 11.0999L192.746 42.3315C192.819 42.4363 192.861 42.559 192.869 42.6862C192.877 42.8135 192.85 42.9405 192.791 43.0535C192.732 43.1665 192.644 43.2613 192.535 43.3275C192.426 43.3937 192.301 43.4289 192.173 43.4292H192.168Z" fill="#263238"/>
<path d="M89.3225 42.7296C89.3225 43.0726 89.2208 43.4078 89.0303 43.693C88.8397 43.9781 88.5689 44.2004 88.2521 44.3316C87.9352 44.4629 87.5866 44.4972 87.2502 44.4303C86.9138 44.3634 86.6049 44.1983 86.3624 43.9557C86.1199 43.7132 85.9547 43.4043 85.8878 43.0679C85.8209 42.7315 85.8552 42.3829 85.9865 42.066C86.1177 41.7492 86.34 41.4784 86.6251 41.2878C86.9103 41.0973 87.2455 40.9956 87.5885 40.9956C88.0484 40.9956 88.4894 41.1783 88.8146 41.5035C89.1398 41.8287 89.3225 42.2697 89.3225 42.7296Z" fill="#FF7562"/>
<path d="M108.485 27.4734C109.442 27.4734 110.219 26.6971 110.219 25.7394C110.219 24.7817 109.442 24.0054 108.485 24.0054C107.527 24.0054 106.75 24.7817 106.75 25.7394C106.75 26.6971 107.527 27.4734 108.485 27.4734Z" fill="#FF7562"/>
<path d="M129.404 22.6165C130.362 22.6165 131.138 21.8401 131.138 20.8824C131.138 19.9248 130.362 19.1484 129.404 19.1484C128.446 19.1484 127.67 19.9248 127.67 20.8824C127.67 21.8401 128.446 22.6165 129.404 22.6165Z" fill="#FF7562"/>
<path d="M150.324 36.2551C151.282 36.2551 152.058 35.4788 152.058 34.5211C152.058 33.5635 151.282 32.7871 150.324 32.7871C149.366 32.7871 148.59 33.5635 148.59 34.5211C148.59 35.4788 149.366 36.2551 150.324 36.2551Z" fill="#FF7562"/>
<path d="M172.978 12.2169C172.978 12.5599 172.876 12.8951 172.686 13.1803C172.495 13.4654 172.224 13.6877 171.907 13.8189C171.591 13.9502 171.242 13.9845 170.905 13.9176C170.569 13.8507 170.26 13.6856 170.018 13.4431C169.775 13.2005 169.61 12.8916 169.543 12.5552C169.476 12.2188 169.511 11.8702 169.642 11.5533C169.773 11.2365 169.995 10.9657 170.28 10.7751C170.566 10.5846 170.901 10.4829 171.244 10.4829C171.704 10.4829 172.145 10.6656 172.47 10.9908C172.795 11.316 172.978 11.757 172.978 12.2169Z" fill="#FF7562"/>
<path d="M193.898 42.7296C193.898 43.0726 193.796 43.4078 193.605 43.693C193.415 43.9781 193.144 44.2004 192.827 44.3316C192.51 44.4629 192.162 44.4972 191.825 44.4303C191.489 44.3634 191.18 44.1983 190.938 43.9557C190.695 43.7132 190.53 43.4043 190.463 43.0679C190.396 42.7315 190.43 42.3829 190.562 42.066C190.693 41.7492 190.915 41.4784 191.2 41.2878C191.485 41.0973 191.821 40.9956 192.164 40.9956C192.624 40.9956 193.065 41.1783 193.39 41.5035C193.715 41.8287 193.898 42.2697 193.898 42.7296Z" fill="#FF7562"/>
<path d="M229.559 208C248.074 208 263.084 205.984 263.084 203.497C263.084 201.011 248.074 198.995 229.559 198.995C211.044 198.995 196.035 201.011 196.035 203.497C196.035 205.984 211.044 208 229.559 208Z" fill="#FF7562"/>
<path opacity="0.7" d="M229.559 208C248.074 208 263.084 205.984 263.084 203.497C263.084 201.011 248.074 198.995 229.559 198.995C211.044 198.995 196.035 201.011 196.035 203.497C196.035 205.984 211.044 208 229.559 208Z" fill="white"/>
<path d="M45.8904 208C62.9755 208 76.8258 205.984 76.8258 203.497C76.8258 201.011 62.9755 198.995 45.8904 198.995C28.8053 198.995 14.9551 201.011 14.9551 203.497C14.9551 205.984 28.8053 208 45.8904 208Z" fill="#FF7562"/>
<path opacity="0.7" d="M45.8904 208C62.9755 208 76.8258 205.984 76.8258 203.497C76.8258 201.011 62.9755 198.995 45.8904 198.995C28.8053 198.995 14.9551 201.011 14.9551 203.497C14.9551 205.984 28.8053 208 45.8904 208Z" fill="white"/>
<path d="M220.097 44.8768C220.097 44.8768 232.833 43.6431 233.561 45.7656C234.29 47.8882 234.047 52.7357 234.047 52.7357C234.688 52.9025 235.314 53.1251 235.917 53.4011C236.087 53.5663 237.971 54.8 236.213 56.8254C235.754 57.339 235.198 57.7567 234.576 58.0543C233.801 58.3975 233.063 58.8208 232.376 59.3172L229.821 62.2169L230.307 65.9521C230.307 65.9521 231.448 66.7778 232.842 69.6581C232.842 69.6581 236.135 71.6009 238.069 72.7035C239.658 73.5388 241.312 74.2469 243.013 74.8213C243.013 74.8213 243.897 75.1078 243.834 75.7441C243.771 76.3804 239.433 90.8014 239.433 90.8014L237.151 98.0871C237.107 98.9825 236.99 99.8727 236.801 100.749C236.475 102.318 235.251 103.347 233.984 103.027L234.11 108.37C234.11 108.37 228.155 111.347 218.334 110.842C218.334 110.842 213.71 110.395 210.29 107.865L210.227 95.3817L194.471 92.3314C194.471 92.3314 192.474 91.9088 193.499 90.1116C194.524 88.3145 197.968 83.8556 197.968 83.8556L209.037 70.3138C209.037 70.3138 209.8 69.4152 210.082 69.1286C210.363 68.8421 211.053 68.6429 213.788 68.4146C216.522 68.1864 219.587 67.6569 219.587 67.6569C219.587 67.6569 221.248 66.2289 221.486 66.2289C221.724 66.2289 221.773 64.0918 221.773 64.0918C220.933 63.4856 220.234 62.7044 219.725 61.8021C219.216 60.8999 218.909 59.8979 218.824 58.8654C218.586 55.3974 220.107 47.2714 220.107 47.2714L220.097 44.8768Z" fill="white"/>
<path d="M210.485 107.816C210.485 107.816 209.144 127.731 209.144 137.26C209.144 146.79 209.741 154.508 210.038 161.201C210.334 167.895 209.144 172.504 210.183 177.41C211.223 182.315 213.608 196.596 213.608 196.596L216.41 198.286C216.41 198.286 216.896 186.925 217.916 182.913C218.936 178.901 219.257 161.945 219.859 156.738C220.461 151.531 222.39 133.093 222.39 133.093C222.39 133.093 229.826 152.424 231.618 160.011C233.41 167.598 239.501 184.696 240.847 188.858C242.192 193.021 244.266 199.189 244.266 199.189C244.897 199.374 245.558 199.423 246.209 199.335C246.49 199.312 246.761 199.219 246.995 199.062C247.23 198.906 247.421 198.692 247.55 198.441C247.55 198.441 245.573 185.988 244.703 179.935C243.63 172.451 241.881 161.201 240.818 157.039C239.754 152.876 238.141 146.329 238.141 143.206C238.141 140.082 234.129 108.72 234.129 108.72C234.129 108.72 220.15 114.806 210.485 107.816Z" fill="#263238"/>
<path d="M222.38 133.093L216.415 126.138" stroke="white" stroke-width="0.530341" stroke-miterlimit="10" stroke-linecap="round"/>
<path d="M214.89 126.647L219.8 131.218" stroke="white" stroke-width="0.530341" stroke-miterlimit="10" stroke-linecap="round"/>
<path d="M225.387 127.157C226.644 123.976 228.981 121.338 231.988 119.707" stroke="white" stroke-width="0.530341" stroke-miterlimit="10" stroke-linecap="round"/>
<path d="M232.322 110.4C232.322 110.4 231.647 112.936 232.492 114.461C233.337 115.986 234.187 115.986 234.187 115.986C234.187 115.986 235.708 124.277 235.708 129.018C235.708 133.758 234.693 134.263 235.708 139.509C236.723 144.755 237.403 146.45 237.403 149.496C237.403 152.541 238.753 154.576 239.938 156.436C241.124 158.297 241.463 163.722 241.463 165.913C241.463 168.103 242.139 170.483 242.819 172.684C242.819 172.684 242.979 177.619 243.834 178.775C244.689 179.931 244.849 183.855 244.849 183.855" stroke="white" stroke-width="0.530341" stroke-miterlimit="10" stroke-linecap="round"/>
<path d="M221.156 132.403C221.156 132.403 221.491 136.289 220.306 143.065C219.121 149.841 218.276 151.696 218.106 159.482C217.936 167.268 218.616 168.623 218.276 172.684C217.936 176.744 215.905 183.161 215.905 186.075C215.905 188.989 216.216 198.305 216.216 198.305" stroke="white" stroke-width="0.530341" stroke-miterlimit="10" stroke-linecap="round"/>
<path d="M217.431 111.415L217.771 112.77L219.971 113.276L219.631 111.585" stroke="white" stroke-width="0.530341" stroke-miterlimit="10" stroke-linecap="round"/>
<path d="M219.98 113.276C219.98 113.276 224.041 113.106 226.071 112.431L225.586 111.075" stroke="white" stroke-width="0.530341" stroke-miterlimit="10" stroke-linecap="round"/>
<path d="M227.417 110.735L227.903 112.43C227.903 112.43 231.152 112.246 231.638 111.76" stroke="white" stroke-width="0.530341" stroke-miterlimit="10" stroke-linecap="round"/>
<path d="M217.77 112.77C216.648 112.735 215.548 112.444 214.555 111.92L213.03 111.075L213.516 109.89" stroke="white" stroke-width="0.530341" stroke-miterlimit="10" stroke-linecap="round"/>
<path d="M213.608 196.595C213.608 196.595 206.323 201.351 205.278 203.58C204.234 205.81 208.401 204.921 211.374 203.731C214.347 202.541 216.231 198.286 216.231 198.286L213.608 196.595Z" fill="white" stroke="#263238" stroke-width="1.06068" stroke-miterlimit="10" stroke-linecap="round"/>
<path d="M244.5 199.252C244.867 201.29 245.59 203.246 246.637 205.032C248.24 207.524 251.266 209.661 251.266 205.742C251.266 201.822 247.53 198.456 247.53 198.456C247.53 198.456 245.675 199.461 244.5 199.252Z" fill="white" stroke="#263238" stroke-width="1.06068" stroke-miterlimit="10" stroke-linecap="round"/>
<path d="M220.054 47.5676C220.054 47.5676 218.476 57.3597 219.01 59.7883C220.229 65.2235 224.508 64.9903 227.184 63.9509C229.686 62.9794 232.182 59.5454 232.503 59.0937C232.526 59.0618 232.558 59.038 232.595 59.0257C232.994 58.914 235.466 58.1271 236.554 56.2183C237.744 54.1345 235.514 53.2457 235.514 53.2457" fill="white"/>
<g style="mix-blend-mode:multiply" opacity="0.5">
<path d="M230.181 61.6149L232.542 59.0212C232.542 59.0212 235.334 58.1615 236.554 56.1943C237.268 55.0432 236.874 54.0377 236.442 53.7657C235.85 53.4451 235.238 53.1612 234.611 52.9157L233.819 54.6594L233.144 54.776C233.144 54.776 233.426 52.9789 232.61 51.9151C231.794 50.8514 231.609 47.772 231.609 47.772C231.609 47.772 230.468 53.9114 230.327 56.4809C230.29 57.9108 229.844 59.3002 229.04 60.4832C229.04 60.4832 229.185 62.0521 229.467 63.6209C229.501 63.8055 229.535 64.0824 229.569 64.4272L229.958 63.8055L230.171 64.3981C229.928 63.3781 229.817 62.2949 230.181 61.6149Z" fill="#FF7562"/>
</g>
<path d="M220.054 47.5676C220.054 47.5676 218.476 57.3597 219.01 59.7883C220.229 65.2235 224.508 64.9903 227.184 63.9509C229.686 62.9794 232.182 59.5454 232.503 59.0937C232.526 59.0618 232.558 59.038 232.595 59.0257C232.994 58.914 235.466 58.1271 236.554 56.2183C237.744 54.1345 235.514 53.2457 235.514 53.2457" stroke="#263238" stroke-width="1.06068" stroke-miterlimit="10" stroke-linecap="round"/>
<path d="M226.096 52.5462C226.004 52.9348 226.096 53.2845 226.276 53.3282C226.455 53.372 226.698 53.1 226.79 52.7162C226.883 52.3325 226.79 51.9828 226.611 51.9342C226.431 51.8857 226.188 52.1625 226.096 52.5462Z" fill="#263238"/>
<path d="M221.924 51.5315C221.831 51.92 221.924 52.2698 222.103 52.3135C222.283 52.3572 222.526 52.0852 222.618 51.7015C222.71 51.3178 222.618 50.9632 222.438 50.9195C222.259 50.8758 222.011 51.1429 221.924 51.5315Z" fill="#263238"/>
<path d="M228.685 50.8461C228.455 50.4422 228.129 50.1022 227.734 49.857C227.34 49.6119 226.89 49.4693 226.426 49.4424" stroke="#263238" stroke-width="1.06068" stroke-miterlimit="10" stroke-linecap="round"/>
<path d="M223.231 49.5153C222.848 49.3481 222.424 49.3014 222.015 49.3812C221.605 49.461 221.23 49.6637 220.938 49.9621" stroke="#263238" stroke-width="1.06068" stroke-miterlimit="10" stroke-linecap="round"/>
<path d="M223.512 51.2834C223.521 51.9341 223.472 52.5843 223.366 53.2263C223.206 54.0375 222.575 54.1977 222.735 54.8243C222.895 55.4509 223.706 55.514 223.706 55.514" stroke="#263238" stroke-width="1.06068" stroke-miterlimit="10" stroke-linecap="round"/>
<path d="M224.551 58.0445C224.895 58.154 225.258 58.1877 225.617 58.1433C225.975 58.0988 226.319 57.9773 226.625 57.7871" stroke="#263238" stroke-width="1.06068" stroke-miterlimit="10" stroke-linecap="round"/>
<path d="M232.245 40.7287C232.245 40.7287 228.976 37.9019 225.853 37.9019C222.73 37.9019 220.199 39.6893 218.266 39.8447C216.333 40.0002 214.997 38.2079 213.807 40.5879C212.617 42.9679 217.081 46.9848 220.053 47.5773C223.026 48.1699 227.189 47.2811 228.379 47.1305C229.519 47.0523 230.663 47.0523 231.803 47.1305C231.803 47.1305 230.909 49.9574 231.803 50.8511C232.697 51.7448 232.842 52.3374 232.842 52.93C232.893 53.584 232.992 54.2333 233.139 54.8728L234.032 55.174L234.479 53.5371C235.685 52.2513 236.509 50.6552 236.859 48.9276C237.301 46.2513 235.072 43.5847 235.072 43.5847L232.245 40.7287Z" fill="#263238"/>
<path d="M219.723 46.3582C219.723 46.3582 224.809 47.3297 228.792 45.6734C232.774 44.0171 229.34 40.7288 229.34 40.7288" stroke="white" stroke-width="0.530341" stroke-miterlimit="10" stroke-linecap="round"/>
<path d="M230.181 40.4521C230.594 40.4521 234.028 43.0605 233.338 44.9839C232.649 46.9073 231.279 47.0482 231.279 47.0482" stroke="white" stroke-width="0.530341" stroke-miterlimit="10" stroke-linecap="round"/>
<path d="M229.617 99.452L225.323 97.1886C224.22 97.1275 223.122 96.9846 222.04 96.7611C221.039 96.4746 210.771 95.4934 210.771 95.4934L210.616 97.922C210.616 97.922 222.326 99.4957 224.75 99.7823C227.174 100.069 229.321 101.21 229.748 101.924C230.176 102.638 231.035 103.352 230.608 105.324C230.18 107.296 227.324 110.182 227.324 110.182C227.188 109.978 234.192 109.472 234.124 108.724C233.974 107.238 233.182 102.896 233.182 102.896L229.617 99.452Z" fill="#FF7562"/>
<path opacity="0.5" d="M229.617 99.452L225.323 97.1886C224.22 97.1275 223.122 96.9846 222.04 96.7611C221.039 96.4746 210.771 95.4934 210.771 95.4934L210.616 97.922C210.616 97.922 222.326 99.4957 224.75 99.7823C227.174 100.069 229.321 101.21 229.748 101.924C230.176 102.638 231.035 103.352 230.608 105.324C230.18 107.296 227.324 110.182 227.324 110.182C227.213 109.963 234.207 109.468 234.124 108.724C233.896 106.83 233.182 102.896 233.182 102.896L229.617 99.452Z" fill="white"/>
<path d="M243.781 75.6909C243.402 73.9132 240.575 74.1511 238.87 73.1651C237.166 72.1791 233.042 69.8963 233.042 69.8963L231.045 66.8945C230.685 66.0852 230.394 65.2468 230.176 64.3882L229.962 63.7957L229.574 64.4174C229.821 67.0791 230.059 73.8937 230.059 73.8937L230.914 78.1777C230.914 78.1777 234.203 92.3121 235.057 95.4547C235.912 98.5973 235.912 100.734 235.344 101.735C234.776 102.736 234.965 103.192 234.965 103.192C234.965 103.192 237.195 101.468 237.059 99.7582C236.879 97.7473 244.048 76.8955 243.781 75.6909Z" fill="#FF7562"/>
<path opacity="0.5" d="M243.781 75.6909C243.587 73.884 240.575 74.1511 238.87 73.1651C237.165 72.1791 233.042 69.8963 233.042 69.8963L231.045 66.8945C230.685 66.0852 230.394 65.2468 230.176 64.3882L229.962 63.7957L229.574 64.4174C229.821 67.0791 230.059 73.8937 230.059 73.8937L230.914 78.1777C230.914 78.1777 234.203 92.3121 235.057 95.4547C235.912 98.5973 235.912 100.734 235.344 101.735C234.776 102.736 234.965 103.192 234.965 103.192C234.965 103.192 237.258 101.463 237.059 99.7582C236.83 97.927 243.956 77.1917 243.781 75.6909Z" fill="white"/>
<path d="M231.303 73.9084C231.303 73.9084 230.409 65.8795 229.962 63.7957C229.515 61.712 229.817 60.5269 227.883 60.5269C225.95 60.5269 223.57 60.2257 223.998 61.27C224.425 62.3143 227.398 61.4157 227.883 61.8626C228.369 62.3094 228.029 63.3489 228.029 63.3489C228.029 63.3489 224.143 63.65 224.143 64.6895C224.143 65.7289 224.294 68.5752 225.037 68.8521C225.78 69.1289 226.076 67.5163 226.076 67.5163C226.076 67.5163 226.227 70.9164 226.97 72.1258C227.444 72.8727 227.992 73.5693 228.607 74.2047L231.303 73.9084Z" fill="white" stroke="#263238" stroke-width="1.06068" stroke-miterlimit="10" stroke-linecap="round"/>
<path d="M228.626 76.1377C228.626 76.1377 228.18 94.595 228.923 97.553C229.666 100.511 233.683 104.542 235.762 102.609C237.84 100.676 236.806 96.5136 236.806 94.5804C236.806 92.6473 232.046 78.372 232.046 77.3277C231.975 76.4605 231.774 75.609 231.448 74.802" stroke="#263238" stroke-width="1.06068" stroke-miterlimit="10" stroke-linecap="round"/>
<path d="M228.922 78.3722L231.895 78.071" stroke="#263238" stroke-width="1.06068" stroke-miterlimit="10" stroke-linecap="round"/>
<path d="M209.911 87.6005L210.484 71.1784C210.484 71.1784 209.77 70.751 209.484 72.3199C209.197 73.8887 209.056 77.0362 209.056 77.0362C209.056 77.0362 205.627 74.8942 206.487 76.1765C207.347 77.4587 208.77 80.3196 208.77 80.3196L203.466 85.5994L205.894 86.5999L209.911 87.6005Z" fill="#FF7562"/>
<path opacity="0.5" d="M209.911 87.6005L210.484 71.1784C210.484 71.1784 209.77 70.751 209.484 72.3199C209.197 73.8887 209.056 77.0362 209.056 77.0362C209.056 77.0362 205.627 74.8942 206.487 76.1765C207.347 77.4587 208.77 80.3196 208.77 80.3196L203.466 85.5994L205.894 86.5999L209.911 87.6005Z" fill="white"/>
<path d="M217.022 74.8456C217.022 74.8456 216.75 75.817 217.892 75.817C219.033 75.817 221.039 75.0059 221.039 75.0059L220.894 73.3933C220.894 73.3933 218.149 74.729 217.022 74.8456Z" fill="#FF7562"/>
<path opacity="0.5" d="M217.022 74.8456C217.022 74.8456 216.75 75.817 217.892 75.817C219.033 75.817 221.039 75.0059 221.039 75.0059L220.894 73.3933C220.894 73.3933 218.149 74.729 217.022 74.8456Z" fill="white"/>
<path d="M221.923 63.9849C221.923 63.9849 220.437 72.7278 221.331 74.6706C222.225 76.6135 223.56 76.1569 224.6 75.2681C225.639 74.3792 226.98 72.1449 226.98 72.1449" stroke="#263238" stroke-width="1.06068" stroke-miterlimit="10" stroke-linecap="round"/>
<path d="M210.184 95.6196L210.485 107.816C210.485 107.816 213.885 111.085 220.447 111.085C227.009 111.085 234.129 108.705 234.129 108.705V104.392" stroke="#263238" stroke-width="1.06068" stroke-miterlimit="10" stroke-linecap="round"/>
<path d="M230.263 65.7288C230.263 65.7288 232.939 68.4051 232.939 70.9357C232.939 73.4662 232.493 74.0588 232.493 74.0588" stroke="#263238" stroke-width="1.06068" stroke-miterlimit="10" stroke-linecap="round"/>
<path d="M232.639 69.4492C232.639 69.4492 236.656 71.8244 238.885 73.165C241.114 74.5055 243.796 74.5007 243.796 75.6907C243.796 76.8807 237.549 97.106 237.549 97.106" stroke="#263238" stroke-width="1.06068" stroke-miterlimit="10" stroke-linecap="round"/>
<path d="M235.169 76.1377L233.683 82.0877" stroke="#263238" stroke-width="1.06068" stroke-miterlimit="10" stroke-linecap="round"/>
<path d="M210.223 79.6299L207.818 74.5881" stroke="#263238" stroke-width="0.530341" stroke-miterlimit="10" stroke-linecap="round"/>
<path d="M210.223 81.0726L206.619 78.9111" stroke="#263238" stroke-width="0.530341" stroke-miterlimit="10" stroke-linecap="round"/>
<path d="M221.982 92.3511L221.263 95.9551" stroke="#263238" stroke-width="0.530341" stroke-miterlimit="10" stroke-linecap="round"/>
<path d="M241.425 75.5498C241.425 75.5498 237.826 76.2687 234.464 80.3487" stroke="#263238" stroke-width="0.530341" stroke-miterlimit="10" stroke-linecap="round"/>
<path d="M239.025 75.3312C239.025 75.3312 238.054 75.0884 234.707 77.9687" stroke="#263238" stroke-width="0.530341" stroke-miterlimit="10" stroke-linecap="round"/>
<path d="M221.982 76.5115L220.544 87.7898L221.744 88.0327L222.706 84.4335" stroke="#263238" stroke-width="0.530341" stroke-miterlimit="10" stroke-linecap="round"/>
<path d="M222.944 106.033C218.621 109.637 212.622 109.395 212.622 109.395" stroke="#263238" stroke-width="0.530341" stroke-miterlimit="10" stroke-linecap="round"/>
<path d="M204.676 86.4447C204.676 86.4447 201.737 83.7538 197.575 87.1782" stroke="#263238" stroke-width="0.530341" stroke-miterlimit="10" stroke-linecap="round"/>
<path d="M221.637 66.1755C221.637 66.1755 220.447 66.4718 219.106 68.5556C217.766 70.6393 216.134 74.2044 217.324 74.5007C218.514 74.797 220.724 73.4613 220.724 73.4613" stroke="#263238" stroke-width="1.06068" stroke-miterlimit="10" stroke-linecap="round"/>
<path d="M226.247 74.0588L227.733 75.3946" stroke="#263238" stroke-width="1.06068" stroke-miterlimit="10" stroke-linecap="round"/>
<path d="M219.553 67.6619C219.553 67.6619 214.05 68.405 211.821 68.5556C209.591 68.7062 210.024 69.527 209.295 70.0419C208.12 70.8627 194.636 87.9551 193.752 89.592C192.868 91.2289 193.009 91.972 194.495 92.4189C195.982 92.8657 210.786 95.4692 210.786 95.4692L223.867 96.8098L224.906 93.536C224.906 93.536 227.947 93.9392 228.481 93.9392" stroke="#263238" stroke-width="1.06068" stroke-miterlimit="10" stroke-linecap="round"/>
<path d="M223.42 92.3314C220.533 91.494 217.743 90.3543 215.095 88.9314" stroke="#263238" stroke-width="1.06068" stroke-miterlimit="10" stroke-linecap="round"/>
<path d="M213.904 88.6304C213.904 88.6304 209.533 87.0081 207.168 86.7118C204.802 86.4155 201.179 86.3184 201.179 86.3184" stroke="#263238" stroke-width="1.06068" stroke-miterlimit="10" stroke-linecap="round"/>
<path d="M209.887 86.6973L210.334 74.9478" stroke="#263238" stroke-width="1.06068" stroke-miterlimit="10" stroke-linecap="round"/>
<path d="M223.866 96.8098C224.887 97.3229 225.956 97.7329 227.057 98.0338" stroke="#263238" stroke-width="1.06068" stroke-miterlimit="10" stroke-linecap="round"/>
<path d="M29.2542 87.3428L31.0077 77.7596L42.1063 73.3881C42.1063 73.3881 42.6455 70.4107 43.1895 70.2795C43.7335 70.1484 44.2677 68.9244 44.2677 68.9244L44.0006 66.4715C44.0006 66.4715 45.0157 62.5857 50.1206 65.6118C50.1206 65.6118 48.5761 66.6415 48.8432 67.0689C49.1104 67.4963 48.5469 68.8564 49.2221 68.8564C49.8972 68.8564 51.2621 69.7161 51.9518 70.4106C52.4345 70.9293 52.8611 71.4975 53.2244 72.1058L58.9704 72.4361C59.5594 72.441 60.1454 72.521 60.7141 72.6741C60.8113 69.8666 60.4664 67.7246 59.7864 66.0586C57.3141 60.0454 52.8067 57.8986 52.1607 54.8871C51.5147 51.8757 51.8401 51.56 51.8401 51.56C52.4969 50.8921 52.9779 50.0717 53.2398 49.1723C53.5017 48.2729 53.5365 47.3226 53.3409 46.4065C52.6998 43.1862 50.2275 40.9276 41.3146 40.5002C32.4017 40.0727 33.6937 46.1879 33.6937 46.1879L33.8005 46.6154C33.8005 46.6154 28.1079 48.5582 29.1862 55.742C30.2645 62.9257 33.3731 66.0489 33.2662 68.3026C33.1594 70.5564 29.8274 71.4161 25.1013 76.5598C20.3753 81.7036 19.4136 89.4411 21.3467 94.4877C22.3182 96.9697 24.2173 99.0388 26.6022 100.583L29.2542 87.3428Z" fill="#263238"/>
<path d="M36.6956 88.2903V90.4566L32.5815 103.168C35.1523 103.848 37.8483 103.905 40.4453 103.333C41.9113 102.951 43.3124 102.353 44.603 101.56L36.6956 88.2903Z" fill="#263238"/>
<path d="M48.5228 66.9911L49.0085 69.1768C49.0085 69.1768 50.4657 67.7197 53.312 72.1445C53.312 72.1445 59.228 72.0037 60.8406 72.81C60.8406 72.81 61.1757 72.9071 62.2686 74.068C63.3615 75.2288 67.4706 78.9252 67.4706 78.9252C67.4706 78.9252 72.7455 83.8212 73.2701 84.2C73.7947 84.5789 75.7618 86.4586 77.2336 87.1144L81.1776 78.1334L82.9359 73.6891L83.9073 70.0317H84.2182L84.2862 67.0834L84.0482 63.5668C84.0869 63.3879 84.1686 63.2212 84.2862 63.0811C84.6934 62.5166 85.0067 61.8901 85.2139 61.2256C85.2139 60.8953 84.8788 58.9427 84.8788 58.9427C84.8788 58.9427 84.7136 58.457 85.073 58.3987C85.4325 58.3405 86.7585 58.8019 86.9236 59.7296L87.4093 59.5645C87.8116 58.6034 88.313 57.6869 88.9053 56.8299C89.6922 55.8099 90.4985 55.1687 90.9988 55.499C91.1361 55.5937 91.235 55.7343 91.2778 55.8955C91.3205 56.0567 91.3043 56.2279 91.2319 56.3782L89.6679 59.2536C89.6679 59.2536 88.9782 60.1813 89.8331 60.5116C89.8331 60.5116 91.6836 61.7016 91.8051 62.7459C91.9265 63.7902 91.2562 64.6888 90.6637 65.4562C90.0711 66.2236 89.0268 67.8848 89.0268 67.8848L87.8125 68.9582L87.3268 70.8088L87.8999 71.5228L87.0451 75.2288L86.4282 78.0072L86.1173 79.6926L84.1745 86.3469L82.2316 92.1464C82.2316 92.1464 81.231 95.4687 78.8073 95.3764C76.3836 95.2841 73.7267 93.9727 72.867 93.5453C72.0072 93.1178 64.9206 89.4167 64.9206 89.4167L63.4635 88.7269C63.6579 89.3903 63.7416 90.0812 63.7112 90.7718C63.6869 92.0541 62.3075 94.881 61.9043 95.5221L61.6663 100.535C61.5722 101.404 61.5886 102.282 61.7149 103.148C61.9286 104.454 63.0215 111.847 63.2595 112.77C63.2595 112.77 60.8989 114.907 53.8657 115.922C46.8325 116.937 43.5393 115.291 43.5393 115.291L40.4065 113.45L44.2679 105.819C44.2679 105.819 45.2393 103.551 45.1422 102.954C45.0451 102.356 43.3839 99.7819 43.3839 99.7819L37.2881 88.9309L37.0016 89.0281L36.0544 92.195L32.6301 102.934L28.1227 116.34C28.1227 116.34 26.8889 119.74 26.3789 120.745L24.9558 125.083C25.0348 125.858 25.2263 126.617 25.5241 127.337L21.9443 125.02L22.5806 121.62L23.3723 116.549L24.3438 111.036L25.1986 106.475L26.5635 100.394L27.0492 98.7133L28.0207 93.963L29.7304 85.3463L31.1875 77.9683L41.3876 73.9126L42.0239 73.4268C42.1654 72.4878 42.5102 71.591 43.0342 70.7991C43.3979 70.2781 43.8309 69.8091 44.3213 69.4051C44.3213 69.4051 44.2728 68.7688 44.2388 68.1665C44.2048 67.5642 44.0493 66.4568 44.0493 66.4568C44.0493 66.4568 47.2016 67.8119 48.5228 66.9911Z" fill="white"/>
<path d="M34.8594 47.4701C34.8594 47.4701 36.7488 43.2881 40.5277 43.2881C44.3066 43.2881 52.1315 50.7098 52.1315 50.7098" stroke="white" stroke-width="0.530341" stroke-miterlimit="10" stroke-linecap="round"/>
<path d="M36.4766 48.131C36.4766 48.131 38.7691 45.7024 41.6057 46.6447C44.4423 47.587 44.8455 50.9627 44.8455 50.9627" stroke="white" stroke-width="0.530341" stroke-miterlimit="10" stroke-linecap="round"/>
<path d="M34.5868 48.5486C34.5868 48.5486 31.216 50.438 30.9439 53.9498C30.6719 57.4615 35.6651 61.6387 36.3403 66.3647C37.0154 71.0907 33.5085 72.1642 27.8402 76.079C22.1719 79.9939 23.119 88.7611 24.3333 90.6506" stroke="white" stroke-width="0.530341" stroke-miterlimit="10" stroke-linecap="round"/>
<path d="M25.0093 91.7339C25.0093 91.7339 25.8156 93.4873 27.0299 94.0265" stroke="white" stroke-width="0.530341" stroke-miterlimit="10" stroke-linecap="round"/>
<path d="M34.9957 57.7239C34.8361 58.0666 34.7645 58.4438 34.7874 58.8212C34.8103 59.1986 34.927 59.5644 35.1269 59.8853C35.802 61.0996 40.9555 67.1711 40.528 70.0077C40.1006 72.8443 37.4243 74.5928 37.4243 74.5928" stroke="white" stroke-width="0.530341" stroke-miterlimit="10" stroke-linecap="round"/>
<path d="M37.5551 48.5486C37.5551 48.5486 34.4513 49.8989 34.5874 53.0026C34.7234 56.1063 35.3985 56.9175 35.3985 56.9175" stroke="white" stroke-width="0.530341" stroke-miterlimit="10" stroke-linecap="round"/>
<path d="M52.1318 58.8169C53.0962 61.0001 54.4195 63.0064 56.0467 64.7524C58.4753 67.1809 58.7425 70.6927 58.7425 70.6927" stroke="white" stroke-width="0.530341" stroke-miterlimit="10" stroke-linecap="round"/>
<path d="M54.9629 66.4958C54.9629 66.4958 56.1772 69.3324 56.1772 71.0859" stroke="white" stroke-width="0.530341" stroke-miterlimit="10" stroke-linecap="round"/>
<path d="M48.2456 67.2488L44.4327 70.6828C44.4327 70.6828 44.0247 71.7223 43.2573 73.3883C42.4899 75.0543 42.6161 78.2455 42.6161 78.2455L44.967 82.9229C44.967 82.9229 40.445 77.7355 40.1876 77.0943C39.9301 76.4532 35.1992 77.6092 34.3055 77.9929C33.4118 78.3766 32.2558 79.1441 32.5132 80.2952C32.7706 81.4464 33.9218 82.9764 33.4069 83.2338C32.8921 83.4912 31.4884 82.8501 31.4884 83.6175C31.4884 84.3849 33.1544 87.3284 32.3869 88.3484C31.6195 89.3684 26.7575 105.873 26.7575 105.873C26.7575 105.873 29.8272 103.313 29.0598 104.338C28.2923 105.363 24.5863 113.674 24.5863 113.674L23.1777 118.531L26.5049 101.268L29.3172 86.697L31.0075 77.7598C32.6395 77.2158 42.1061 73.3883 42.1061 73.3883C42.1061 73.3883 42.8541 70.2408 44.2676 68.9246L44.0004 66.4717C44.0004 66.4717 46.5796 67.3751 48.2456 67.2488Z" fill="#FF7562"/>
<path opacity="0.5" d="M48.2456 67.2488L44.4327 70.6828C44.4327 70.6828 44.0247 71.7223 43.2573 73.3883C42.4899 75.0543 42.6161 78.2455 42.6161 78.2455L44.967 82.9229C44.967 82.9229 40.445 77.7355 40.1876 77.0943C39.9301 76.4532 35.1992 77.6092 34.3055 77.9929C33.4118 78.3766 32.2558 79.1441 32.5132 80.2952C32.7706 81.4464 33.9218 82.9764 33.4069 83.2338C32.8921 83.4912 31.4884 82.8501 31.4884 83.6175C31.4884 84.3849 33.1544 87.3284 32.3869 88.3484C31.6195 89.3684 26.7575 105.873 26.7575 105.873C26.7575 105.873 29.8272 103.313 29.0598 104.338C28.2923 105.363 24.5863 113.674 24.5863 113.674L23.1777 118.531L26.5049 101.268L29.3172 86.697L31.0075 77.7598C32.6395 77.2158 42.1061 73.3883 42.1061 73.3883C42.1061 73.3883 42.3101 70.474 44.2724 69.454L44.0004 66.4717C44.0004 66.4717 46.5796 67.3751 48.2456 67.2488Z" fill="white"/>
<path d="M62.4385 84.5112C62.4385 84.5112 64.7408 80.6789 64.9982 81.5726C65.2556 82.4663 64.3571 85.5312 64.3571 85.5312C64.3571 85.5312 66.7857 84.6375 66.5331 85.4049C66.2805 86.1724 65.7656 86.5561 65.8919 86.9398C66.0182 87.3235 74.3337 91.6707 75.3586 92.1807C76.3834 92.6907 78.812 89.7521 79.9632 90.6458C81.1143 91.5395 79.9632 94.6044 77.6609 94.6093C75.3586 94.6141 68.7091 91.695 68.7091 91.695L63.4731 88.6495" fill="#FF7562"/>
<path opacity="0.5" d="M62.4385 84.5112C62.4385 84.5112 64.7408 80.6789 64.9982 81.5726C65.2556 82.4663 64.3571 85.5312 64.3571 85.5312C64.3571 85.5312 66.7857 84.6375 66.5331 85.4049C66.2805 86.1724 65.7656 86.5561 65.8919 86.9398C66.0182 87.3235 74.3337 91.6707 75.3586 92.1807C76.3834 92.6907 78.812 89.7521 79.9632 90.6458C81.1143 91.5395 79.9632 94.6044 77.6609 94.6093C75.3586 94.6141 68.7091 91.695 68.7091 91.695L63.4925 88.6592" fill="white"/>
<path d="M48.6294 99.9861C48.6294 99.9861 63.5798 92.0592 61.1512 94.9978C58.7226 97.9364 50.6743 101.268 48.6294 99.9861Z" fill="#FF7562"/>
<path opacity="0.5" d="M48.6294 99.9861C48.6294 99.9861 63.5798 92.0592 61.1512 94.9978C58.7226 97.9364 50.6743 101.268 48.6294 99.9861Z" fill="white"/>
<path d="M44.0005 66.4958C44.0005 66.4958 44.1073 68.5359 44.4328 70.6827C44.7582 72.8296 44.6465 72.8296 46.6865 75.4039C48.7265 77.9782 50.8734 80.1299 51.194 79.7025" stroke="#263238" stroke-width="1.06068" stroke-miterlimit="10" stroke-linecap="round"/>
<path d="M51.3009 78.9498C51.3009 78.9498 51.5146 75.1903 50.7666 72.7229C50.0186 70.2554 48.9403 69.3908 48.9403 68.8371C48.904 68.2602 48.8326 67.686 48.7266 67.1177" stroke="#263238" stroke-width="1.06068" stroke-miterlimit="10" stroke-linecap="round"/>
<path d="M44.0007 69.6094C43.1428 70.3819 42.5426 71.3991 42.2813 72.5237C41.9607 74.2383 41.6401 76.2783 41.6401 76.2783L44.9673 82.9375C45.257 81.7779 45.6893 80.6586 46.2545 79.6054C46.5343 79.0856 46.8969 78.6148 47.3279 78.2114" stroke="#263238" stroke-width="1.06068" stroke-miterlimit="10" stroke-linecap="round"/>
<path d="M52.0542 77.1235C52.2891 77.0647 52.5333 77.0533 52.7727 77.09C53.0121 77.1267 53.2417 77.2107 53.4482 77.3372C54.3079 77.7695 56.0273 80.0232 56.0273 80.0232C56.0273 80.0232 54.8471 74.4375 52.807 71.5426C50.767 68.6477 49.3682 68.8566 49.3682 68.8566" stroke="#263238" stroke-width="1.06068" stroke-miterlimit="10" stroke-linecap="round"/>
<path d="M41.3146 73.7964L31.0077 77.7598C31.0077 77.7598 27.2531 98.2668 25.8542 103.741C24.4553 109.215 22.0996 124.68 22.0996 124.68L24.8876 125.214L25.8591 122.426" stroke="#263238" stroke-linecap="round" stroke-linejoin="round"/>
<path d="M26.3936 120.823C26.3936 120.823 27.0347 119.852 28.7541 114.509C30.4736 109.166 35.0685 96.0518 35.8408 93.4629C36.613 90.8741 37.2348 89.1692 37.2348 89.1692" stroke="#263238" stroke-width="1.06068" stroke-miterlimit="10" stroke-linecap="round"/>
<path d="M35.4087 86.0168C35.4087 86.0168 44.103 101.56 44.8559 102.23C45.6088 102.9 44.5353 104.698 44.3167 105.664" stroke="#263238" stroke-width="1.06068" stroke-miterlimit="10" stroke-linecap="round"/>
<path d="M43.3544 107.617L40.5664 113.416C40.5664 113.416 42.3927 116.209 50.1205 116.209C54.7194 116.223 59.2524 115.116 63.3271 112.984C63.3271 112.984 61.5008 103.323 61.6077 101.604C61.7145 99.8841 61.9331 95.3766 61.9331 95.3766C61.9331 95.3766 63.876 92.4623 63.6477 90.2232C63.4194 87.984 62.4674 85.3903 62.4674 84.9629C62.4674 84.5354 62.2537 79.9163 62.2537 79.9163" stroke="#263238" stroke-width="1.06068" stroke-miterlimit="10" stroke-linecap="round"/>
<path d="M50.1064 98.0722L57.8002 93.3511" stroke="#263238" stroke-width="0.530341" stroke-miterlimit="10" stroke-linecap="round"/>
<path d="M54.1567 96.5907L58.3388 94.1621" stroke="#263238" stroke-width="0.530341" stroke-miterlimit="10" stroke-linecap="round"/>
<path d="M77.1802 87.2166L75.6113 91.0586" stroke="#263238" stroke-width="0.530341" stroke-miterlimit="10" stroke-linecap="round"/>
<path d="M76.5532 88.8972L75.0718 90.3835" stroke="#263238" stroke-width="0.530341" stroke-miterlimit="10" stroke-linecap="round"/>
<path d="M32.6984 102.531C32.6984 102.531 30.1338 105.499 28.3804 106.713" stroke="#263238" stroke-width="0.530341" stroke-miterlimit="10" stroke-linecap="round"/>
<path d="M31.2164 103.337C31.2164 103.337 26.7624 106.844 25.6841 107.655" stroke="#263238" stroke-width="0.530341" stroke-miterlimit="10" stroke-linecap="round"/>
<path d="M32.0083 78.3718C33.351 80.2703 34.5679 82.2546 35.6512 84.3122" stroke="#263238" stroke-width="0.530341" stroke-miterlimit="10" stroke-linecap="round"/>
<path d="M36.0742 85.2544L37.0165 86.8718" stroke="#263238" stroke-width="0.530341" stroke-miterlimit="10" stroke-linecap="round"/>
<path d="M62.4678 84.9629L63.6481 78.9497" stroke="#263238" stroke-width="0.530341" stroke-miterlimit="10" stroke-linecap="round"/>
<path d="M62.8994 85.3905L64.7209 82.8162" stroke="#263238" stroke-width="0.530341" stroke-miterlimit="10" stroke-linecap="round"/>
<path d="M37.2345 89.1498L32.0811 86.3569" stroke="#263238" stroke-width="0.530341" stroke-miterlimit="10" stroke-linecap="round"/>
<path d="M51.0869 80.2371C51.0869 80.2371 53.0298 84.1228 53.6661 86.8962" stroke="#263238" stroke-width="0.530341" stroke-miterlimit="10" stroke-linecap="round"/>
<path d="M82.9746 73.471C83.4885 73.4331 84.0048 73.4997 84.4923 73.6666C84.9798 73.8336 85.4284 74.0975 85.8112 74.4425" stroke="#263238" stroke-width="0.530341" stroke-miterlimit="10" stroke-linecap="round"/>
<path d="M23.9648 122.013L25.2957 122.509" stroke="#263238" stroke-width="0.530341" stroke-miterlimit="10" stroke-linecap="round"/>
<path d="M22.0657 124.874C22.0824 126.721 21.9851 128.567 21.7743 130.402C21.4537 132.66 21.5606 137.814 21.988 139.422C22.4154 141.029 22.634 141.364 23.0614 140.393C23.4889 139.422 24.7809 133.739 24.7809 133.739C24.7809 133.739 24.9946 137.493 25.9612 137.173C26.9277 136.852 26.3935 135.026 26.3935 133.413C26.3935 131.801 26.5003 131.266 26.3935 129.979C26.2866 128.692 24.8537 125.511 24.8537 125.511" fill="white"/>
<path d="M22.0657 124.874C22.0824 126.721 21.9851 128.567 21.7743 130.402C21.4537 132.66 21.5606 137.814 21.988 139.422C22.4154 141.029 22.634 141.364 23.0614 140.393C23.4889 139.422 24.7809 133.739 24.7809 133.739C24.7809 133.739 24.9946 137.493 25.9612 137.173C26.9277 136.852 26.3935 135.026 26.3935 133.413C26.3935 131.801 26.5003 131.266 26.3935 129.979C26.2866 128.692 24.8537 125.511 24.8537 125.511" stroke="#263238" stroke-miterlimit="10" stroke-linecap="round"/>
<path d="M84.2274 69.9493C84.1785 68.9996 84.1785 68.0479 84.2274 67.0982C84.3148 66.2044 83.9602 64.8687 84.0477 63.6981C84.1351 62.5276 85.296 62.0953 85.1163 60.5798C84.9365 59.0644 84.582 58.8847 84.8491 58.5301C85.1163 58.1755 86.792 58.705 86.8988 59.6861C86.994 60.6958 86.994 61.7122 86.8988 62.7219C86.8114 62.989 87.4331 64.6647 87.0786 65.3933C86.8754 65.788 86.7252 66.2077 86.6317 66.6416" stroke="#263238" stroke-width="0.880843" stroke-miterlimit="10" stroke-linecap="round"/>
<path d="M87.2583 59.6085C87.2583 59.6085 89.308 55.5091 90.4689 55.4168C91.6297 55.3245 91.2703 56.3882 90.9109 56.9322C90.5515 57.4762 89.3955 59.4288 89.308 60.2351C89.2206 61.0414 88.1472 63.708 88.1472 63.708" stroke="#263238" stroke-width="0.880843" stroke-miterlimit="10" stroke-linecap="round"/>
<path d="M89.3229 60.2351C89.3229 60.2351 92.4461 62.1051 91.7515 63.6351C91.057 65.1651 90.6781 65.7771 90.1438 65.578C89.6701 65.3359 89.2465 65.0063 88.8955 64.6066" stroke="#263238" stroke-width="0.880843" stroke-miterlimit="10" stroke-linecap="round"/>
<path d="M90.4687 65.583C90.4687 65.583 89.6624 66.9187 89.0407 67.725C88.6832 68.1907 88.2593 68.6014 87.7827 68.9442L87.4038 70.2605" stroke="#263238" stroke-width="0.880843" stroke-miterlimit="10" stroke-linecap="round"/>
<path d="M53.02 72.0768C53.02 72.0768 60.4272 71.9699 61.3938 73.1502C62.3604 74.3305 74.0662 85.0697 75.4796 86.0363C76.893 87.0029 77.199 87.2166 77.199 87.2166C77.199 87.2166 82.9936 74.1022 82.9936 73.4708C82.9936 72.8394 83.9651 69.9299 83.9651 69.9299C83.9651 69.9299 85.7914 70.1436 86.2237 70.1436C86.6559 70.1436 87.8314 71.5425 87.8314 71.5425C87.8314 71.5425 86.2237 78.09 86.2237 78.8283C86.2237 79.5666 83.2171 89.7812 81.8182 92.9141C80.4193 96.047 78.491 95.5952 75.3776 94.6287C72.2641 93.6621 63.7835 88.8341 63.7835 88.8341" stroke="#263238" stroke-width="1.06068" stroke-miterlimit="10" stroke-linecap="round"/>
<path d="M40.5661 113.416C40.5661 113.416 36.2675 124.17 35.1066 131.49C33.9457 138.81 34.4412 155.926 34.106 157.757C33.7709 159.589 29.1177 168.229 29.1177 172.387C29.1177 176.545 26.626 197.989 26.626 197.989L28.2871 198.985C28.2871 198.985 34.1157 181.014 36.2675 176.375C38.4192 171.736 41.4209 160.749 42.2515 158.588C43.0821 156.427 48.9058 139.135 49.2361 136.974C49.5664 134.812 51.5627 129.493 51.5627 129.493C51.5627 129.493 55.8856 155.926 56.7162 161.415C57.5467 166.903 63.3656 196.658 63.3656 196.658C63.7478 196.752 64.1383 196.807 64.5314 196.824C65.0171 196.824 65.1968 195.993 65.1968 195.993C65.1968 195.993 67.5234 174.879 66.858 169.225C66.1925 163.571 64.2011 156.597 64.2011 154.595C64.2011 152.594 67.1931 135.312 67.1931 129.338C67.1931 123.364 63.3074 112.994 63.3074 112.994C63.3074 112.994 49.5178 119.949 40.5661 113.416Z" fill="#263238"/>
<path d="M64.1382 155.693C64.1382 155.693 62.6568 162.037 60.6313 165.407" stroke="white" stroke-width="0.530341" stroke-miterlimit="10" stroke-linecap="round"/>
<path d="M63.7352 162.172C63.7352 162.172 62.5209 166.758 60.0923 168.919" stroke="white" stroke-width="0.530341" stroke-miterlimit="10" stroke-linecap="round"/>
<path d="M34.9951 160.147C34.9951 160.147 35.9374 165.68 37.0157 167.972" stroke="white" stroke-width="0.530341" stroke-miterlimit="10" stroke-linecap="round"/>
<path d="M34.7231 163.387C34.7231 163.387 35.5343 167.302 37.0157 169.594" stroke="white" stroke-width="0.530341" stroke-miterlimit="10" stroke-linecap="round"/>
<path d="M51.9951 129.517L57.3914 125.063" stroke="white" stroke-width="0.530341" stroke-miterlimit="10" stroke-linecap="round"/>
<path d="M54.5605 127.628L60.904 124.792" stroke="white" stroke-width="0.530341" stroke-miterlimit="10" stroke-linecap="round"/>
<path d="M40.6587 120.071C40.6587 120.071 44.8456 122.766 47.2742 125.064" stroke="white" stroke-width="0.530341" stroke-miterlimit="10" stroke-linecap="round"/>
<path d="M26.8016 197.975C26.8016 197.975 20.4873 203.317 20.4873 205.97C20.4873 208.622 22.979 208.461 25.6408 205.97C28.3025 203.478 28.4385 198.344 28.4385 198.344L26.8016 197.975Z" fill="white" stroke="#263238" stroke-width="1.06068" stroke-miterlimit="10" stroke-linecap="round"/>
<path d="M63.3662 196.658C63.3662 196.658 65.5277 201.977 67.8591 204.308C70.1905 206.64 71.5166 207.466 71.5166 204.969C71.5166 202.472 70.0205 199.65 65.2022 195.993C65.1974 195.993 66.5282 196.989 63.3662 196.658Z" fill="white" stroke="#263238" stroke-width="1.06068" stroke-miterlimit="10" stroke-linecap="round"/>
<path d="M41.0616 49.4424C40.6293 49.2821 40.2213 49.0878 39.7987 48.9081C39.3762 48.7284 38.6039 48.6312 38.3124 49.9572C37.8802 51.9001 40.8867 53.503 39.9202 55.1107C39.3189 56.0888 38.4151 56.8442 37.3459 57.2624C37.1718 57.3223 36.9904 57.3582 36.8067 57.3693C35.947 57.4761 34.553 57.3693 34.9804 58.8701C35.4079 60.371 36.8067 61.663 37.6664 61.663H38.5262C38.5262 61.663 39.4976 64.5773 43.1405 66.1705C46.7834 67.7636 49.2605 67.6762 50.1202 65.6362C50.98 63.5962 51.626 61.8767 51.626 59.1907C51.626 56.5047 50.6545 51.9972 50.6545 51.9972C50.6545 51.9972 49.7948 53.1824 46.4676 51.6767C44.2673 50.6809 42.2079 49.8747 41.0616 49.4424Z" fill="white"/>
<g style="mix-blend-mode:multiply" opacity="0.5">
<path d="M46.473 51.6769C46.473 51.6769 41.339 51.3903 40.5716 51.5166C39.8041 51.6429 40.6978 53.9452 40.4453 56.2475C40.1927 58.5498 40.3141 62.2607 41.339 63.4118C42.5484 64.5988 43.8299 65.7099 45.1762 66.739C45.1762 66.739 41.237 66.1027 39.8041 64.4367C38.3713 62.7707 38.143 61.8769 38.143 61.8769C38.143 61.8769 34.8158 59.9341 34.5584 58.4235C34.3009 56.9129 36.5012 57.7144 37.5552 56.9663C38.1478 56.5583 40.6007 55.7909 39.9838 53.746C39.367 51.7012 38.3713 51.3175 38.3324 49.9477C38.3033 48.9763 39.1581 48.6946 39.6827 48.6071C39.9192 48.5673 40.1622 48.603 40.3773 48.7091L46.473 51.6769Z" fill="#FF7562"/>
</g>
<path d="M41.0616 49.4424C40.6293 49.2821 40.2213 49.0878 39.7987 48.9081C39.3762 48.7284 38.6039 48.6312 38.3124 49.9572C37.8802 51.9001 40.8867 53.503 39.9202 55.1107C39.3189 56.0888 38.4151 56.8442 37.3459 57.2624C37.1718 57.3223 36.9904 57.3582 36.8067 57.3693C35.947 57.4761 34.553 57.3693 34.9804 58.8701C35.4079 60.371 36.8067 61.663 37.6664 61.663H38.5262C38.5262 61.663 39.4976 64.5773 43.1405 66.1705C46.7834 67.7636 49.2605 67.6762 50.1202 65.6362C50.98 63.5962 51.626 61.8767 51.626 59.1907C51.626 56.5047 50.6545 51.9972 50.6545 51.9972C50.6545 51.9972 49.7948 53.1824 46.4676 51.6767C44.2673 50.6809 42.2079 49.8747 41.0616 49.4424Z" stroke="#263238" stroke-width="1.06068" stroke-miterlimit="10" stroke-linecap="round"/>
<path d="M44.8555 55.8052C44.9235 56.2132 44.8118 56.5726 44.6029 56.6066C44.3941 56.6406 44.1804 56.3346 44.1172 55.9266C44.0541 55.5186 44.1658 55.1543 44.3698 55.1203C44.5738 55.0863 44.7875 55.4166 44.8555 55.8052Z" fill="#263238"/>
<path d="M49.2998 55.062C49.363 55.47 49.2513 55.8294 49.0473 55.8634C48.8433 55.8974 48.6247 55.5914 48.5615 55.1834C48.4984 54.7754 48.6053 54.416 48.8093 54.382C49.0133 54.348 49.2318 54.654 49.2998 55.062Z" fill="#263238"/>
<path d="M42.2812 53.8235C42.553 53.4195 42.9217 53.0901 43.3535 52.8652C43.7854 52.6404 44.2667 52.5273 44.7536 52.5364" stroke="#263238" stroke-width="1.06068" stroke-miterlimit="10" stroke-linecap="round"/>
<path d="M48.0806 52.8571C48.4932 52.7129 48.9398 52.6974 49.3614 52.8128C49.7829 52.9282 50.1595 53.1689 50.4412 53.5031" stroke="#263238" stroke-width="1.06068" stroke-miterlimit="10" stroke-linecap="round"/>
<path d="M47.6529 54.6833C47.5936 55.3621 47.5936 56.0447 47.6529 56.7234C47.7598 57.5831 48.4009 57.7968 48.1872 58.4428C47.9735 59.0888 47.1138 59.0839 47.1138 59.0839" stroke="#263238" stroke-width="1.06068" stroke-miterlimit="10" stroke-linecap="round"/>
<path d="M46.0404 61.663C45.6726 61.7499 45.2903 61.7563 44.9197 61.6816C44.5492 61.607 44.1991 61.4532 43.8936 61.2307" stroke="#263238" stroke-width="1.06068" stroke-miterlimit="10" stroke-linecap="round"/>
</svg>
