<svg width="16" height="20" viewBox="0 0 16 20" fill="none" xmlns="http://www.w3.org/2000/svg">
<path d="M8 12C8.55 12 9.021 11.804 9.413 11.412C9.80433 11.0207 10 10.55 10 10C10 9.45 9.80433 8.979 9.413 8.587C9.021 8.19567 8.55 8 8 8C7.45 8 6.97933 8.19567 6.588 8.587C6.196 8.979 6 9.45 6 10C6 10.55 6.196 11.0207 6.588 11.412C6.97933 11.804 7.45 12 8 12ZM8 17.9C8.68333 17.7167 9.36267 17.379 10.038 16.887C10.7127 16.3957 11.3 15.85 11.8 15.25L10 13.45C9.7 13.6333 9.37933 13.771 9.038 13.863C8.696 13.9543 8.35 14 8 14C6.9 14 5.95833 13.6083 5.175 12.825C4.39167 12.0417 4 11.1 4 10C4 8.9 4.39167 7.95833 5.175 7.175C5.95833 6.39167 6.9 6 8 6C9.1 6 10.0417 6.39167 10.825 7.175C11.6083 7.95833 12 8.9 12 10C12 10.3667 11.9543 10.7207 11.863 11.062C11.771 11.404 11.6333 11.7333 11.45 12.05L12.95 13.55C13.2833 12.8667 13.5417 12.15 13.725 11.4C13.9083 10.65 14 9.88333 14 9.1V4.375L8 2.125L2 4.375V9.1C2 11.1167 2.56667 12.95 3.7 14.6C4.83333 16.25 6.26667 17.35 8 17.9ZM8 20C5.68333 19.4167 3.771 18.0873 2.263 16.012C0.754333 13.9373 0 11.6333 0 9.1V3L8 0L16 3V9.1C16 11.6333 15.246 13.9373 13.738 16.012C12.2293 18.0873 10.3167 19.4167 8 20Z" fill="black" fill-opacity="0.33"/>
</svg>
