<svg width="200" height="216" viewBox="0 0 200 216" fill="none" xmlns="http://www.w3.org/2000/svg">
<g clip-path="url(#clip0_649_26313)">
<path d="M126.866 122.097L40.4129 144.359C37.4803 145.111 34.3694 144.669 31.7625 143.129C29.1556 141.59 27.2657 139.08 26.5075 136.149L0.361887 34.6171C-0.389754 31.6846 0.0525445 28.5736 1.59175 25.9667C3.13096 23.3598 5.64138 21.4699 8.57225 20.7117L89.0024 0L109.589 9.21582L135.076 108.191C135.828 111.124 135.385 114.235 133.846 116.842C132.307 119.448 129.797 121.338 126.866 122.097Z" fill="#F2F2F2"/>
<path d="M9.39223 23.895C7.30509 24.435 5.51737 25.7808 4.42127 27.6372C3.32516 29.4936 3.01019 31.709 3.54546 33.7974L29.691 135.329C30.231 137.416 31.5768 139.204 33.4332 140.3C35.2897 141.396 37.505 141.711 39.5934 141.176L126.046 118.913C128.133 118.373 129.921 117.027 131.017 115.171C132.113 113.315 132.428 111.099 131.893 109.011L106.801 11.5692L88.7089 3.47006L9.39223 23.895Z" fill="white"/>
<path d="M109.369 9.73961L95.9897 13.185C95.0129 13.4366 93.9762 13.2898 93.1077 12.777C92.2392 12.2641 91.6099 11.4273 91.3584 10.4506L88.8137 0.568474C88.8025 0.52521 88.8038 0.479682 88.8173 0.437112C88.8309 0.394541 88.8562 0.356652 88.8903 0.327787C88.9244 0.298923 88.9659 0.280252 89.0101 0.273917C89.0544 0.267582 89.0995 0.273838 89.1403 0.291969L109.407 9.2922C109.452 9.31223 109.489 9.3458 109.515 9.38826C109.54 9.43071 109.551 9.47994 109.547 9.52912C109.543 9.5783 109.524 9.62498 109.492 9.6627C109.46 9.70042 109.417 9.7273 109.369 9.73961Z" fill="#F2F2F2"/>
<path d="M102.33 96.4455L62.9695 106.581C62.7276 106.644 62.4759 106.658 62.2287 106.623C61.9814 106.588 61.7435 106.504 61.5285 106.377C61.3134 106.25 61.1255 106.082 60.9755 105.883C60.8254 105.683 60.7161 105.456 60.6538 105.214C60.5915 104.972 60.5775 104.721 60.6125 104.473C60.6475 104.226 60.7309 103.988 60.8579 103.773C60.9848 103.558 61.1529 103.37 61.3525 103.22C61.5521 103.07 61.7792 102.961 62.0211 102.898L101.382 92.7626C101.624 92.7003 101.875 92.6863 102.123 92.7213C102.37 92.7563 102.608 92.8397 102.823 92.9667C103.038 93.0936 103.226 93.2617 103.376 93.4613C103.526 93.6609 103.635 93.888 103.697 94.1299C103.76 94.3717 103.774 94.6234 103.739 94.8706C103.704 95.1179 103.62 95.3558 103.493 95.5708C103.366 95.7859 103.198 95.9738 102.999 96.1239C102.799 96.2739 102.572 96.3832 102.33 96.4455Z" fill="#CCCCCC"/>
<path d="M111.527 100.704L64.57 112.796C64.0817 112.922 63.5633 112.849 63.1291 112.592C62.6948 112.336 62.3802 111.917 62.2544 111.429C62.1287 110.941 62.2021 110.422 62.4585 109.988C62.7149 109.554 63.1333 109.239 63.6217 109.113L110.578 97.0214C111.067 96.8962 111.584 96.9699 112.018 97.2263C112.452 97.4828 112.767 97.901 112.892 98.3891C113.018 98.8772 112.945 99.3952 112.689 99.8293C112.433 100.263 112.015 100.578 111.527 100.704Z" fill="#CCCCCC"/>
<path d="M46.9049 118.789C50.6167 118.789 53.6257 115.78 53.6257 112.068C53.6257 108.356 50.6167 105.347 46.9049 105.347C43.1931 105.347 40.1841 108.356 40.1841 112.068C40.1841 115.78 43.1931 118.789 46.9049 118.789Z" fill="#E6E6E6"/>
<path d="M98.145 78.8567L45.8701 92.3131C44.3593 92.7002 42.7567 92.4722 41.4139 91.6791C40.071 90.8861 39.0975 89.5928 38.707 88.0829L27.7522 45.5257C27.3651 44.0149 27.5931 42.4123 28.3861 41.0695C29.1792 39.7266 30.4725 38.7532 31.9824 38.3627L84.2574 24.9063C85.7681 24.5192 87.3707 24.7472 88.7136 25.5402C90.0564 26.3333 91.0299 27.6266 91.4204 29.1365L102.375 71.6937C102.762 73.2044 102.534 74.807 101.741 76.1499C100.948 77.4928 99.6549 78.4662 98.145 78.8567Z" fill="white"/>
<path d="M98.145 78.8567L45.8701 92.3131C44.3593 92.7002 42.7567 92.4722 41.4139 91.6791C40.071 90.8861 39.0975 89.5928 38.707 88.0829L27.7522 45.5257C27.3651 44.0149 27.5931 42.4123 28.3861 41.0695C29.1792 39.7266 30.4725 38.7532 31.9824 38.3627L84.2574 24.9063C85.7681 24.5192 87.3707 24.7472 88.7136 25.5402C90.0564 26.3333 91.0299 27.6266 91.4204 29.1365L102.375 71.6937C102.762 73.2044 102.534 74.807 101.741 76.1499C100.948 77.4928 99.6549 78.4662 98.145 78.8567ZM32.1549 39.0329C30.8227 39.3774 29.6815 40.2363 28.9818 41.4212C28.282 42.6061 28.0808 44.0202 28.4224 45.3532L39.3773 87.9104C39.7218 89.2426 40.5807 90.3838 41.7656 91.0835C42.9505 91.7833 44.3646 91.9844 45.6976 91.6429L97.9725 78.1865C99.3048 77.842 100.446 76.983 101.146 75.7982C101.845 74.6133 102.047 73.1992 101.705 71.8662L90.7502 29.309C90.4056 27.9768 89.5467 26.8356 88.3618 26.1358C87.1769 25.4361 85.7629 25.2349 84.4299 25.5765L32.1549 39.0329Z" fill="#E6E6E6"/>
<path d="M81.6051 39.2157L55.2226 46.0069C54.992 46.0713 54.7455 46.0458 54.533 45.9354C54.3205 45.825 54.1578 45.638 54.0778 45.4123C54.0406 45.2944 54.0278 45.1701 54.0402 45.0471C54.0526 44.924 54.09 44.8048 54.15 44.6967C54.21 44.5886 54.2913 44.4938 54.3892 44.4182C54.487 44.3426 54.5992 44.2877 54.719 44.2568L81.5747 37.3438C82.6596 37.8934 82.3741 39.0177 81.6048 39.2158L81.6051 39.2157Z" fill="#F2F2F2"/>
<path d="M82.7965 43.8433L56.414 50.6346C56.1834 50.699 55.9369 50.6734 55.7244 50.563C55.5119 50.4526 55.3492 50.2657 55.2692 50.0399C55.232 49.922 55.2192 49.7978 55.2316 49.6747C55.244 49.5517 55.2814 49.4325 55.3414 49.3244C55.4014 49.2162 55.4827 49.1215 55.5806 49.0458C55.6784 48.9702 55.7906 48.9153 55.9104 48.8845L82.7661 41.9714C83.851 42.5211 83.5655 43.6454 82.7962 43.8434L82.7965 43.8433Z" fill="#F2F2F2"/>
<path d="M51.3892 54.7376L43.3376 56.8102C43.0746 56.8776 42.7956 56.8379 42.5619 56.6999C42.3281 56.5618 42.1587 56.3367 42.0908 56.0739L39.6449 46.5723C39.5775 46.3093 39.6172 46.0303 39.7552 45.7966C39.8932 45.5628 40.1184 45.3934 40.3812 45.3255L48.4329 43.2528C48.6958 43.1855 48.9748 43.2252 49.2085 43.3633C49.4422 43.5013 49.6117 43.7264 49.6797 43.9891L52.1256 53.4908C52.193 53.7537 52.1533 54.0327 52.0152 54.2665C51.8772 54.5002 51.6521 54.6696 51.3892 54.7376V54.7376Z" fill="#E6E6E6"/>
<path d="M85.159 53.3383L44.8945 63.703C44.6639 63.7674 44.4174 63.7418 44.2049 63.6314C43.9923 63.521 43.8297 63.3341 43.7497 63.1083C43.7125 62.9904 43.6997 62.8662 43.7121 62.7431C43.7245 62.6201 43.7618 62.5009 43.8218 62.3928C43.8818 62.2846 43.9632 62.1899 44.0611 62.1143C44.1589 62.0386 44.2711 61.9837 44.3908 61.9529L85.1289 51.4662C86.2138 52.0159 85.9283 53.1402 85.159 53.3383L85.159 53.3383Z" fill="#F2F2F2"/>
<path d="M86.3504 57.9673L46.0859 68.332C45.8553 68.3964 45.6088 68.3708 45.3963 68.2604C45.1838 68.15 45.0211 67.9631 44.9411 67.7374C44.9039 67.6194 44.8911 67.4952 44.9035 67.3721C44.9159 67.2491 44.9532 67.1299 45.0132 67.0218C45.0732 66.9137 45.1546 66.8189 45.2525 66.7433C45.3503 66.6676 45.4625 66.6127 45.5822 66.5819L86.3204 56.0953C87.4052 56.645 87.1197 57.7692 86.3504 57.9673V57.9673Z" fill="#F2F2F2"/>
<path d="M87.5413 62.5933L47.2768 72.958C47.0462 73.0224 46.7997 72.9968 46.5872 72.8864C46.3747 72.776 46.212 72.5891 46.132 72.3633C46.0948 72.2454 46.082 72.1212 46.0944 71.9981C46.1068 71.8751 46.1442 71.7559 46.2042 71.6478C46.2642 71.5396 46.3455 71.4449 46.4434 71.3693C46.5412 71.2936 46.6534 71.2387 46.7732 71.2079L87.5113 60.7213C88.5961 61.2709 88.3106 62.3953 87.5413 62.5933Z" fill="#F2F2F2"/>
<path d="M88.7328 67.2219L48.4682 77.5867C48.2376 77.6511 47.9911 77.6255 47.7786 77.5151C47.5661 77.4047 47.4034 77.2177 47.3235 76.992C47.2862 76.8741 47.2734 76.7498 47.2858 76.6268C47.2982 76.5038 47.3356 76.3846 47.3956 76.2764C47.4556 76.1683 47.537 76.0736 47.6348 75.9979C47.7326 75.9223 47.8448 75.8674 47.9646 75.8366L88.7027 65.3499C89.7875 65.8996 89.5021 67.0239 88.7328 67.222L88.7328 67.2219Z" fill="#F2F2F2"/>
<path d="M89.9237 71.8483L49.6592 82.213C49.4285 82.2774 49.182 82.2518 48.9695 82.1414C48.757 82.031 48.5943 81.8441 48.5144 81.6184C48.4771 81.5004 48.4644 81.3762 48.4768 81.2532C48.4892 81.1301 48.5265 81.0109 48.5865 80.9028C48.6465 80.7947 48.7279 80.6999 48.8257 80.6243C48.9235 80.5486 49.0357 80.4937 49.1555 80.4629L89.8936 69.9763C90.9784 70.526 90.693 71.6503 89.9237 71.8483Z" fill="#F2F2F2"/>
<path d="M47.4006 114.424C47.2542 114.462 47.0995 114.451 46.9597 114.394L46.9511 114.39L45.1202 113.614C45.0352 113.578 44.9582 113.526 44.8935 113.46C44.8287 113.394 44.7776 113.316 44.7431 113.231C44.7085 113.145 44.6911 113.053 44.6919 112.961C44.6927 112.869 44.7118 112.778 44.7479 112.693C44.784 112.608 44.8365 112.531 44.9023 112.466C44.9682 112.402 45.0462 112.351 45.1318 112.316C45.2174 112.282 45.3089 112.265 45.4012 112.266C45.4935 112.267 45.5846 112.286 45.6695 112.322L46.8559 112.827L48.4105 109.169C48.4466 109.085 48.499 109.008 48.5647 108.943C48.6305 108.879 48.7083 108.828 48.7938 108.793C48.8792 108.759 48.9706 108.741 49.0627 108.742C49.1549 108.743 49.2459 108.762 49.3307 108.798L49.331 108.798L49.3216 108.822L49.3313 108.798C49.5025 108.871 49.6377 109.009 49.7072 109.182C49.7768 109.354 49.775 109.547 49.7024 109.719L47.8734 114.019C47.831 114.118 47.7663 114.206 47.6844 114.276C47.6024 114.346 47.5055 114.396 47.401 114.423L47.4006 114.424Z" fill="white"/>
<path d="M160.026 160.788H70.7526C67.7253 160.784 64.8229 159.58 62.6822 157.439C60.5415 155.299 59.3374 152.396 59.334 149.369V44.525C59.3374 41.4976 60.5415 38.5952 62.6822 36.4546C64.8229 34.3139 67.7253 33.1098 70.7526 33.1063H153.807L171.444 47.1648V149.369C171.441 152.396 170.237 155.299 168.096 157.439C165.956 159.58 163.053 160.784 160.026 160.788Z" fill="#E6E6E6"/>
<path d="M70.7526 36.3935C68.5967 36.396 66.5298 37.2534 65.0054 38.7779C63.481 40.3023 62.6235 42.3691 62.6211 44.525V149.369C62.6235 151.525 63.481 153.592 65.0054 155.116C66.5299 156.641 68.5967 157.498 70.7526 157.501H160.026C162.182 157.498 164.248 156.641 165.773 155.116C167.297 153.592 168.155 151.525 168.157 149.369V48.7484L152.657 36.3935H70.7526Z" fill="white"/>
<path d="M142.662 66.8794H102.017C101.513 66.8794 101.029 66.679 100.673 66.3224C100.316 65.9658 100.116 65.4822 100.116 64.9778C100.116 64.4735 100.316 63.9899 100.673 63.6333C101.029 63.2767 101.513 63.0763 102.017 63.0763H142.662C143.166 63.0763 143.65 63.2767 144.007 63.6333C144.363 63.9899 144.564 64.4735 144.564 64.9778C144.564 65.4822 144.363 65.9658 144.007 66.3224C143.65 66.679 143.166 66.8794 142.662 66.8794Z" fill="#FF7562"/>
<path d="M150.506 73.297H102.017C101.513 73.2963 101.03 73.0957 100.674 72.7391C100.318 72.3826 100.118 71.8993 100.118 71.3955C100.118 70.8916 100.318 70.4083 100.674 70.0518C101.03 69.6953 101.513 69.4946 102.017 69.494H150.506C150.756 69.4936 151.003 69.5426 151.234 69.638C151.465 69.7334 151.675 69.8734 151.852 70.05C152.029 70.2266 152.169 70.4363 152.265 70.6672C152.36 70.8981 152.41 71.1455 152.41 71.3955C152.41 71.6454 152.36 71.8929 152.265 72.1237C152.169 72.3546 152.029 72.5643 151.852 72.7409C151.675 72.9176 151.465 73.0576 151.234 73.153C151.003 73.2484 150.756 73.2973 150.506 73.297Z" fill="#FF7562"/>
<path d="M142.662 91.8356H102.019C101.514 91.8356 101.031 92.036 100.674 92.3925C100.318 92.7491 100.117 93.2327 100.117 93.737C100.117 94.2413 100.318 94.7249 100.674 95.0815C101.031 95.4381 101.514 95.6384 102.019 95.6384H142.662C143.166 95.6384 143.65 95.4381 144.007 95.0815C144.363 94.7249 144.563 94.2413 144.563 93.737C144.563 93.2327 144.363 92.7491 144.007 92.3925C143.65 92.036 143.166 91.8356 142.662 91.8356Z" fill="#CCCCCC"/>
<path d="M150.506 98.2543H102.019C101.514 98.2543 101.031 98.4546 100.674 98.8112C100.318 99.1678 100.117 99.6514 100.117 100.156C100.117 100.66 100.318 101.144 100.674 101.5C101.031 101.857 101.514 102.057 102.019 102.057H150.506C151.011 102.057 151.494 101.857 151.851 101.5C152.207 101.144 152.408 100.66 152.408 100.156C152.408 99.6514 152.207 99.1678 151.851 98.8112C151.494 98.4546 151.011 98.2543 150.506 98.2543Z" fill="#CCCCCC"/>
<path d="M142.662 124.4H102.017C101.513 124.4 101.029 124.2 100.673 123.843C100.316 123.487 100.116 123.003 100.116 122.499C100.116 121.994 100.316 121.511 100.673 121.154C101.029 120.797 101.513 120.597 102.017 120.597H142.662C143.166 120.597 143.65 120.797 144.007 121.154C144.363 121.511 144.564 121.994 144.564 122.499C144.564 123.003 144.363 123.487 144.007 123.843C143.65 124.2 143.166 124.4 142.662 124.4Z" fill="#CCCCCC"/>
<path d="M150.506 130.818H102.017C101.513 130.817 101.03 130.616 100.674 130.26C100.318 129.903 100.118 129.42 100.118 128.916C100.118 128.412 100.318 127.929 100.674 127.573C101.03 127.216 101.513 127.015 102.017 127.015H150.506C150.756 127.014 151.003 127.063 151.234 127.159C151.465 127.254 151.675 127.394 151.852 127.571C152.029 127.747 152.169 127.957 152.265 128.188C152.36 128.419 152.41 128.666 152.41 128.916C152.41 129.166 152.36 129.414 152.265 129.644C152.169 129.875 152.029 130.085 151.852 130.262C151.675 130.438 151.465 130.578 151.234 130.674C151.003 130.769 150.756 130.818 150.506 130.818Z" fill="#CCCCCC"/>
<path d="M85.0919 74.9074C88.8037 74.9074 91.8127 71.8984 91.8127 68.1866C91.8127 64.4749 88.8037 61.4659 85.0919 61.4659C81.3801 61.4659 78.3711 64.4749 78.3711 68.1866C78.3711 71.8984 81.3801 74.9074 85.0919 74.9074Z" fill="#FF7562"/>
<path d="M84.4259 70.7504C84.2747 70.7507 84.1276 70.7018 84.0066 70.6111L83.9991 70.6054L82.4196 69.3972C82.3462 69.3412 82.2846 69.2713 82.2383 69.1914C82.192 69.1116 82.1619 69.0234 82.1497 68.9319C82.1375 68.8404 82.1435 68.7474 82.1673 68.6582C82.1911 68.569 82.2323 68.4854 82.2884 68.4122C82.3446 68.3389 82.4146 68.2775 82.4946 68.2313C82.5745 68.1852 82.6628 68.1553 82.7543 68.1433C82.8458 68.1313 82.9388 68.1375 83.0279 68.1614C83.1171 68.1854 83.2006 68.2268 83.2737 68.2831L84.2968 69.0676L86.7143 65.9137C86.7704 65.8406 86.8403 65.7792 86.9201 65.7331C86.9998 65.687 87.0879 65.6571 87.1793 65.645C87.2706 65.6329 87.3634 65.639 87.4524 65.6628C87.5414 65.6866 87.6249 65.7277 87.698 65.7838L87.6982 65.7839L87.6832 65.8047L87.6986 65.7839C87.8461 65.8973 87.9427 66.0645 87.967 66.249C87.9913 66.4335 87.9415 66.62 87.8284 66.7678L84.9849 70.4759C84.9191 70.5613 84.8345 70.6304 84.7377 70.6779C84.6408 70.7254 84.5344 70.7499 84.4266 70.7496L84.4259 70.7504Z" fill="white"/>
<path d="M92.5033 96.9463C92.5036 97.829 92.3301 98.7032 91.9926 99.5188C91.655 100.334 91.1601 101.076 90.5361 101.7C89.9121 102.324 89.1712 102.819 88.3558 103.157C87.5404 103.495 86.6663 103.669 85.7836 103.67C85.7259 103.671 85.6681 103.668 85.6106 103.663C84.2891 103.629 83.007 103.206 81.9246 102.447C80.8423 101.688 80.0078 100.627 79.5256 99.3959C79.0434 98.165 78.9349 96.8193 79.2136 95.5271C79.4924 94.235 80.1461 93.0537 81.0929 92.1312C82.0396 91.2086 83.2375 90.5858 84.5364 90.3406C85.8354 90.0954 87.1779 90.2388 88.3958 90.7527C89.6137 91.2667 90.653 92.1284 91.3836 93.2301C92.1142 94.3318 92.5037 95.6244 92.5033 96.9463Z" fill="#CCCCCC"/>
<path d="M85.0919 132.428C88.8037 132.428 91.8127 129.419 91.8127 125.707C91.8127 121.996 88.8037 118.987 85.0919 118.987C81.3801 118.987 78.3711 121.996 78.3711 125.707C78.3711 129.419 81.3801 132.428 85.0919 132.428Z" fill="#CCCCCC"/>
<path d="M171.101 47.6172H157.285C156.276 47.6172 155.309 47.2165 154.596 46.5033C153.883 45.7901 153.482 44.8228 153.482 43.8142V33.6097C153.482 33.565 153.495 33.5213 153.518 33.4834C153.542 33.4456 153.576 33.4152 153.616 33.3957C153.656 33.3763 153.701 33.3685 153.746 33.3734C153.79 33.3783 153.832 33.3956 153.867 33.4234L171.249 47.1932C171.287 47.2238 171.316 47.2658 171.329 47.3131C171.343 47.3605 171.342 47.411 171.326 47.4576C171.309 47.5043 171.279 47.5447 171.239 47.5733C171.199 47.6018 171.151 47.6172 171.101 47.6172Z" fill="#CCCCCC"/>
<path d="M92.5031 96.9463C92.5035 97.829 92.3299 98.7032 91.9924 99.5188C91.6548 100.334 91.1599 101.076 90.5359 101.7C89.9119 102.324 89.1711 102.819 88.3556 103.157C87.5402 103.495 86.6661 103.669 85.7834 103.67C85.7257 103.671 85.6679 103.668 85.6104 103.663C84.7422 101.497 84.4074 99.1543 84.6345 96.8321C84.8615 94.51 85.6437 92.2765 86.9149 90.3201C88.4783 90.588 89.8966 91.4001 90.9192 92.6126C91.9418 93.8252 92.5028 95.3602 92.5031 96.9463Z" fill="#FF7562"/>
<path d="M100.116 93.7387C100.117 93.2343 100.317 92.7507 100.674 92.394C101.031 92.0373 101.514 91.8365 102.019 91.8356H112.147C112.738 93.0388 113.159 94.3188 113.396 95.6384H102.019C101.515 95.6383 101.031 95.4382 100.674 95.0821C100.318 94.7259 100.117 94.2428 100.116 93.7387Z" fill="#FF7562"/>
<path d="M113.631 98.2543C113.632 99.5387 113.462 100.817 113.126 102.057H102.019C101.514 102.057 101.031 101.857 100.674 101.5C100.318 101.144 100.117 100.66 100.117 100.156C100.117 99.6514 100.318 99.1678 100.674 98.8112C101.031 98.4546 101.514 98.2543 102.019 98.2543H113.631Z" fill="#FF7562"/>
<path d="M138.691 121.707C138.404 122.177 137.942 122.514 137.407 122.643C136.872 122.773 136.307 122.685 135.837 122.398L111.614 107.623C111.381 107.481 111.179 107.294 111.018 107.074C110.857 106.854 110.742 106.604 110.678 106.339C110.613 106.074 110.602 105.799 110.644 105.53C110.686 105.26 110.781 105.002 110.923 104.769C111.065 104.537 111.251 104.334 111.471 104.173C111.692 104.013 111.941 103.897 112.206 103.833C112.471 103.768 112.746 103.757 113.016 103.799C113.285 103.841 113.544 103.936 113.776 104.078L137.999 118.853C138.47 119.14 138.806 119.602 138.936 120.137C139.066 120.672 138.977 121.237 138.691 121.707Z" fill="#3F3D56"/>
<path d="M114.468 106.931C112.757 109.736 110.253 111.97 107.273 113.352C104.292 114.733 100.969 115.2 97.7239 114.692C94.4783 114.185 91.456 112.727 89.0392 110.502C86.6224 108.277 84.9196 105.386 84.1462 102.193C83.3727 99.0007 83.5633 95.6504 84.6939 92.5662C85.8245 89.4819 87.8443 86.8022 90.4979 84.8659C93.1515 82.9296 96.3197 81.8236 99.6018 81.6879C102.884 81.5521 106.133 82.3927 108.937 84.1033C112.694 86.4005 115.386 90.0942 116.423 94.3738C117.459 98.6534 116.756 103.17 114.468 106.931ZM89.6536 91.796C88.3707 93.8993 87.7403 96.3358 87.8421 98.7974C87.9439 101.259 88.7734 103.635 90.2256 105.625C91.6779 107.615 93.6877 109.13 96.0008 109.978C98.314 110.826 100.827 110.969 103.221 110.389C105.616 109.809 107.784 108.532 109.453 106.719C111.121 104.907 112.215 102.64 112.596 100.206C112.976 97.7717 112.626 95.2794 111.59 93.0441C110.554 90.8089 108.878 88.931 106.775 87.6481C103.953 85.9315 100.566 85.4042 97.3565 86.1818C94.1468 86.9594 91.3766 88.9784 89.6536 91.796Z" fill="#3F3D56"/>
<path d="M167.682 100.946C172.376 100.946 176.181 97.1407 176.181 92.447C176.181 87.7534 172.376 83.9484 167.682 83.9484C162.989 83.9484 159.184 87.7534 159.184 92.447C159.184 97.1407 162.989 100.946 167.682 100.946Z" fill="#A0616A"/>
<path d="M167.133 140.091C166.969 139.58 166.915 139.041 166.974 138.508C167.034 137.975 167.205 137.46 167.477 136.998C167.748 136.535 168.115 136.136 168.552 135.825C168.989 135.514 169.487 135.299 170.013 135.194C170.18 135.162 170.348 135.141 170.518 135.132L179.47 120.764L171.293 112.99C170.98 112.693 170.73 112.337 170.556 111.943C170.382 111.549 170.287 111.124 170.278 110.693C170.269 110.262 170.346 109.833 170.504 109.432C170.661 109.031 170.897 108.664 171.197 108.355C171.496 108.045 171.855 107.798 172.251 107.627C172.647 107.457 173.072 107.366 173.503 107.361C173.934 107.356 174.362 107.437 174.762 107.598C175.162 107.759 175.526 107.998 175.833 108.301L187.123 119.434L187.146 119.461C187.495 119.993 187.664 120.623 187.627 121.257C187.59 121.892 187.349 122.498 186.94 122.985L174.397 137.82C174.434 137.939 174.466 138.06 174.49 138.182C174.595 138.708 174.588 139.25 174.469 139.773C174.349 140.296 174.121 140.788 173.798 141.217C173.476 141.645 173.066 142.001 172.597 142.26C172.127 142.519 171.608 142.676 171.073 142.721C170.965 142.73 170.858 142.735 170.751 142.735C169.946 142.731 169.163 142.474 168.514 141.999C167.864 141.524 167.381 140.857 167.133 140.091Z" fill="#A0616A"/>
<path d="M153.685 210.727L149.443 210.726L147.425 194.364L153.686 194.364L153.685 210.727Z" fill="#A0616A"/>
<path d="M154.767 214.839L141.088 214.838V214.665C141.088 213.966 141.226 213.274 141.494 212.628C141.761 211.982 142.153 211.395 142.648 210.9C143.142 210.406 143.729 210.014 144.375 209.746C145.021 209.479 145.713 209.341 146.412 209.341H146.413L154.767 209.341L154.767 214.839Z" fill="#2F2E41"/>
<path d="M195.85 204.861L192.205 207.031L182.099 194.005L187.479 190.802L195.85 204.861Z" fill="#A0616A"/>
<path d="M198.883 207.841L187.13 214.839L187.042 214.69C186.684 214.089 186.448 213.424 186.347 212.732C186.247 212.04 186.283 211.335 186.455 210.657C186.627 209.98 186.931 209.343 187.349 208.782C187.767 208.222 188.291 207.749 188.892 207.392L188.892 207.391L196.071 203.118L198.883 207.841Z" fill="#2F2E41"/>
<path d="M146.89 203.52C144.048 170.058 142.357 138.972 152.746 126.291L152.826 126.193L170.309 133.186L170.338 133.249C170.397 133.377 176.211 146.167 174.855 154.769L179.167 174.606L193.228 198.149C193.341 198.339 193.413 198.55 193.438 198.77C193.463 198.989 193.442 199.211 193.375 199.421C193.307 199.632 193.196 199.825 193.049 199.99C192.901 200.154 192.72 200.285 192.518 200.374L186.408 203.062C186.063 203.212 185.676 203.233 185.317 203.121C184.958 203.008 184.651 202.771 184.453 202.451L169.158 177.51L160.519 158.38C160.472 158.276 160.392 158.19 160.291 158.136C160.191 158.082 160.076 158.063 159.963 158.081C159.851 158.099 159.747 158.154 159.669 158.236C159.59 158.319 159.541 158.425 159.529 158.539L154.74 203.555C154.7 203.937 154.52 204.291 154.234 204.549C153.948 204.806 153.577 204.948 153.192 204.947H148.442C148.052 204.945 147.677 204.797 147.39 204.534C147.103 204.27 146.925 203.909 146.89 203.52Z" fill="#2F2E41"/>
<path d="M152.805 126.556L152.721 126.517L152.708 126.425C152.055 121.854 152.828 116.775 155.006 111.33C156.079 108.665 158.074 106.474 160.628 105.156C163.181 103.839 166.123 103.483 168.917 104.152C170.526 104.549 172.036 105.275 173.35 106.286C174.664 107.296 175.753 108.569 176.55 110.022C177.336 111.461 177.815 113.047 177.957 114.681C178.098 116.314 177.899 117.959 177.371 119.512C174.626 127.539 171.065 135.05 171.029 135.125L170.954 135.282L152.805 126.556Z" fill="#FF7562"/>
<path d="M133.73 115.171C134.151 114.839 134.637 114.599 135.157 114.468C135.677 114.337 136.219 114.317 136.748 114.409C137.276 114.502 137.779 114.706 138.223 115.006C138.667 115.307 139.043 115.698 139.325 116.154C139.414 116.298 139.492 116.449 139.56 116.605L156.153 119.959L160.571 109.577C160.74 109.18 160.986 108.821 161.294 108.52C161.603 108.218 161.968 107.981 162.368 107.822C162.769 107.663 163.197 107.584 163.628 107.591C164.059 107.598 164.484 107.691 164.88 107.863C165.275 108.036 165.632 108.285 165.93 108.596C166.228 108.907 166.462 109.274 166.618 109.676C166.774 110.078 166.848 110.507 166.837 110.938C166.826 111.369 166.73 111.794 166.554 112.187L160.08 126.661L160.062 126.692C159.686 127.205 159.155 127.584 158.548 127.771C157.94 127.959 157.288 127.946 156.689 127.734L138.401 121.18C138.302 121.256 138.2 121.328 138.094 121.394C137.638 121.676 137.128 121.859 136.596 121.931C136.065 122.002 135.524 121.96 135.01 121.808C134.495 121.656 134.019 121.397 133.612 121.048C133.205 120.699 132.876 120.268 132.647 119.783C132.6 119.685 132.558 119.586 132.52 119.486C132.242 118.731 132.209 117.907 132.426 117.132C132.643 116.358 133.1 115.671 133.73 115.171Z" fill="#A0616A"/>
<path d="M198.384 101.548C197.565 100.098 196.373 98.7694 194.796 98.2332C192.76 97.5408 190.555 98.278 188.461 98.7703C186.848 99.1495 185.163 99.3816 183.537 99.0616C181.912 98.7416 180.343 97.7954 179.604 96.3128C178.516 94.1316 179.432 91.5306 179.366 89.0939C179.332 87.7675 178.997 86.4661 178.387 85.2878C177.777 84.1096 176.907 83.0852 175.844 82.2919C174.78 81.4986 173.55 80.957 172.247 80.7081C170.944 80.4592 169.601 80.5094 168.32 80.855C166.315 80.2764 164.5 80.2229 163.26 81.764C161.7 81.764 160.204 82.3838 159.101 83.4869C157.998 84.5901 157.378 86.0863 157.378 87.6464H163.003C162.736 89.0806 163.041 90.5622 163.852 91.7747C164.845 93.2335 166.571 94.2888 166.904 96.0218C167.226 97.7012 166.084 99.2947 164.887 100.515C163.689 101.736 162.3 102.946 161.926 104.615C161.697 105.881 161.957 107.188 162.654 108.27C163.35 109.339 164.213 110.29 165.21 111.085C169.703 114.935 175.043 117.666 180.794 119.058C184.844 120.033 189.273 120.285 193.033 118.492C194.537 117.774 195.877 116.755 196.971 115.498C198.064 114.24 198.887 112.771 199.389 111.182C199.891 109.593 200.061 107.918 199.888 106.261C199.715 104.604 199.203 102.999 198.384 101.548Z" fill="#2F2E41"/>
<path d="M199.654 215.199H133.91C133.818 215.199 133.73 215.162 133.665 215.097C133.6 215.032 133.564 214.944 133.564 214.853C133.564 214.761 133.6 214.673 133.665 214.608C133.73 214.543 133.818 214.507 133.91 214.507H199.654C199.746 214.507 199.834 214.543 199.898 214.608C199.963 214.673 200 214.761 200 214.853C200 214.944 199.963 215.032 199.898 215.097C199.834 215.162 199.746 215.199 199.654 215.199Z" fill="#CCCCCC"/>
</g>
<defs>
<clipPath id="clip0_649_26313">
<rect width="200" height="215.199" fill="white"/>
</clipPath>
</defs>
</svg>
