<svg width="18" height="20" viewBox="0 0 18 20" fill="none" xmlns="http://www.w3.org/2000/svg">
<path d="M6 14.5C5.3 14.5 4.70833 14.2583 4.225 13.775C3.74167 13.2917 3.5 12.7 3.5 12C3.5 11.3 3.74167 10.7083 4.225 10.225C4.70833 9.74167 5.3 9.5 6 9.5C6.7 9.5 7.29167 9.74167 7.775 10.225C8.25833 10.7083 8.5 11.3 8.5 12C8.5 12.7 8.25833 13.2917 7.775 13.775C7.29167 14.2583 6.7 14.5 6 14.5ZM2 20C1.45 20 0.979 19.8043 0.587 19.413C0.195667 19.021 0 18.55 0 18V4C0 3.45 0.195667 2.97933 0.587 2.588C0.979 2.196 1.45 2 2 2H3V1C3 0.716667 3.09567 0.479 3.287 0.287C3.479 0.0956666 3.71667 0 4 0C4.28333 0 4.521 0.0956666 4.713 0.287C4.90433 0.479 5 0.716667 5 1V2H13V1C13 0.716667 13.096 0.479 13.288 0.287C13.4793 0.0956666 13.7167 0 14 0C14.2833 0 14.5207 0.0956666 14.712 0.287C14.904 0.479 15 0.716667 15 1V2H16C16.55 2 17.021 2.196 17.413 2.588C17.8043 2.97933 18 3.45 18 4V18C18 18.55 17.8043 19.021 17.413 19.413C17.021 19.8043 16.55 20 16 20H2ZM2 18H16V8H2V18ZM2 6H16V4H2V6ZM2 6V4V6Z" fill="#FF7562"/>
</svg>
